<ttFont>
    <TTGlyph name=".notdef" xMin="193" yMin="0" xMax="1034" yMax="1362">
      <contour>
        <pt x="193" y="1362" on="1"/>
        <pt x="1034" y="1362" on="1"/>
        <pt x="1034" y="0" on="1"/>
        <pt x="193" y="0" on="1"/>
      </contour>
      <contour>
        <pt x="297" y="104" on="1"/>
        <pt x="930" y="104" on="1"/>
        <pt x="930" y="1258" on="1"/>
        <pt x="297" y="1258" on="1"/>
      </contour>
    </TTGlyph>
    <TTGlyph name="afii301" xMin="-299" yMin="-338" xMax="299" yMax="1613">
      <contour>
        <pt x="74" y="1323" on="1"/>
        <pt x="299" y="1103" on="1"/>
        <pt x="224" y="1030" on="1"/>
        <pt x="54" y="1199" on="1"/>
        <pt x="54" y="-338" on="1"/>
        <pt x="-54" y="-338" on="1"/>
        <pt x="-54" y="1199" on="1"/>
        <pt x="-224" y="1030" on="1"/>
        <pt x="-299" y="1103" on="1"/>
        <pt x="-74" y="1323" on="1"/>
        <pt x="-299" y="1540" on="1"/>
        <pt x="-224" y="1613" on="1"/>
        <pt x="0" y="1393" on="1"/>
        <pt x="224" y="1613" on="1"/>
        <pt x="299" y="1539" on="1"/>
      </contour>
    </TTGlyph>
    <TTGlyph name="afii61664" xMin="-54" yMin="-339" xMax="54" yMax="1613">
      <contour>
        <pt x="-54" y="-339" on="1"/>
        <pt x="-54" y="1613" on="1"/>
        <pt x="54" y="1613" on="1"/>
        <pt x="54" y="-339" on="1"/>
      </contour>
    </TTGlyph>
    <TTGlyph name="asciicircum" xMin="63" yMin="488" xMax="1220" yMax="1438">
      <contour>
        <pt x="63" y="488" on="1"/>
        <pt x="541" y="1438" on="1"/>
        <pt x="685" y="1438" on="1"/>
        <pt x="1220" y="488" on="1"/>
        <pt x="981" y="488" on="1"/>
        <pt x="619" y="1131" on="1"/>
        <pt x="299" y="488" on="1"/>
      </contour>
    </TTGlyph>
    <TTGlyph name="asciitilde" xMin="88" yMin="532" xMax="1081" yMax="874">
      <contour>
        <pt x="88" y="532" on="1"/>
        <pt x="88" y="763" on="1"/>
        <pt x="191" y="872" on="0"/>
        <pt x="344" y="872" on="1"/>
        <pt x="413" y="872" on="0"/>
        <pt x="531" y="845" on="0"/>
        <pt x="621" y="808" on="1"/>
        <pt x="689" y="779" on="0"/>
        <pt x="795" y="753" on="0"/>
        <pt x="848" y="753" on="1"/>
        <pt x="903" y="753" on="0"/>
        <pt x="1027" y="819" on="0"/>
        <pt x="1081" y="874" on="1"/>
        <pt x="1081" y="643" on="1"/>
        <pt x="980" y="534" on="0"/>
        <pt x="825" y="534" on="1"/>
        <pt x="748" y="534" on="0"/>
        <pt x="620" y="567" on="0"/>
        <pt x="549" y="597" on="1"/>
        <pt x="472" y="629" on="0"/>
        <pt x="370" y="653" on="0"/>
        <pt x="322" y="653" on="1"/>
        <pt x="269" y="653" on="0"/>
        <pt x="146" y="589" on="0"/>
      </contour>
    </TTGlyph>
    <TTGlyph name="asterisk" xMin="73" yMin="667" xMax="1063" yMax="1625">
      <contour>
        <pt x="698" y="1625" on="1"/>
        <pt x="657" y="1257" on="1"/>
        <pt x="1030" y="1361" on="1"/>
        <pt x="1063" y="1109" on="1"/>
        <pt x="723" y="1085" on="1"/>
        <pt x="946" y="788" on="1"/>
        <pt x="719" y="667" on="1"/>
        <pt x="563" y="980" on="1"/>
        <pt x="426" y="669" on="1"/>
        <pt x="190" y="788" on="1"/>
        <pt x="411" y="1085" on="1"/>
        <pt x="73" y="1111" on="1"/>
        <pt x="112" y="1361" on="1"/>
        <pt x="477" y="1257" on="1"/>
        <pt x="436" y="1625" on="1"/>
      </contour>
    </TTGlyph>
    <TTGlyph name="backslash" xMin="169" yMin="-754" xMax="971" yMax="1625">
      <contour>
        <pt x="426" y="1625" on="1"/>
        <pt x="971" y="-754" on="1"/>
        <pt x="714" y="-754" on="1"/>
        <pt x="169" y="1625" on="1"/>
      </contour>
    </TTGlyph>
    <TTGlyph name="bar" xMin="455" yMin="-754" xMax="674" yMax="1625">
      <contour>
        <pt x="455" y="1625" on="1"/>
        <pt x="674" y="1625" on="1"/>
        <pt x="674" y="-754" on="1"/>
        <pt x="455" y="-754" on="1"/>
      </contour>
    </TTGlyph>
    <TTGlyph name="braceleft" xMin="50" yMin="-754" xMax="714" yMax="1625">
      <contour>
        <pt x="714" y="1400" on="1"/>
        <pt x="636" y="1398" on="0"/>
        <pt x="564" y="1317" on="0"/>
        <pt x="564" y="1229" on="1"/>
        <pt x="564" y="664" on="1"/>
        <pt x="564" y="478" on="0"/>
        <pt x="330" y="442" on="1"/>
        <pt x="330" y="430" on="1"/>
        <pt x="564" y="395" on="0"/>
        <pt x="564" y="209" on="1"/>
        <pt x="564" y="-357" on="1"/>
        <pt x="564" y="-446" on="0"/>
        <pt x="637" y="-527" on="0"/>
        <pt x="714" y="-528" on="1"/>
        <pt x="714" y="-754" on="1"/>
        <pt x="574" y="-754" on="0"/>
        <pt x="389" y="-691" on="0"/>
        <pt x="296" y="-548" on="0"/>
        <pt x="296" y="-415" on="1"/>
        <pt x="296" y="137" on="1"/>
        <pt x="296" y="228" on="0"/>
        <pt x="176" y="316" on="0"/>
        <pt x="50" y="316" on="1"/>
        <pt x="50" y="555" on="1"/>
        <pt x="175" y="555" on="0"/>
        <pt x="296" y="642" on="0"/>
        <pt x="296" y="733" on="1"/>
        <pt x="296" y="1287" on="1"/>
        <pt x="296" y="1417" on="0"/>
        <pt x="386" y="1560" on="0"/>
        <pt x="571" y="1625" on="0"/>
        <pt x="714" y="1625" on="1"/>
      </contour>
    </TTGlyph>
    <TTGlyph name="braceright" xMin="74" yMin="-754" xMax="738" yMax="1625">
      <contour>
        <pt x="74" y="1625" on="1"/>
        <pt x="218" y="1625" on="0"/>
        <pt x="403" y="1559" on="0"/>
        <pt x="492" y="1417" on="0"/>
        <pt x="492" y="1287" on="1"/>
        <pt x="492" y="733" on="1"/>
        <pt x="492" y="642" on="0"/>
        <pt x="613" y="555" on="0"/>
        <pt x="738" y="555" on="1"/>
        <pt x="738" y="316" on="1"/>
        <pt x="612" y="316" on="0"/>
        <pt x="492" y="228" on="0"/>
        <pt x="492" y="137" on="1"/>
        <pt x="492" y="-415" on="1"/>
        <pt x="492" y="-548" on="0"/>
        <pt x="399" y="-691" on="0"/>
        <pt x="214" y="-754" on="0"/>
        <pt x="74" y="-754" on="1"/>
        <pt x="74" y="-528" on="1"/>
        <pt x="151" y="-527" on="0"/>
        <pt x="224" y="-446" on="0"/>
        <pt x="224" y="-357" on="1"/>
        <pt x="224" y="209" on="1"/>
        <pt x="224" y="395" on="0"/>
        <pt x="458" y="430" on="1"/>
        <pt x="458" y="442" on="1"/>
        <pt x="224" y="478" on="0"/>
        <pt x="224" y="664" on="1"/>
        <pt x="224" y="1229" on="1"/>
        <pt x="224" y="1317" on="0"/>
        <pt x="152" y="1398" on="0"/>
        <pt x="74" y="1400" on="1"/>
      </contour>
    </TTGlyph>
    <TTGlyph name="bracketleft" xMin="160" yMin="-755" xMax="644" yMax="1625">
      <contour>
        <pt x="644" y="-755" on="1"/>
        <pt x="160" y="-755" on="1"/>
        <pt x="160" y="1625" on="1"/>
        <pt x="644" y="1625" on="1"/>
        <pt x="644" y="1414" on="1"/>
        <pt x="420" y="1414" on="1"/>
        <pt x="420" y="-544" on="1"/>
        <pt x="644" y="-544" on="1"/>
      </contour>
    </TTGlyph>
    <TTGlyph name="bracketright" xMin="174" yMin="-754" xMax="658" yMax="1625">
      <contour>
        <pt x="174" y="-543" on="1"/>
        <pt x="398" y="-543" on="1"/>
        <pt x="398" y="1414" on="1"/>
        <pt x="174" y="1414" on="1"/>
        <pt x="174" y="1625" on="1"/>
        <pt x="658" y="1625" on="1"/>
        <pt x="658" y="-754" on="1"/>
        <pt x="174" y="-754" on="1"/>
      </contour>
    </TTGlyph>
    <TTGlyph name="colon" xMin="137" yMin="-24" xMax="487" yMax="941">
      <contour>
        <pt x="313" y="941" on="1"/>
        <pt x="395" y="941" on="0"/>
        <pt x="487" y="854" on="0"/>
        <pt x="487" y="771" on="1"/>
        <pt x="487" y="689" on="0"/>
        <pt x="394" y="601" on="0"/>
        <pt x="313" y="601" on="1"/>
        <pt x="230" y="601" on="0"/>
        <pt x="137" y="689" on="0"/>
        <pt x="137" y="771" on="1"/>
        <pt x="137" y="854" on="0"/>
        <pt x="228" y="941" on="0"/>
      </contour>
      <contour>
        <pt x="313" y="316" on="1"/>
        <pt x="395" y="316" on="0"/>
        <pt x="487" y="229" on="0"/>
        <pt x="487" y="146" on="1"/>
        <pt x="487" y="64" on="0"/>
        <pt x="392" y="-24" on="0"/>
        <pt x="313" y="-24" on="1"/>
        <pt x="231" y="-24" on="0"/>
        <pt x="137" y="64" on="0"/>
        <pt x="137" y="146" on="1"/>
        <pt x="137" y="229" on="0"/>
        <pt x="228" y="316" on="0"/>
      </contour>
    </TTGlyph>
    <TTGlyph name="comma" xMin="123" yMin="-261" xMax="519" yMax="241">
      <contour>
        <pt x="519" y="218" on="1"/>
        <pt x="467" y="17" on="0"/>
        <pt x="343" y="-261" on="1"/>
        <pt x="123" y="-261" on="1"/>
        <pt x="191" y="25" on="0"/>
        <pt x="224" y="241" on="1"/>
        <pt x="504" y="241" on="1"/>
      </contour>
    </TTGlyph>
    <TTGlyph name="divide" xMin="88" yMin="203" xMax="1081" yMax="1205">
      <contour>
        <pt x="584" y="1205" on="1"/>
        <pt x="650" y="1205" on="0"/>
        <pt x="723" y="1126" on="0"/>
        <pt x="723" y="1053" on="1"/>
        <pt x="723" y="981" on="0"/>
        <pt x="646" y="902" on="0"/>
        <pt x="584" y="902" on="1"/>
        <pt x="520" y="902" on="0"/>
        <pt x="444" y="981" on="0"/>
        <pt x="444" y="1053" on="1"/>
        <pt x="444" y="1127" on="0"/>
        <pt x="516" y="1205" on="0"/>
      </contour>
      <contour>
        <pt x="88" y="594" on="1"/>
        <pt x="88" y="813" on="1"/>
        <pt x="1081" y="813" on="1"/>
        <pt x="1081" y="594" on="1"/>
      </contour>
      <contour>
        <pt x="584" y="506" on="1"/>
        <pt x="650" y="506" on="0"/>
        <pt x="723" y="428" on="0"/>
        <pt x="723" y="355" on="1"/>
        <pt x="723" y="283" on="0"/>
        <pt x="646" y="203" on="0"/>
        <pt x="584" y="203" on="1"/>
        <pt x="519" y="203" on="0"/>
        <pt x="444" y="283" on="0"/>
        <pt x="444" y="355" on="1"/>
        <pt x="444" y="428" on="0"/>
        <pt x="516" y="506" on="0"/>
      </contour>
    </TTGlyph>
    <TTGlyph name="eight" xMin="72" yMin="-24" xMax="1098" yMax="1438">
      <contour>
        <pt x="791" y="748" on="1"/>
        <pt x="952" y="665" on="0"/>
        <pt x="1098" y="477" on="0"/>
        <pt x="1098" y="365" on="1"/>
        <pt x="1098" y="190" on="0"/>
        <pt x="817" y="-24" on="0"/>
        <pt x="586" y="-24" on="1"/>
        <pt x="342" y="-24" on="0"/>
        <pt x="72" y="178" on="0"/>
        <pt x="72" y="357" on="1"/>
        <pt x="72" y="480" on="0"/>
        <pt x="207" y="670" on="0"/>
        <pt x="352" y="740" on="1"/>
        <pt x="231" y="813" on="0"/>
        <pt x="117" y="988" on="0"/>
        <pt x="117" y="1097" on="1"/>
        <pt x="117" y="1252" on="0"/>
        <pt x="381" y="1438" on="0"/>
        <pt x="586" y="1438" on="1"/>
        <pt x="792" y="1438" on="0"/>
        <pt x="1053" y="1255" on="0"/>
        <pt x="1053" y="1095" on="1"/>
        <pt x="1053" y="983" on="0"/>
        <pt x="924" y="812" on="0"/>
      </contour>
      <contour>
        <pt x="586" y="877" on="1"/>
        <pt x="679" y="917" on="0"/>
        <pt x="762" y="1010" on="0"/>
        <pt x="762" y="1071" on="1"/>
        <pt x="762" y="1136" on="0"/>
        <pt x="666" y="1212" on="0"/>
        <pt x="584" y="1212" on="1"/>
        <pt x="503" y="1212" on="0"/>
        <pt x="408" y="1136" on="0"/>
        <pt x="408" y="1071" on="1"/>
        <pt x="408" y="1013" on="0"/>
        <pt x="491" y="920" on="0"/>
      </contour>
      <contour>
        <pt x="571" y="613" on="1"/>
        <pt x="358" y="519" on="0"/>
        <pt x="358" y="376" on="1"/>
        <pt x="358" y="296" on="0"/>
        <pt x="475" y="203" on="0"/>
        <pt x="582" y="203" on="1"/>
        <pt x="694" y="203" on="0"/>
        <pt x="811" y="292" on="0"/>
        <pt x="811" y="374" on="1"/>
        <pt x="811" y="434" on="0"/>
        <pt x="715" y="542" on="0"/>
        <pt x="598" y="600" on="1"/>
      </contour>
    </TTGlyph>
    <TTGlyph name="ellipsis" xMin="117" yMin="-24" xMax="1634" yMax="316">
      <contour>
        <pt x="293" y="316" on="1"/>
        <pt x="375" y="316" on="0"/>
        <pt x="467" y="229" on="0"/>
        <pt x="467" y="146" on="1"/>
        <pt x="467" y="64" on="0"/>
        <pt x="372" y="-24" on="0"/>
        <pt x="293" y="-24" on="1"/>
        <pt x="211" y="-24" on="0"/>
        <pt x="117" y="64" on="0"/>
        <pt x="117" y="146" on="1"/>
        <pt x="117" y="229" on="0"/>
        <pt x="208" y="316" on="0"/>
      </contour>
      <contour>
        <pt x="877" y="316" on="1"/>
        <pt x="959" y="316" on="0"/>
        <pt x="1051" y="229" on="0"/>
        <pt x="1051" y="146" on="1"/>
        <pt x="1051" y="64" on="0"/>
        <pt x="956" y="-24" on="0"/>
        <pt x="877" y="-24" on="1"/>
        <pt x="795" y="-24" on="0"/>
        <pt x="700" y="64" on="0"/>
        <pt x="700" y="146" on="1"/>
        <pt x="700" y="229" on="0"/>
        <pt x="792" y="316" on="0"/>
      </contour>
      <contour>
        <pt x="1460" y="316" on="1"/>
        <pt x="1542" y="316" on="0"/>
        <pt x="1634" y="229" on="0"/>
        <pt x="1634" y="146" on="1"/>
        <pt x="1634" y="64" on="0"/>
        <pt x="1539" y="-24" on="0"/>
        <pt x="1460" y="-24" on="1"/>
        <pt x="1378" y="-24" on="0"/>
        <pt x="1284" y="64" on="0"/>
        <pt x="1284" y="146" on="1"/>
        <pt x="1284" y="229" on="0"/>
        <pt x="1375" y="316" on="0"/>
      </contour>
    </TTGlyph>
    <TTGlyph name="emdash" xMin="82" yMin="454" xMax="1966" yMax="704">
      <contour>
        <pt x="82" y="454" on="1"/>
        <pt x="82" y="704" on="1"/>
        <pt x="1966" y="704" on="1"/>
        <pt x="1966" y="454" on="1"/>
      </contour>
    </TTGlyph>
    <TTGlyph name="endash" xMin="82" yMin="454" xMax="942" yMax="704">
      <contour>
        <pt x="82" y="454" on="1"/>
        <pt x="82" y="704" on="1"/>
        <pt x="942" y="704" on="1"/>
        <pt x="942" y="454" on="1"/>
      </contour>
    </TTGlyph>
    <TTGlyph name="equal" xMin="88" yMin="400" xMax="1081" yMax="1006">
      <contour>
        <pt x="88" y="789" on="1"/>
        <pt x="88" y="1006" on="1"/>
        <pt x="1081" y="1006" on="1"/>
        <pt x="1081" y="789" on="1"/>
      </contour>
      <contour>
        <pt x="88" y="400" on="1"/>
        <pt x="88" y="619" on="1"/>
        <pt x="1081" y="619" on="1"/>
        <pt x="1081" y="400" on="1"/>
      </contour>
    </TTGlyph>
    <TTGlyph name="exclam" xMin="142" yMin="-24" xMax="492" yMax="1414">
      <contour>
        <pt x="441" y="474" on="1"/>
        <pt x="197" y="474" on="1"/>
        <pt x="146" y="1414" on="1"/>
        <pt x="492" y="1414" on="1"/>
      </contour>
      <contour>
        <pt x="318" y="316" on="1"/>
        <pt x="400" y="316" on="0"/>
        <pt x="492" y="229" on="0"/>
        <pt x="492" y="146" on="1"/>
        <pt x="492" y="64" on="0"/>
        <pt x="397" y="-24" on="0"/>
        <pt x="318" y="-24" on="1"/>
        <pt x="236" y="-24" on="0"/>
        <pt x="142" y="64" on="0"/>
        <pt x="142" y="146" on="1"/>
        <pt x="142" y="229" on="0"/>
        <pt x="233" y="316" on="0"/>
      </contour>
    </TTGlyph>
    <TTGlyph name="five" xMin="100" yMin="-24" xMax="1077" yMax="1414">
      <contour>
        <pt x="100" y="55" on="1"/>
        <pt x="100" y="319" on="1"/>
        <pt x="180" y="279" on="0"/>
        <pt x="392" y="227" on="0"/>
        <pt x="483" y="227" on="1"/>
        <pt x="627" y="227" on="0"/>
        <pt x="766" y="335" on="0"/>
        <pt x="766" y="446" on="1"/>
        <pt x="766" y="550" on="0"/>
        <pt x="619" y="655" on="0"/>
        <pt x="473" y="655" on="1"/>
        <pt x="376" y="655" on="0"/>
        <pt x="252" y="622" on="1"/>
        <pt x="129" y="688" on="1"/>
        <pt x="181" y="1414" on="1"/>
        <pt x="977" y="1414" on="1"/>
        <pt x="977" y="1154" on="1"/>
        <pt x="452" y="1154" on="1"/>
        <pt x="428" y="884" on="1"/>
        <pt x="519" y="905" on="0"/>
        <pt x="614" y="905" on="1"/>
        <pt x="825" y="905" on="0"/>
        <pt x="1077" y="675" on="0"/>
        <pt x="1077" y="476" on="1"/>
        <pt x="1077" y="239" on="0"/>
        <pt x="775" y="-24" on="0"/>
        <pt x="494" y="-24" on="1"/>
        <pt x="250" y="-24" on="0"/>
      </contour>
    </TTGlyph>
    <TTGlyph name="four" xMin="35" yMin="0" xMax="1137" yMax="1414">
      <contour>
        <pt x="1137" y="292" on="1"/>
        <pt x="961" y="292" on="1"/>
        <pt x="961" y="0" on="1"/>
        <pt x="659" y="0" on="1"/>
        <pt x="659" y="292" on="1"/>
        <pt x="35" y="292" on="1"/>
        <pt x="35" y="507" on="1"/>
        <pt x="676" y="1414" on="1"/>
        <pt x="961" y="1414" on="1"/>
        <pt x="961" y="532" on="1"/>
        <pt x="1137" y="532" on="1"/>
      </contour>
      <contour>
        <pt x="659" y="532" on="1"/>
        <pt x="659" y="785" on="1"/>
        <pt x="659" y="960" on="0"/>
        <pt x="672" y="1080" on="1"/>
        <pt x="664" y="1080" on="1"/>
        <pt x="622" y="989" on="0"/>
        <pt x="575" y="920" on="1"/>
        <pt x="307" y="532" on="1"/>
      </contour>
    </TTGlyph>
    <TTGlyph name="glyph00094" xMin="55" yMin="0" xMax="1186" yMax="1130">
      <contour>
        <pt x="587" y="873" on="1"/>
        <pt x="489" y="873" on="0"/>
        <pt x="417" y="862" on="0"/>
        <pt x="362" y="821" on="0"/>
        <pt x="362" y="780" on="1"/>
        <pt x="362" y="749" on="0"/>
        <pt x="396" y="707" on="0"/>
        <pt x="465" y="686" on="0"/>
        <pt x="545" y="686" on="1"/>
        <pt x="834" y="686" on="1"/>
        <pt x="834" y="435" on="1"/>
        <pt x="581" y="435" on="1"/>
        <pt x="504" y="435" on="0"/>
        <pt x="425" y="424" on="0"/>
        <pt x="377" y="380" on="0"/>
        <pt x="377" y="348" on="1"/>
        <pt x="377" y="305" on="0"/>
        <pt x="446" y="257" on="0"/>
        <pt x="531" y="257" on="1"/>
        <pt x="562" y="257" on="1"/>
        <pt x="562" y="0" on="1"/>
        <pt x="550" y="0" on="1"/>
        <pt x="363" y="0" on="0"/>
        <pt x="167" y="75" on="0"/>
        <pt x="70" y="215" on="0"/>
        <pt x="70" y="309" on="1"/>
        <pt x="70" y="392" on="0"/>
        <pt x="143" y="509" on="0"/>
        <pt x="217" y="554" on="1"/>
        <pt x="136" y="600" on="0"/>
        <pt x="55" y="739" on="0"/>
        <pt x="55" y="833" on="1"/>
        <pt x="55" y="895" on="0"/>
        <pt x="116" y="1013" on="0"/>
        <pt x="243" y="1097" on="0"/>
        <pt x="425" y="1130" on="0"/>
        <pt x="593" y="1130" on="1"/>
        <pt x="1186" y="1130" on="1"/>
        <pt x="1186" y="873" on="1"/>
      </contour>
    </TTGlyph>
    <TTGlyph name="glyph00095" xMin="50" yMin="-417" xMax="1720" yMax="1154">
      <component glyphName="uni0C9C" x="0" y="0" flags="0x200"/>
      <component glyphName="uni0CBC" x="1405" y="0" flags="0x4"/>
    </TTGlyph>
    <TTGlyph name="glyph00096" xMin="59" yMin="-417" xMax="1693" yMax="1614">
      <contour>
        <pt x="59" y="873" on="1"/>
        <pt x="59" y="1130" on="1"/>
        <pt x="1139" y="1130" on="1"/>
        <pt x="1261" y="1130" on="0"/>
        <pt x="1365" y="1155" on="0"/>
        <pt x="1406" y="1208" on="0"/>
        <pt x="1406" y="1256" on="1"/>
        <pt x="1406" y="1307" on="0"/>
        <pt x="1356" y="1410" on="0"/>
        <pt x="1295" y="1480" on="1"/>
        <pt x="1522" y="1614" on="1"/>
        <pt x="1613" y="1501" on="0"/>
        <pt x="1693" y="1313" on="0"/>
        <pt x="1693" y="1200" on="1"/>
        <pt x="1693" y="1106" on="0"/>
        <pt x="1607" y="956" on="0"/>
        <pt x="1415" y="873" on="0"/>
        <pt x="1206" y="873" on="1"/>
      </contour>
      <contour>
        <pt x="912" y="837" on="1"/>
        <pt x="982" y="837" on="0"/>
        <pt x="1074" y="750" on="0"/>
        <pt x="1074" y="685" on="1"/>
        <pt x="1074" y="620" on="0"/>
        <pt x="984" y="534" on="0"/>
        <pt x="912" y="534" on="1"/>
        <pt x="840" y="534" on="0"/>
        <pt x="753" y="618" on="0"/>
        <pt x="753" y="685" on="1"/>
        <pt x="753" y="751" on="0"/>
        <pt x="843" y="837" on="0"/>
      </contour>
      <contour>
        <pt x="1059" y="450" on="1"/>
        <pt x="1066" y="347" on="0"/>
        <pt x="1164" y="235" on="0"/>
        <pt x="1242" y="235" on="1"/>
        <pt x="1316" y="235" on="0"/>
        <pt x="1394" y="324" on="0"/>
        <pt x="1394" y="401" on="1"/>
        <pt x="1394" y="475" on="0"/>
        <pt x="1338" y="634" on="0"/>
        <pt x="1284" y="708" on="1"/>
        <pt x="1552" y="817" on="1"/>
        <pt x="1693" y="632" on="0"/>
        <pt x="1693" y="380" on="1"/>
        <pt x="1693" y="189" on="0"/>
        <pt x="1476" y="-24" on="0"/>
        <pt x="1299" y="-24" on="1"/>
        <pt x="1175" y="-24" on="0"/>
        <pt x="996" y="52" on="0"/>
        <pt x="924" y="135" on="1"/>
        <pt x="839" y="52" on="0"/>
        <pt x="637" y="-24" on="0"/>
        <pt x="487" y="-24" on="1"/>
        <pt x="291" y="-24" on="0"/>
        <pt x="59" y="185" on="0"/>
        <pt x="59" y="357" on="1"/>
        <pt x="59" y="506" on="0"/>
        <pt x="257" y="690" on="0"/>
        <pt x="418" y="690" on="1"/>
        <pt x="557" y="690" on="0"/>
        <pt x="708" y="575" on="0"/>
        <pt x="708" y="467" on="1"/>
        <pt x="708" y="401" on="0"/>
        <pt x="676" y="341" on="1"/>
        <pt x="471" y="358" on="1"/>
        <pt x="479" y="374" on="0"/>
        <pt x="479" y="403" on="1"/>
        <pt x="479" y="468" on="0"/>
        <pt x="409" y="468" on="1"/>
        <pt x="367" y="468" on="0"/>
        <pt x="314" y="415" on="0"/>
        <pt x="314" y="369" on="1"/>
        <pt x="314" y="235" on="0"/>
        <pt x="539" y="235" on="1"/>
        <pt x="770" y="235" on="0"/>
        <pt x="790" y="450" on="1"/>
      </contour>
      <contour>
        <pt x="768" y="-294" on="1"/>
        <pt x="794" y="16" on="1"/>
        <pt x="1052" y="16" on="1"/>
        <pt x="1078" y="-294" on="1"/>
      </contour>
      <contour>
        <pt x="533" y="-98" on="1"/>
        <pt x="606" y="-98" on="0"/>
        <pt x="703" y="-190" on="0"/>
        <pt x="703" y="-258" on="1"/>
        <pt x="703" y="-326" on="0"/>
        <pt x="609" y="-417" on="0"/>
        <pt x="533" y="-417" on="1"/>
        <pt x="456" y="-417" on="0"/>
        <pt x="366" y="-328" on="0"/>
        <pt x="366" y="-258" on="1"/>
        <pt x="366" y="-190" on="0"/>
        <pt x="459" y="-98" on="0"/>
      </contour>
      <contour>
        <pt x="1312" y="-98" on="1"/>
        <pt x="1385" y="-98" on="0"/>
        <pt x="1482" y="-190" on="0"/>
        <pt x="1482" y="-258" on="1"/>
        <pt x="1482" y="-326" on="0"/>
        <pt x="1388" y="-417" on="0"/>
        <pt x="1312" y="-417" on="1"/>
        <pt x="1235" y="-417" on="0"/>
        <pt x="1145" y="-328" on="0"/>
        <pt x="1145" y="-258" on="1"/>
        <pt x="1145" y="-190" on="0"/>
        <pt x="1238" y="-98" on="0"/>
      </contour>
    </TTGlyph>
    <TTGlyph name="glyph00097" xMin="-316" yMin="-770" xMax="465" yMax="208">
      <contour>
        <pt x="205" y="208" on="1"/>
        <pt x="273" y="84" on="0"/>
        <pt x="273" y="-35" on="1"/>
        <pt x="273" y="-133" on="0"/>
        <pt x="213" y="-216" on="1"/>
        <pt x="465" y="-216" on="1"/>
        <pt x="465" y="-386" on="1"/>
        <pt x="346" y="-384" on="1"/>
        <pt x="421" y="-442" on="0"/>
        <pt x="421" y="-544" on="1"/>
        <pt x="421" y="-650" on="0"/>
        <pt x="240" y="-770" on="0"/>
        <pt x="71" y="-770" on="1"/>
        <pt x="-91" y="-770" on="0"/>
        <pt x="-268" y="-647" on="0"/>
        <pt x="-268" y="-546" on="1"/>
        <pt x="-268" y="-495" on="0"/>
        <pt x="-236" y="-418" on="0"/>
        <pt x="-198" y="-385" on="1"/>
        <pt x="-316" y="-386" on="1"/>
        <pt x="-316" y="-216" on="1"/>
        <pt x="5" y="-216" on="1"/>
        <pt x="67" y="-143" on="0"/>
        <pt x="67" y="-51" on="1"/>
        <pt x="67" y="7" on="0"/>
        <pt x="36" y="102" on="0"/>
        <pt x="9" y="152" on="1"/>
      </contour>
      <contour>
        <pt x="76" y="-366" on="1"/>
        <pt x="5" y="-366" on="0"/>
        <pt x="-72" y="-426" on="0"/>
        <pt x="-72" y="-479" on="1"/>
        <pt x="-72" y="-533" on="0"/>
        <pt x="4" y="-591" on="0"/>
        <pt x="76" y="-591" on="1"/>
        <pt x="148" y="-591" on="0"/>
        <pt x="225" y="-532" on="0"/>
        <pt x="225" y="-479" on="1"/>
        <pt x="225" y="-426" on="0"/>
        <pt x="148" y="-366" on="0"/>
      </contour>
    </TTGlyph>
    <TTGlyph name="glyph00098" xMin="-806" yMin="-770" xMax="365" yMax="161">
      <contour>
        <pt x="-160" y="-561" on="1"/>
        <pt x="-132" y="-574" on="0"/>
        <pt x="-70" y="-589" on="0"/>
        <pt x="-17" y="-589" on="1"/>
        <pt x="76" y="-589" on="0"/>
        <pt x="159" y="-478" on="0"/>
        <pt x="159" y="-362" on="1"/>
        <pt x="159" y="-256" on="0"/>
        <pt x="82" y="-27" on="0"/>
        <pt x="13" y="76" on="1"/>
        <pt x="194" y="161" on="1"/>
        <pt x="275" y="41" on="0"/>
        <pt x="365" y="-231" on="0"/>
        <pt x="365" y="-358" on="1"/>
        <pt x="365" y="-560" on="0"/>
        <pt x="177" y="-770" on="0"/>
        <pt x="-7" y="-770" on="1"/>
        <pt x="-137" y="-770" on="0"/>
        <pt x="-266" y="-690" on="1"/>
        <pt x="-316" y="-730" on="0"/>
        <pt x="-456" y="-770" on="0"/>
        <pt x="-546" y="-770" on="1"/>
        <pt x="-672" y="-770" on="0"/>
        <pt x="-806" y="-671" on="0"/>
        <pt x="-806" y="-576" on="1"/>
        <pt x="-806" y="-495" on="0"/>
        <pt x="-687" y="-399" on="0"/>
        <pt x="-581" y="-399" on="1"/>
        <pt x="-516" y="-399" on="0"/>
        <pt x="-401" y="-434" on="0"/>
        <pt x="-327" y="-479" on="1"/>
        <pt x="-321" y="-450" on="0"/>
        <pt x="-321" y="-419" on="1"/>
        <pt x="-321" y="-342" on="0"/>
        <pt x="-393" y="-251" on="0"/>
        <pt x="-456" y="-251" on="1"/>
        <pt x="-527" y="-251" on="0"/>
        <pt x="-527" y="-304" on="1"/>
        <pt x="-527" y="-322" on="0"/>
        <pt x="-521" y="-341" on="1"/>
        <pt x="-702" y="-381" on="1"/>
        <pt x="-727" y="-326" on="0"/>
        <pt x="-727" y="-266" on="1"/>
        <pt x="-727" y="-184" on="0"/>
        <pt x="-590" y="-91" on="0"/>
        <pt x="-459" y="-91" on="1"/>
        <pt x="-302" y="-91" on="0"/>
        <pt x="-125" y="-265" on="0"/>
        <pt x="-125" y="-407" on="1"/>
        <pt x="-125" y="-449" on="0"/>
        <pt x="-142" y="-526" on="0"/>
      </contour>
      <contour>
        <pt x="-406" y="-595" on="1"/>
        <pt x="-493" y="-542" on="0"/>
        <pt x="-557" y="-542" on="1"/>
        <pt x="-620" y="-542" on="0"/>
        <pt x="-620" y="-583" on="1"/>
        <pt x="-620" y="-603" on="0"/>
        <pt x="-579" y="-627" on="0"/>
        <pt x="-538" y="-627" on="1"/>
        <pt x="-498" y="-627" on="0"/>
        <pt x="-432" y="-611" on="0"/>
      </contour>
    </TTGlyph>
    <TTGlyph name="glyph00099" xMin="-662" yMin="-756" xMax="150" yMax="-91">
      <contour>
        <pt x="150" y="-756" on="1"/>
        <pt x="-63" y="-756" on="1"/>
        <pt x="-63" y="-695" on="1"/>
        <pt x="-63" y="-603" on="0"/>
        <pt x="-82" y="-440" on="0"/>
        <pt x="-120" y="-347" on="0"/>
        <pt x="-166" y="-294" on="0"/>
        <pt x="-220" y="-270" on="0"/>
        <pt x="-255" y="-270" on="1"/>
        <pt x="-327" y="-270" on="0"/>
        <pt x="-415" y="-373" on="0"/>
        <pt x="-449" y="-552" on="0"/>
        <pt x="-449" y="-706" on="1"/>
        <pt x="-449" y="-756" on="1"/>
        <pt x="-662" y="-756" on="1"/>
        <pt x="-662" y="-640" on="1"/>
        <pt x="-662" y="-502" on="0"/>
        <pt x="-605" y="-300" on="0"/>
        <pt x="-496" y="-163" on="0"/>
        <pt x="-356" y="-91" on="0"/>
        <pt x="-254" y="-91" on="1"/>
        <pt x="-128" y="-91" on="0"/>
        <pt x="47" y="-218" on="0"/>
        <pt x="150" y="-448" on="0"/>
        <pt x="150" y="-642" on="1"/>
      </contour>
    </TTGlyph>
    <TTGlyph name="glyph00100" xMin="-858" yMin="-867" xMax="576" yMax="268">
      <contour>
        <pt x="114" y="36" on="1"/>
        <pt x="161" y="-41" on="0"/>
        <pt x="177" y="-70" on="1"/>
        <pt x="221" y="-123" on="0"/>
        <pt x="291" y="-123" on="1"/>
        <pt x="327" y="-123" on="0"/>
        <pt x="370" y="-78" on="0"/>
        <pt x="370" y="-39" on="1"/>
        <pt x="370" y="7" on="0"/>
        <pt x="327" y="85" on="0"/>
        <pt x="273" y="131" on="1"/>
        <pt x="410" y="268" on="1"/>
        <pt x="491" y="200" on="0"/>
        <pt x="576" y="38" on="0"/>
        <pt x="576" y="-49" on="1"/>
        <pt x="576" y="-166" on="0"/>
        <pt x="451" y="-290" on="0"/>
        <pt x="343" y="-290" on="1"/>
        <pt x="289" y="-290" on="0"/>
        <pt x="248" y="-273" on="1"/>
        <pt x="262" y="-327" on="0"/>
        <pt x="262" y="-389" on="1"/>
        <pt x="262" y="-530" on="0"/>
        <pt x="100" y="-690" on="0"/>
        <pt x="-45" y="-690" on="1"/>
        <pt x="-118" y="-690" on="0"/>
        <pt x="-226" y="-645" on="0"/>
        <pt x="-285" y="-586" on="1"/>
        <pt x="-349" y="-646" on="0"/>
        <pt x="-471" y="-690" on="0"/>
        <pt x="-561" y="-690" on="1"/>
        <pt x="-701" y="-690" on="0"/>
        <pt x="-858" y="-546" on="0"/>
        <pt x="-858" y="-418" on="1"/>
        <pt x="-858" y="-308" on="0"/>
        <pt x="-725" y="-179" on="0"/>
        <pt x="-617" y="-179" on="1"/>
        <pt x="-524" y="-179" on="0"/>
        <pt x="-425" y="-268" on="0"/>
        <pt x="-425" y="-351" on="1"/>
        <pt x="-425" y="-395" on="0"/>
        <pt x="-447" y="-430" on="1"/>
        <pt x="-590" y="-420" on="1"/>
        <pt x="-584" y="-408" on="0"/>
        <pt x="-584" y="-388" on="1"/>
        <pt x="-584" y="-342" on="0"/>
        <pt x="-624" y="-342" on="1"/>
        <pt x="-648" y="-342" on="0"/>
        <pt x="-678" y="-380" on="0"/>
        <pt x="-678" y="-415" on="1"/>
        <pt x="-678" y="-511" on="0"/>
        <pt x="-540" y="-511" on="1"/>
        <pt x="-392" y="-511" on="0"/>
        <pt x="-379" y="-390" on="1"/>
        <pt x="-192" y="-390" on="1"/>
        <pt x="-181" y="-454" on="0"/>
        <pt x="-122" y="-511" on="0"/>
        <pt x="-59" y="-511" on="1"/>
        <pt x="56" y="-511" on="0"/>
        <pt x="56" y="-375" on="1"/>
        <pt x="56" y="-213" on="0"/>
        <pt x="-69" y="-49" on="1"/>
      </contour>
      <contour>
        <pt x="-400" y="-867" on="1"/>
        <pt x="-383" y="-667" on="1"/>
        <pt x="-189" y="-667" on="1"/>
        <pt x="-173" y="-867" on="1"/>
      </contour>
    </TTGlyph>
    <TTGlyph name="glyph00101" xMin="-774" yMin="-770" xMax="302" yMax="-91">
      <contour>
        <pt x="-225" y="-666" on="1"/>
        <pt x="-275" y="-716" on="0"/>
        <pt x="-396" y="-770" on="0"/>
        <pt x="-492" y="-770" on="1"/>
        <pt x="-603" y="-770" on="0"/>
        <pt x="-729" y="-670" on="0"/>
        <pt x="-729" y="-592" on="1"/>
        <pt x="-729" y="-504" on="0"/>
        <pt x="-639" y="-406" on="0"/>
        <pt x="-532" y="-352" on="1"/>
        <pt x="-467" y="-319" on="0"/>
        <pt x="-443" y="-295" on="0"/>
        <pt x="-443" y="-279" on="1"/>
        <pt x="-443" y="-247" on="0"/>
        <pt x="-510" y="-247" on="1"/>
        <pt x="-587" y="-247" on="0"/>
        <pt x="-587" y="-292" on="1"/>
        <pt x="-587" y="-312" on="0"/>
        <pt x="-576" y="-334" on="1"/>
        <pt x="-742" y="-387" on="1"/>
        <pt x="-774" y="-326" on="0"/>
        <pt x="-774" y="-259" on="1"/>
        <pt x="-774" y="-181" on="0"/>
        <pt x="-633" y="-91" on="0"/>
        <pt x="-503" y="-91" on="1"/>
        <pt x="-426" y="-91" on="0"/>
        <pt x="-318" y="-127" on="0"/>
        <pt x="-287" y="-163" on="1"/>
        <pt x="-172" y="-91" on="0"/>
        <pt x="-26" y="-91" on="1"/>
        <pt x="102" y="-91" on="0"/>
        <pt x="245" y="-193" on="0"/>
        <pt x="245" y="-283" on="1"/>
        <pt x="245" y="-331" on="0"/>
        <pt x="236" y="-366" on="1"/>
        <pt x="50" y="-348" on="1"/>
        <pt x="53" y="-334" on="0"/>
        <pt x="53" y="-317" on="1"/>
        <pt x="53" y="-244" on="0"/>
        <pt x="-50" y="-244" on="1"/>
        <pt x="-160" y="-244" on="0"/>
        <pt x="-257" y="-308" on="1"/>
        <pt x="-266" y="-359" on="0"/>
        <pt x="-349" y="-435" on="0"/>
        <pt x="-437" y="-478" on="1"/>
        <pt x="-499" y="-508" on="0"/>
        <pt x="-531" y="-537" on="0"/>
        <pt x="-531" y="-554" on="1"/>
        <pt x="-531" y="-591" on="0"/>
        <pt x="-469" y="-591" on="1"/>
        <pt x="-354" y="-591" on="0"/>
        <pt x="-319" y="-493" on="1"/>
        <pt x="-132" y="-493" on="1"/>
        <pt x="-113" y="-549" on="0"/>
        <pt x="-51" y="-591" on="0"/>
        <pt x="3" y="-591" on="1"/>
        <pt x="51" y="-591" on="0"/>
        <pt x="103" y="-552" on="0"/>
        <pt x="103" y="-517" on="1"/>
        <pt x="103" y="-483" on="0"/>
        <pt x="88" y="-455" on="1"/>
        <pt x="259" y="-394" on="1"/>
        <pt x="302" y="-460" on="0"/>
        <pt x="302" y="-550" on="1"/>
        <pt x="302" y="-655" on="0"/>
        <pt x="157" y="-770" on="0"/>
        <pt x="23" y="-770" on="1"/>
        <pt x="-56" y="-770" on="0"/>
        <pt x="-170" y="-724" on="0"/>
      </contour>
      <contour>
        <pt x="-127" y="-290" on="1"/>
        <pt x="-87" y="-290" on="0"/>
        <pt x="-35" y="-341" on="0"/>
        <pt x="-35" y="-378" on="1"/>
        <pt x="-35" y="-416" on="0"/>
        <pt x="-86" y="-465" on="0"/>
        <pt x="-127" y="-465" on="1"/>
        <pt x="-168" y="-465" on="0"/>
        <pt x="-218" y="-417" on="0"/>
        <pt x="-218" y="-378" on="1"/>
        <pt x="-218" y="-340" on="0"/>
        <pt x="-167" y="-290" on="0"/>
      </contour>
    </TTGlyph>
    <TTGlyph name="glyph00102" xMin="-785" yMin="-770" xMax="365" yMax="208">
      <contour>
        <pt x="-236" y="-666" on="1"/>
        <pt x="-286" y="-716" on="0"/>
        <pt x="-407" y="-770" on="0"/>
        <pt x="-503" y="-770" on="1"/>
        <pt x="-614" y="-770" on="0"/>
        <pt x="-740" y="-670" on="0"/>
        <pt x="-740" y="-592" on="1"/>
        <pt x="-740" y="-504" on="0"/>
        <pt x="-650" y="-406" on="0"/>
        <pt x="-543" y="-352" on="1"/>
        <pt x="-478" y="-319" on="0"/>
        <pt x="-454" y="-295" on="0"/>
        <pt x="-454" y="-279" on="1"/>
        <pt x="-454" y="-247" on="0"/>
        <pt x="-521" y="-247" on="1"/>
        <pt x="-598" y="-247" on="0"/>
        <pt x="-598" y="-292" on="1"/>
        <pt x="-598" y="-312" on="0"/>
        <pt x="-587" y="-334" on="1"/>
        <pt x="-753" y="-387" on="1"/>
        <pt x="-785" y="-326" on="0"/>
        <pt x="-785" y="-259" on="1"/>
        <pt x="-785" y="-181" on="0"/>
        <pt x="-644" y="-91" on="0"/>
        <pt x="-514" y="-91" on="1"/>
        <pt x="-392" y="-91" on="0"/>
        <pt x="-264" y="-181" on="0"/>
        <pt x="-264" y="-258" on="1"/>
        <pt x="-264" y="-310" on="0"/>
        <pt x="-294" y="-377" on="0"/>
        <pt x="-373" y="-441" on="0"/>
        <pt x="-448" y="-478" on="1"/>
        <pt x="-510" y="-508" on="0"/>
        <pt x="-542" y="-537" on="0"/>
        <pt x="-542" y="-554" on="1"/>
        <pt x="-542" y="-591" on="0"/>
        <pt x="-480" y="-591" on="1"/>
        <pt x="-417" y="-591" on="0"/>
        <pt x="-337" y="-525" on="0"/>
        <pt x="-330" y="-470" on="1"/>
        <pt x="-143" y="-470" on="1"/>
        <pt x="-116" y="-591" on="0"/>
        <pt x="-3" y="-591" on="1"/>
        <pt x="113" y="-591" on="0"/>
        <pt x="113" y="-495" on="1"/>
        <pt x="113" y="-458" on="0"/>
        <pt x="62" y="-401" on="0"/>
        <pt x="16" y="-386" on="1"/>
        <pt x="-146" y="-386" on="1"/>
        <pt x="-146" y="-216" on="1"/>
        <pt x="5" y="-216" on="1"/>
        <pt x="67" y="-143" on="0"/>
        <pt x="67" y="-51" on="1"/>
        <pt x="67" y="7" on="0"/>
        <pt x="36" y="102" on="0"/>
        <pt x="9" y="152" on="1"/>
        <pt x="205" y="208" on="1"/>
        <pt x="273" y="84" on="0"/>
        <pt x="273" y="-35" on="1"/>
        <pt x="273" y="-133" on="0"/>
        <pt x="213" y="-216" on="1"/>
        <pt x="365" y="-216" on="1"/>
        <pt x="365" y="-386" on="1"/>
        <pt x="274" y="-385" on="1"/>
        <pt x="311" y="-440" on="0"/>
        <pt x="311" y="-516" on="1"/>
        <pt x="311" y="-640" on="0"/>
        <pt x="157" y="-770" on="0"/>
        <pt x="14" y="-770" on="1"/>
        <pt x="-67" y="-770" on="0"/>
        <pt x="-183" y="-724" on="0"/>
      </contour>
    </TTGlyph>
    <TTGlyph name="glyph00103" xMin="-788" yMin="-947" xMax="365" yMax="161">
      <contour>
        <pt x="-205" y="-666" on="1"/>
        <pt x="-255" y="-716" on="0"/>
        <pt x="-388" y="-770" on="0"/>
        <pt x="-480" y="-770" on="1"/>
        <pt x="-623" y="-770" on="0"/>
        <pt x="-788" y="-591" on="0"/>
        <pt x="-788" y="-441" on="1"/>
        <pt x="-788" y="-278" on="0"/>
        <pt x="-612" y="-91" on="0"/>
        <pt x="-462" y="-91" on="1"/>
        <pt x="-358" y="-91" on="0"/>
        <pt x="-238" y="-202" on="0"/>
        <pt x="-238" y="-293" on="1"/>
        <pt x="-238" y="-377" on="0"/>
        <pt x="-369" y="-483" on="0"/>
        <pt x="-481" y="-483" on="1"/>
        <pt x="-544" y="-483" on="0"/>
        <pt x="-601" y="-465" on="1"/>
        <pt x="-592" y="-591" on="0"/>
        <pt x="-456" y="-591" on="1"/>
        <pt x="-390" y="-591" on="0"/>
        <pt x="-307" y="-526" on="0"/>
        <pt x="-299" y="-470" on="1"/>
        <pt x="-112" y="-470" on="1"/>
        <pt x="-101" y="-534" on="0"/>
        <pt x="-42" y="-591" on="0"/>
        <pt x="21" y="-591" on="1"/>
        <pt x="85" y="-591" on="0"/>
        <pt x="159" y="-474" on="0"/>
        <pt x="159" y="-362" on="1"/>
        <pt x="159" y="-256" on="0"/>
        <pt x="82" y="-27" on="0"/>
        <pt x="13" y="76" on="1"/>
        <pt x="194" y="161" on="1"/>
        <pt x="275" y="42" on="0"/>
        <pt x="365" y="-233" on="0"/>
        <pt x="365" y="-360" on="1"/>
        <pt x="365" y="-557" on="0"/>
        <pt x="190" y="-770" on="0"/>
        <pt x="35" y="-770" on="1"/>
        <pt x="-42" y="-770" on="0"/>
        <pt x="-150" y="-725" on="0"/>
      </contour>
      <contour>
        <pt x="-586" y="-331" on="1"/>
        <pt x="-548" y="-348" on="0"/>
        <pt x="-505" y="-348" on="1"/>
        <pt x="-410" y="-348" on="0"/>
        <pt x="-410" y="-289" on="1"/>
        <pt x="-410" y="-268" on="0"/>
        <pt x="-440" y="-244" on="0"/>
        <pt x="-467" y="-244" on="1"/>
        <pt x="-510" y="-244" on="0"/>
        <pt x="-570" y="-287" on="0"/>
      </contour>
      <contour>
        <pt x="-320" y="-947" on="1"/>
        <pt x="-303" y="-747" on="1"/>
        <pt x="-109" y="-747" on="1"/>
        <pt x="-93" y="-947" on="1"/>
      </contour>
    </TTGlyph>
    <TTGlyph name="glyph00104" xMin="-774" yMin="-770" xMax="302" yMax="-91">
      <contour>
        <pt x="-225" y="-666" on="1"/>
        <pt x="-275" y="-716" on="0"/>
        <pt x="-396" y="-770" on="0"/>
        <pt x="-492" y="-770" on="1"/>
        <pt x="-603" y="-770" on="0"/>
        <pt x="-729" y="-670" on="0"/>
        <pt x="-729" y="-592" on="1"/>
        <pt x="-729" y="-504" on="0"/>
        <pt x="-639" y="-406" on="0"/>
        <pt x="-532" y="-352" on="1"/>
        <pt x="-467" y="-319" on="0"/>
        <pt x="-443" y="-295" on="0"/>
        <pt x="-443" y="-279" on="1"/>
        <pt x="-443" y="-247" on="0"/>
        <pt x="-510" y="-247" on="1"/>
        <pt x="-587" y="-247" on="0"/>
        <pt x="-587" y="-292" on="1"/>
        <pt x="-587" y="-312" on="0"/>
        <pt x="-576" y="-334" on="1"/>
        <pt x="-742" y="-387" on="1"/>
        <pt x="-774" y="-326" on="0"/>
        <pt x="-774" y="-259" on="1"/>
        <pt x="-774" y="-181" on="0"/>
        <pt x="-633" y="-91" on="0"/>
        <pt x="-503" y="-91" on="1"/>
        <pt x="-418" y="-91" on="0"/>
        <pt x="-305" y="-134" on="0"/>
        <pt x="-276" y="-177" on="1"/>
        <pt x="-188" y="-265" on="0"/>
        <pt x="-80" y="-265" on="1"/>
        <pt x="-31" y="-265" on="0"/>
        <pt x="26" y="-225" on="0"/>
        <pt x="26" y="-189" on="1"/>
        <pt x="26" y="-162" on="0"/>
        <pt x="13" y="-131" on="1"/>
        <pt x="188" y="-91" on="1"/>
        <pt x="218" y="-141" on="0"/>
        <pt x="218" y="-221" on="1"/>
        <pt x="218" y="-314" on="0"/>
        <pt x="81" y="-418" on="0"/>
        <pt x="-41" y="-418" on="1"/>
        <pt x="-185" y="-418" on="0"/>
        <pt x="-276" y="-359" on="1"/>
        <pt x="-308" y="-414" on="0"/>
        <pt x="-437" y="-478" on="1"/>
        <pt x="-499" y="-508" on="0"/>
        <pt x="-531" y="-537" on="0"/>
        <pt x="-531" y="-554" on="1"/>
        <pt x="-531" y="-591" on="0"/>
        <pt x="-469" y="-591" on="1"/>
        <pt x="-352" y="-591" on="0"/>
        <pt x="-319" y="-485" on="1"/>
        <pt x="-132" y="-485" on="1"/>
        <pt x="-118" y="-541" on="0"/>
        <pt x="-55" y="-591" on="0"/>
        <pt x="3" y="-591" on="1"/>
        <pt x="51" y="-591" on="0"/>
        <pt x="103" y="-552" on="0"/>
        <pt x="103" y="-517" on="1"/>
        <pt x="103" y="-474" on="0"/>
        <pt x="80" y="-442" on="1"/>
        <pt x="248" y="-378" on="1"/>
        <pt x="302" y="-446" on="0"/>
        <pt x="302" y="-550" on="1"/>
        <pt x="302" y="-655" on="0"/>
        <pt x="157" y="-770" on="0"/>
        <pt x="23" y="-770" on="1"/>
        <pt x="-56" y="-770" on="0"/>
        <pt x="-170" y="-724" on="0"/>
      </contour>
    </TTGlyph>
    <TTGlyph name="glyph00105" xMin="-961" yMin="-947" xMax="663" yMax="-90">
      <contour>
        <pt x="143" y="-696" on="1"/>
        <pt x="67" y="-770" on="0"/>
        <pt x="-68" y="-770" on="1"/>
        <pt x="-209" y="-770" on="0"/>
        <pt x="-323" y="-673" on="1"/>
        <pt x="-375" y="-721" on="0"/>
        <pt x="-508" y="-770" on="0"/>
        <pt x="-590" y="-770" on="1"/>
        <pt x="-768" y="-770" on="0"/>
        <pt x="-961" y="-574" on="0"/>
        <pt x="-961" y="-420" on="1"/>
        <pt x="-961" y="-277" on="0"/>
        <pt x="-759" y="-91" on="0"/>
        <pt x="-595" y="-91" on="1"/>
        <pt x="-423" y="-91" on="0"/>
        <pt x="-228" y="-289" on="0"/>
        <pt x="-228" y="-439" on="1"/>
        <pt x="-228" y="-489" on="0"/>
        <pt x="-240" y="-533" on="1"/>
        <pt x="-181" y="-595" on="0"/>
        <pt x="-107" y="-595" on="1"/>
        <pt x="-42" y="-595" on="0"/>
        <pt x="28" y="-530" on="0"/>
        <pt x="28" y="-470" on="1"/>
        <pt x="28" y="-400" on="0"/>
        <pt x="-67" y="-292" on="0"/>
        <pt x="-168" y="-250" on="1"/>
        <pt x="-62" y="-90" on="1"/>
        <pt x="82" y="-154" on="0"/>
        <pt x="226" y="-348" on="0"/>
        <pt x="226" y="-468" on="1"/>
        <pt x="226" y="-514" on="0"/>
        <pt x="218" y="-553" on="1"/>
        <pt x="267" y="-595" on="0"/>
        <pt x="330" y="-595" on="1"/>
        <pt x="395" y="-595" on="0"/>
        <pt x="465" y="-530" on="0"/>
        <pt x="465" y="-470" on="1"/>
        <pt x="465" y="-400" on="0"/>
        <pt x="370" y="-292" on="0"/>
        <pt x="269" y="-250" on="1"/>
        <pt x="375" y="-90" on="1"/>
        <pt x="519" y="-154" on="0"/>
        <pt x="663" y="-348" on="0"/>
        <pt x="663" y="-468" on="1"/>
        <pt x="663" y="-612" on="0"/>
        <pt x="509" y="-770" on="0"/>
        <pt x="369" y="-770" on="1"/>
        <pt x="247" y="-770" on="0"/>
      </contour>
      <contour>
        <pt x="-596" y="-270" on="1"/>
        <pt x="-673" y="-270" on="0"/>
        <pt x="-763" y="-351" on="0"/>
        <pt x="-763" y="-426" on="1"/>
        <pt x="-763" y="-499" on="0"/>
        <pt x="-671" y="-591" on="0"/>
        <pt x="-594" y="-591" on="1"/>
        <pt x="-517" y="-591" on="0"/>
        <pt x="-426" y="-511" on="0"/>
        <pt x="-426" y="-441" on="1"/>
        <pt x="-426" y="-365" on="0"/>
        <pt x="-518" y="-270" on="0"/>
      </contour>
      <contour>
        <pt x="40" y="-947" on="1"/>
        <pt x="57" y="-753" on="1"/>
        <pt x="251" y="-753" on="1"/>
        <pt x="267" y="-947" on="1"/>
      </contour>
    </TTGlyph>
    <TTGlyph name="glyph00106" xMin="-906" yMin="-862" xMax="478" yMax="-91">
      <contour>
        <pt x="-876" y="-459" on="1"/>
        <pt x="-906" y="-395" on="0"/>
        <pt x="-906" y="-321" on="1"/>
        <pt x="-906" y="-220" on="0"/>
        <pt x="-767" y="-91" on="0"/>
        <pt x="-655" y="-91" on="1"/>
        <pt x="-520" y="-91" on="0"/>
        <pt x="-422" y="-186" on="1"/>
        <pt x="-374" y="-136" on="0"/>
        <pt x="-268" y="-91" on="0"/>
        <pt x="-196" y="-91" on="1"/>
        <pt x="-128" y="-91" on="0"/>
        <pt x="-27" y="-131" on="0"/>
        <pt x="7" y="-171" on="1"/>
        <pt x="65" y="-126" on="0"/>
        <pt x="167" y="-91" on="0"/>
        <pt x="229" y="-91" on="1"/>
        <pt x="340" y="-91" on="0"/>
        <pt x="478" y="-211" on="0"/>
        <pt x="478" y="-309" on="1"/>
        <pt x="478" y="-388" on="0"/>
        <pt x="448" y="-459" on="1"/>
        <pt x="266" y="-409" on="1"/>
        <pt x="280" y="-381" on="0"/>
        <pt x="280" y="-339" on="1"/>
        <pt x="280" y="-304" on="0"/>
        <pt x="239" y="-262" on="0"/>
        <pt x="204" y="-262" on="1"/>
        <pt x="160" y="-262" on="0"/>
        <pt x="98" y="-312" on="0"/>
        <pt x="90" y="-351" on="1"/>
        <pt x="93" y="-379" on="0"/>
        <pt x="93" y="-410" on="1"/>
        <pt x="93" y="-484" on="0"/>
        <pt x="39" y="-615" on="0"/>
        <pt x="-12" y="-662" on="1"/>
        <pt x="32" y="-737" on="0"/>
        <pt x="52" y="-832" on="1"/>
        <pt x="-147" y="-862" on="1"/>
        <pt x="-160" y="-795" on="0"/>
        <pt x="-176" y="-758" on="1"/>
        <pt x="-235" y="-784" on="0"/>
        <pt x="-368" y="-810" on="0"/>
        <pt x="-442" y="-810" on="1"/>
        <pt x="-585" y="-810" on="0"/>
        <pt x="-735" y="-702" on="0"/>
        <pt x="-735" y="-603" on="1"/>
        <pt x="-735" y="-511" on="0"/>
        <pt x="-588" y="-406" on="0"/>
        <pt x="-452" y="-406" on="1"/>
        <pt x="-354" y="-406" on="0"/>
        <pt x="-204" y="-459" on="0"/>
        <pt x="-132" y="-521" on="1"/>
        <pt x="-118" y="-498" on="0"/>
        <pt x="-105" y="-444" on="0"/>
        <pt x="-105" y="-414" on="1"/>
        <pt x="-105" y="-343" on="0"/>
        <pt x="-164" y="-270" on="0"/>
        <pt x="-220" y="-270" on="1"/>
        <pt x="-265" y="-270" on="0"/>
        <pt x="-322" y="-318" on="0"/>
        <pt x="-329" y="-365" on="1"/>
        <pt x="-516" y="-365" on="1"/>
        <pt x="-535" y="-262" on="0"/>
        <pt x="-632" y="-262" on="1"/>
        <pt x="-667" y="-262" on="0"/>
        <pt x="-708" y="-304" on="0"/>
        <pt x="-708" y="-339" on="1"/>
        <pt x="-708" y="-381" on="0"/>
        <pt x="-694" y="-409" on="1"/>
      </contour>
      <contour>
        <pt x="-267" y="-625" on="1"/>
        <pt x="-345" y="-560" on="0"/>
        <pt x="-464" y="-560" on="1"/>
        <pt x="-546" y="-560" on="0"/>
        <pt x="-546" y="-602" on="1"/>
        <pt x="-546" y="-628" on="0"/>
        <pt x="-489" y="-649" on="0"/>
        <pt x="-430" y="-649" on="1"/>
        <pt x="-383" y="-649" on="0"/>
        <pt x="-301" y="-637" on="0"/>
      </contour>
    </TTGlyph>
    <TTGlyph name="glyph00107" xMin="-809" yMin="-770" xMax="321" yMax="208">
      <contour>
        <pt x="-137" y="-361" on="1"/>
        <pt x="-137" y="-182" on="1"/>
        <pt x="-58" y="-182" on="1"/>
        <pt x="-4" y="-182" on="0"/>
        <pt x="52" y="-166" on="0"/>
        <pt x="80" y="-118" on="0"/>
        <pt x="80" y="-76" on="1"/>
        <pt x="80" y="18" on="0"/>
        <pt x="9" y="152" on="1"/>
        <pt x="205" y="208" on="1"/>
        <pt x="286" y="60" on="0"/>
        <pt x="286" y="-91" on="1"/>
        <pt x="286" y="-213" on="0"/>
        <pt x="222" y="-283" on="1"/>
        <pt x="321" y="-365" on="0"/>
        <pt x="321" y="-496" on="1"/>
        <pt x="321" y="-629" on="0"/>
        <pt x="168" y="-770" on="0"/>
        <pt x="24" y="-770" on="1"/>
        <pt x="-57" y="-770" on="0"/>
        <pt x="-173" y="-724" on="0"/>
        <pt x="-226" y="-666" on="1"/>
        <pt x="-276" y="-716" on="0"/>
        <pt x="-409" y="-770" on="0"/>
        <pt x="-501" y="-770" on="1"/>
        <pt x="-644" y="-770" on="0"/>
        <pt x="-809" y="-591" on="0"/>
        <pt x="-809" y="-441" on="1"/>
        <pt x="-809" y="-278" on="0"/>
        <pt x="-633" y="-91" on="0"/>
        <pt x="-483" y="-91" on="1"/>
        <pt x="-379" y="-91" on="0"/>
        <pt x="-259" y="-202" on="0"/>
        <pt x="-259" y="-293" on="1"/>
        <pt x="-259" y="-377" on="0"/>
        <pt x="-390" y="-483" on="0"/>
        <pt x="-502" y="-483" on="1"/>
        <pt x="-565" y="-483" on="0"/>
        <pt x="-622" y="-465" on="1"/>
        <pt x="-617" y="-528" on="0"/>
        <pt x="-545" y="-591" on="0"/>
        <pt x="-477" y="-591" on="1"/>
        <pt x="-411" y="-591" on="0"/>
        <pt x="-328" y="-526" on="0"/>
        <pt x="-320" y="-470" on="1"/>
        <pt x="-133" y="-470" on="1"/>
        <pt x="-106" y="-591" on="0"/>
        <pt x="7" y="-591" on="1"/>
        <pt x="61" y="-591" on="0"/>
        <pt x="123" y="-536" on="0"/>
        <pt x="123" y="-481" on="1"/>
        <pt x="123" y="-441" on="0"/>
        <pt x="78" y="-378" on="0"/>
        <pt x="37" y="-360" on="1"/>
        <pt x="26" y="-361" on="1"/>
      </contour>
      <contour>
        <pt x="-607" y="-331" on="1"/>
        <pt x="-569" y="-348" on="0"/>
        <pt x="-526" y="-348" on="1"/>
        <pt x="-431" y="-348" on="0"/>
        <pt x="-431" y="-289" on="1"/>
        <pt x="-431" y="-268" on="0"/>
        <pt x="-461" y="-244" on="0"/>
        <pt x="-488" y="-244" on="1"/>
        <pt x="-531" y="-244" on="0"/>
        <pt x="-591" y="-287" on="0"/>
      </contour>
    </TTGlyph>
    <TTGlyph name="glyph00108" xMin="-636" yMin="-770" xMax="173" yMax="-91">
      <contour>
        <pt x="-231" y="-770" on="1"/>
        <pt x="-423" y="-770" on="0"/>
        <pt x="-636" y="-590" on="0"/>
        <pt x="-636" y="-432" on="1"/>
        <pt x="-636" y="-281" on="0"/>
        <pt x="-421" y="-91" on="0"/>
        <pt x="-233" y="-91" on="1"/>
        <pt x="-49" y="-91" on="0"/>
        <pt x="173" y="-272" on="0"/>
        <pt x="173" y="-435" on="1"/>
        <pt x="173" y="-591" on="0"/>
        <pt x="-45" y="-770" on="0"/>
      </contour>
      <contour>
        <pt x="-232" y="-595" on="1"/>
        <pt x="-133" y="-595" on="0"/>
        <pt x="-25" y="-509" on="0"/>
        <pt x="-25" y="-431" on="1"/>
        <pt x="-25" y="-355" on="0"/>
        <pt x="-132" y="-266" on="0"/>
        <pt x="-232" y="-266" on="1"/>
        <pt x="-331" y="-266" on="0"/>
        <pt x="-438" y="-355" on="0"/>
        <pt x="-438" y="-431" on="1"/>
        <pt x="-438" y="-507" on="0"/>
        <pt x="-332" y="-595" on="0"/>
      </contour>
      <contour>
        <pt x="-232" y="-336" on="1"/>
        <pt x="-190" y="-336" on="0"/>
        <pt x="-136" y="-388" on="0"/>
        <pt x="-136" y="-426" on="1"/>
        <pt x="-136" y="-465" on="0"/>
        <pt x="-190" y="-516" on="0"/>
        <pt x="-232" y="-516" on="1"/>
        <pt x="-275" y="-516" on="0"/>
        <pt x="-327" y="-466" on="0"/>
        <pt x="-327" y="-426" on="1"/>
        <pt x="-327" y="-388" on="0"/>
        <pt x="-275" y="-336" on="0"/>
      </contour>
    </TTGlyph>
    <TTGlyph name="glyph00109" xMin="-733" yMin="-770" xMax="272" yMax="-91">
      <contour>
        <pt x="225" y="-369" on="1"/>
        <pt x="272" y="-431" on="0"/>
        <pt x="272" y="-522" on="1"/>
        <pt x="272" y="-639" on="0"/>
        <pt x="117" y="-770" on="0"/>
        <pt x="-2" y="-770" on="1"/>
        <pt x="-145" y="-770" on="0"/>
        <pt x="-244" y="-666" on="1"/>
        <pt x="-343" y="-770" on="0"/>
        <pt x="-483" y="-770" on="1"/>
        <pt x="-600" y="-770" on="0"/>
        <pt x="-733" y="-611" on="0"/>
        <pt x="-733" y="-488" on="1"/>
        <pt x="-733" y="-307" on="0"/>
        <pt x="-460" y="-91" on="0"/>
        <pt x="-227" y="-91" on="1"/>
        <pt x="-37" y="-91" on="0"/>
        <pt x="204" y="-237" on="0"/>
      </contour>
      <contour>
        <pt x="-246" y="-266" on="1"/>
        <pt x="-378" y="-266" on="0"/>
        <pt x="-535" y="-384" on="0"/>
        <pt x="-535" y="-481" on="1"/>
        <pt x="-535" y="-536" on="0"/>
        <pt x="-484" y="-591" on="0"/>
        <pt x="-442" y="-591" on="1"/>
        <pt x="-371" y="-591" on="0"/>
        <pt x="-338" y="-513" on="1"/>
        <pt x="-151" y="-513" on="1"/>
        <pt x="-125" y="-599" on="0"/>
        <pt x="-19" y="-599" on="1"/>
        <pt x="62" y="-599" on="0"/>
        <pt x="86" y="-535" on="1"/>
        <pt x="45" y="-553" on="0"/>
        <pt x="-12" y="-553" on="1"/>
        <pt x="-95" y="-553" on="0"/>
        <pt x="-192" y="-474" on="0"/>
        <pt x="-192" y="-405" on="1"/>
        <pt x="-192" y="-360" on="0"/>
        <pt x="-138" y="-294" on="0"/>
        <pt x="-89" y="-281" on="1"/>
        <pt x="-165" y="-266" on="0"/>
        <pt x="-214" y="-266" on="1"/>
      </contour>
      <contour>
        <pt x="72" y="-393" on="1"/>
        <pt x="48" y="-366" on="0"/>
        <pt x="10" y="-366" on="1"/>
        <pt x="-11" y="-366" on="0"/>
        <pt x="-39" y="-384" on="0"/>
        <pt x="-39" y="-400" on="1"/>
        <pt x="-39" y="-417" on="0"/>
        <pt x="-11" y="-434" on="0"/>
        <pt x="9" y="-434" on="1"/>
        <pt x="59" y="-434" on="0"/>
      </contour>
    </TTGlyph>
    <TTGlyph name="glyph00110" xMin="-733" yMin="-947" xMax="272" yMax="-91">
      <contour>
        <pt x="225" y="-369" on="1"/>
        <pt x="272" y="-431" on="0"/>
        <pt x="272" y="-522" on="1"/>
        <pt x="272" y="-639" on="0"/>
        <pt x="117" y="-770" on="0"/>
        <pt x="-2" y="-770" on="1"/>
        <pt x="-145" y="-770" on="0"/>
        <pt x="-244" y="-666" on="1"/>
        <pt x="-343" y="-770" on="0"/>
        <pt x="-483" y="-770" on="1"/>
        <pt x="-600" y="-770" on="0"/>
        <pt x="-733" y="-611" on="0"/>
        <pt x="-733" y="-488" on="1"/>
        <pt x="-733" y="-307" on="0"/>
        <pt x="-460" y="-91" on="0"/>
        <pt x="-227" y="-91" on="1"/>
        <pt x="-37" y="-91" on="0"/>
        <pt x="204" y="-237" on="0"/>
      </contour>
      <contour>
        <pt x="-246" y="-266" on="1"/>
        <pt x="-378" y="-266" on="0"/>
        <pt x="-535" y="-384" on="0"/>
        <pt x="-535" y="-481" on="1"/>
        <pt x="-535" y="-536" on="0"/>
        <pt x="-484" y="-591" on="0"/>
        <pt x="-442" y="-591" on="1"/>
        <pt x="-371" y="-591" on="0"/>
        <pt x="-338" y="-513" on="1"/>
        <pt x="-151" y="-513" on="1"/>
        <pt x="-125" y="-599" on="0"/>
        <pt x="-19" y="-599" on="1"/>
        <pt x="62" y="-599" on="0"/>
        <pt x="86" y="-535" on="1"/>
        <pt x="45" y="-553" on="0"/>
        <pt x="-12" y="-553" on="1"/>
        <pt x="-95" y="-553" on="0"/>
        <pt x="-192" y="-474" on="0"/>
        <pt x="-192" y="-405" on="1"/>
        <pt x="-192" y="-360" on="0"/>
        <pt x="-138" y="-294" on="0"/>
        <pt x="-89" y="-281" on="1"/>
        <pt x="-165" y="-266" on="0"/>
        <pt x="-214" y="-266" on="1"/>
      </contour>
      <contour>
        <pt x="72" y="-393" on="1"/>
        <pt x="48" y="-366" on="0"/>
        <pt x="10" y="-366" on="1"/>
        <pt x="-11" y="-366" on="0"/>
        <pt x="-39" y="-384" on="0"/>
        <pt x="-39" y="-400" on="1"/>
        <pt x="-39" y="-417" on="0"/>
        <pt x="-11" y="-434" on="0"/>
        <pt x="9" y="-434" on="1"/>
        <pt x="59" y="-434" on="0"/>
      </contour>
      <contour>
        <pt x="-359" y="-947" on="1"/>
        <pt x="-342" y="-747" on="1"/>
        <pt x="-148" y="-747" on="1"/>
        <pt x="-132" y="-947" on="1"/>
      </contour>
    </TTGlyph>
    <TTGlyph name="glyph00111" xMin="-899" yMin="-794" xMax="291" yMax="-91">
      <contour>
        <pt x="24" y="-587" on="1"/>
        <pt x="-104" y="-583" on="1"/>
        <pt x="-102" y="-575" on="0"/>
        <pt x="-102" y="-565" on="1"/>
        <pt x="-102" y="-532" on="0"/>
        <pt x="-137" y="-532" on="1"/>
        <pt x="-157" y="-532" on="0"/>
        <pt x="-179" y="-555" on="0"/>
        <pt x="-179" y="-574" on="1"/>
        <pt x="-179" y="-635" on="0"/>
        <pt x="-69" y="-635" on="1"/>
        <pt x="18" y="-635" on="0"/>
        <pt x="95" y="-550" on="0"/>
        <pt x="95" y="-461" on="1"/>
        <pt x="95" y="-452" on="1"/>
        <pt x="95" y="-365" on="0"/>
        <pt x="-7" y="-264" on="0"/>
        <pt x="-99" y="-264" on="1"/>
        <pt x="-232" y="-264" on="0"/>
        <pt x="-265" y="-363" on="1"/>
        <pt x="-453" y="-363" on="1"/>
        <pt x="-470" y="-264" on="0"/>
        <pt x="-597" y="-264" on="1"/>
        <pt x="-646" y="-264" on="0"/>
        <pt x="-693" y="-292" on="0"/>
        <pt x="-693" y="-323" on="1"/>
        <pt x="-693" y="-348" on="0"/>
        <pt x="-653" y="-384" on="0"/>
        <pt x="-590" y="-384" on="1"/>
        <pt x="-545" y="-384" on="1"/>
        <pt x="-545" y="-536" on="1"/>
        <pt x="-601" y="-536" on="1"/>
        <pt x="-664" y="-536" on="0"/>
        <pt x="-700" y="-565" on="0"/>
        <pt x="-700" y="-586" on="1"/>
        <pt x="-700" y="-631" on="0"/>
        <pt x="-618" y="-631" on="1"/>
        <pt x="-547" y="-631" on="0"/>
        <pt x="-492" y="-591" on="1"/>
        <pt x="-405" y="-730" on="1"/>
        <pt x="-520" y="-794" on="0"/>
        <pt x="-647" y="-794" on="1"/>
        <pt x="-768" y="-794" on="0"/>
        <pt x="-899" y="-700" on="0"/>
        <pt x="-899" y="-619" on="1"/>
        <pt x="-899" y="-511" on="0"/>
        <pt x="-784" y="-462" on="1"/>
        <pt x="-891" y="-403" on="0"/>
        <pt x="-891" y="-291" on="1"/>
        <pt x="-891" y="-204" on="0"/>
        <pt x="-742" y="-91" on="0"/>
        <pt x="-620" y="-91" on="1"/>
        <pt x="-543" y="-91" on="0"/>
        <pt x="-419" y="-135" on="0"/>
        <pt x="-359" y="-188" on="1"/>
        <pt x="-246" y="-91" on="0"/>
        <pt x="-86" y="-91" on="1"/>
        <pt x="96" y="-91" on="0"/>
        <pt x="291" y="-280" on="0"/>
        <pt x="291" y="-449" on="1"/>
        <pt x="291" y="-614" on="0"/>
        <pt x="110" y="-794" on="0"/>
        <pt x="-61" y="-794" on="1"/>
        <pt x="-189" y="-794" on="0"/>
        <pt x="-335" y="-680" on="0"/>
        <pt x="-335" y="-579" on="1"/>
        <pt x="-335" y="-493" on="0"/>
        <pt x="-224" y="-386" on="0"/>
        <pt x="-133" y="-386" on="1"/>
        <pt x="-54" y="-386" on="0"/>
        <pt x="38" y="-454" on="0"/>
        <pt x="38" y="-514" on="1"/>
        <pt x="38" y="-551" on="0"/>
      </contour>
    </TTGlyph>
    <TTGlyph name="glyph00112" xMin="-978" yMin="-664" xMax="203" yMax="-83">
      <contour>
        <pt x="-978" y="-664" on="1"/>
        <pt x="-978" y="-462" on="1"/>
        <pt x="-387" y="-462" on="1"/>
        <pt x="-402" y="-412" on="0"/>
        <pt x="-402" y="-350" on="1"/>
        <pt x="-402" y="-282" on="0"/>
        <pt x="-331" y="-156" on="0"/>
        <pt x="-194" y="-83" on="0"/>
        <pt x="-101" y="-83" on="1"/>
        <pt x="43" y="-83" on="0"/>
        <pt x="203" y="-235" on="0"/>
        <pt x="203" y="-358" on="1"/>
        <pt x="203" y="-470" on="0"/>
        <pt x="91" y="-608" on="0"/>
        <pt x="-88" y="-664" on="0"/>
        <pt x="-264" y="-664" on="1"/>
      </contour>
      <contour>
        <pt x="-196" y="-462" on="1"/>
        <pt x="-147" y="-462" on="1"/>
        <pt x="-62" y="-462" on="0"/>
        <pt x="10" y="-409" on="0"/>
        <pt x="10" y="-354" on="1"/>
        <pt x="10" y="-310" on="0"/>
        <pt x="-45" y="-258" on="0"/>
        <pt x="-96" y="-258" on="1"/>
        <pt x="-146" y="-258" on="0"/>
        <pt x="-209" y="-327" on="0"/>
        <pt x="-209" y="-379" on="1"/>
        <pt x="-209" y="-423" on="0"/>
      </contour>
    </TTGlyph>
    <TTGlyph name="glyph00113" xMin="-721" yMin="-947" xMax="257" yMax="-91">
      <contour>
        <pt x="-232" y="-666" on="1"/>
        <pt x="-284" y="-721" on="0"/>
        <pt x="-399" y="-770" on="0"/>
        <pt x="-472" y="-770" on="1"/>
        <pt x="-588" y="-770" on="0"/>
        <pt x="-721" y="-611" on="0"/>
        <pt x="-721" y="-488" on="1"/>
        <pt x="-721" y="-308" on="0"/>
        <pt x="-453" y="-91" on="0"/>
        <pt x="-231" y="-91" on="1"/>
        <pt x="-8" y="-91" on="0"/>
        <pt x="257" y="-311" on="0"/>
        <pt x="257" y="-487" on="1"/>
        <pt x="257" y="-612" on="0"/>
        <pt x="126" y="-770" on="0"/>
        <pt x="9" y="-770" on="1"/>
        <pt x="-66" y="-770" on="0"/>
        <pt x="-175" y="-723" on="0"/>
      </contour>
      <contour>
        <pt x="-139" y="-513" on="1"/>
        <pt x="-100" y="-591" on="0"/>
        <pt x="-34" y="-591" on="1"/>
        <pt x="8" y="-591" on="0"/>
        <pt x="59" y="-538" on="0"/>
        <pt x="59" y="-485" on="1"/>
        <pt x="59" y="-390" on="0"/>
        <pt x="-93" y="-270" on="0"/>
        <pt x="-217" y="-270" on="1"/>
        <pt x="-241" y="-270" on="1"/>
        <pt x="-368" y="-270" on="0"/>
        <pt x="-523" y="-387" on="0"/>
        <pt x="-523" y="-482" on="1"/>
        <pt x="-523" y="-537" on="0"/>
        <pt x="-472" y="-591" on="0"/>
        <pt x="-430" y="-591" on="1"/>
        <pt x="-359" y="-591" on="0"/>
        <pt x="-326" y="-513" on="1"/>
      </contour>
      <contour>
        <pt x="-232" y="-312" on="1"/>
        <pt x="-190" y="-312" on="0"/>
        <pt x="-136" y="-363" on="0"/>
        <pt x="-136" y="-399" on="1"/>
        <pt x="-136" y="-437" on="0"/>
        <pt x="-190" y="-486" on="0"/>
        <pt x="-232" y="-486" on="1"/>
        <pt x="-276" y="-486" on="0"/>
        <pt x="-327" y="-438" on="0"/>
        <pt x="-327" y="-399" on="1"/>
        <pt x="-327" y="-363" on="0"/>
        <pt x="-275" y="-312" on="0"/>
      </contour>
      <contour>
        <pt x="-347" y="-947" on="1"/>
        <pt x="-330" y="-747" on="1"/>
        <pt x="-136" y="-747" on="1"/>
        <pt x="-120" y="-947" on="1"/>
      </contour>
    </TTGlyph>
    <TTGlyph name="glyph00114" xMin="-721" yMin="-770" xMax="257" yMax="-91">
      <contour>
        <pt x="-232" y="-666" on="1"/>
        <pt x="-284" y="-721" on="0"/>
        <pt x="-399" y="-770" on="0"/>
        <pt x="-472" y="-770" on="1"/>
        <pt x="-588" y="-770" on="0"/>
        <pt x="-721" y="-611" on="0"/>
        <pt x="-721" y="-488" on="1"/>
        <pt x="-721" y="-308" on="0"/>
        <pt x="-453" y="-91" on="0"/>
        <pt x="-231" y="-91" on="1"/>
        <pt x="-8" y="-91" on="0"/>
        <pt x="257" y="-311" on="0"/>
        <pt x="257" y="-487" on="1"/>
        <pt x="257" y="-612" on="0"/>
        <pt x="126" y="-770" on="0"/>
        <pt x="9" y="-770" on="1"/>
        <pt x="-66" y="-770" on="0"/>
        <pt x="-175" y="-723" on="0"/>
      </contour>
      <contour>
        <pt x="-139" y="-470" on="1"/>
        <pt x="-133" y="-526" on="0"/>
        <pt x="-77" y="-591" on="0"/>
        <pt x="-34" y="-591" on="1"/>
        <pt x="8" y="-591" on="0"/>
        <pt x="59" y="-538" on="0"/>
        <pt x="59" y="-485" on="1"/>
        <pt x="59" y="-390" on="0"/>
        <pt x="-93" y="-270" on="0"/>
        <pt x="-217" y="-270" on="1"/>
        <pt x="-241" y="-270" on="1"/>
        <pt x="-368" y="-270" on="0"/>
        <pt x="-523" y="-387" on="0"/>
        <pt x="-523" y="-482" on="1"/>
        <pt x="-523" y="-537" on="0"/>
        <pt x="-472" y="-591" on="0"/>
        <pt x="-430" y="-591" on="1"/>
        <pt x="-386" y="-591" on="0"/>
        <pt x="-332" y="-527" on="0"/>
        <pt x="-326" y="-470" on="1"/>
      </contour>
    </TTGlyph>
    <TTGlyph name="glyph00115" xMin="-721" yMin="-947" xMax="257" yMax="-91">
      <contour>
        <pt x="-232" y="-666" on="1"/>
        <pt x="-284" y="-721" on="0"/>
        <pt x="-399" y="-770" on="0"/>
        <pt x="-472" y="-770" on="1"/>
        <pt x="-588" y="-770" on="0"/>
        <pt x="-721" y="-611" on="0"/>
        <pt x="-721" y="-488" on="1"/>
        <pt x="-721" y="-308" on="0"/>
        <pt x="-453" y="-91" on="0"/>
        <pt x="-231" y="-91" on="1"/>
        <pt x="-8" y="-91" on="0"/>
        <pt x="257" y="-311" on="0"/>
        <pt x="257" y="-487" on="1"/>
        <pt x="257" y="-612" on="0"/>
        <pt x="126" y="-770" on="0"/>
        <pt x="9" y="-770" on="1"/>
        <pt x="-66" y="-770" on="0"/>
        <pt x="-175" y="-723" on="0"/>
      </contour>
      <contour>
        <pt x="-139" y="-470" on="1"/>
        <pt x="-133" y="-526" on="0"/>
        <pt x="-77" y="-591" on="0"/>
        <pt x="-34" y="-591" on="1"/>
        <pt x="8" y="-591" on="0"/>
        <pt x="59" y="-538" on="0"/>
        <pt x="59" y="-485" on="1"/>
        <pt x="59" y="-390" on="0"/>
        <pt x="-93" y="-270" on="0"/>
        <pt x="-217" y="-270" on="1"/>
        <pt x="-241" y="-270" on="1"/>
        <pt x="-368" y="-270" on="0"/>
        <pt x="-523" y="-387" on="0"/>
        <pt x="-523" y="-482" on="1"/>
        <pt x="-523" y="-537" on="0"/>
        <pt x="-472" y="-591" on="0"/>
        <pt x="-430" y="-591" on="1"/>
        <pt x="-386" y="-591" on="0"/>
        <pt x="-332" y="-527" on="0"/>
        <pt x="-326" y="-470" on="1"/>
      </contour>
      <contour>
        <pt x="-347" y="-947" on="1"/>
        <pt x="-330" y="-747" on="1"/>
        <pt x="-136" y="-747" on="1"/>
        <pt x="-120" y="-947" on="1"/>
      </contour>
    </TTGlyph>
    <TTGlyph name="glyph00116" xMin="-675" yMin="-770" xMax="358" yMax="161">
      <contour>
        <pt x="10" y="-357" on="1"/>
        <pt x="41" y="-312" on="0"/>
        <pt x="73" y="-215" on="0"/>
        <pt x="73" y="-163" on="1"/>
        <pt x="73" y="-35" on="0"/>
        <pt x="10" y="72" on="1"/>
        <pt x="187" y="161" on="1"/>
        <pt x="279" y="25" on="0"/>
        <pt x="279" y="-161" on="1"/>
        <pt x="279" y="-272" on="0"/>
        <pt x="195" y="-454" on="0"/>
        <pt x="111" y="-526" on="1"/>
        <pt x="134" y="-555" on="0"/>
        <pt x="192" y="-582" on="0"/>
        <pt x="246" y="-582" on="1"/>
        <pt x="263" y="-582" on="0"/>
        <pt x="315" y="-573" on="0"/>
        <pt x="330" y="-567" on="1"/>
        <pt x="358" y="-746" on="1"/>
        <pt x="340" y="-755" on="0"/>
        <pt x="268" y="-770" on="0"/>
        <pt x="236" y="-770" on="1"/>
        <pt x="136" y="-770" on="0"/>
        <pt x="11" y="-705" on="0"/>
        <pt x="-43" y="-621" on="1"/>
        <pt x="-109" y="-648" on="0"/>
        <pt x="-245" y="-676" on="0"/>
        <pt x="-315" y="-676" on="1"/>
        <pt x="-488" y="-676" on="0"/>
        <pt x="-675" y="-515" on="0"/>
        <pt x="-675" y="-382" on="1"/>
        <pt x="-675" y="-262" on="0"/>
        <pt x="-504" y="-113" on="0"/>
        <pt x="-364" y="-113" on="1"/>
        <pt x="-244" y="-113" on="0"/>
        <pt x="-71" y="-226" on="0"/>
      </contour>
      <contour>
        <pt x="-128" y="-467" on="1"/>
        <pt x="-178" y="-375" on="0"/>
        <pt x="-285" y="-289" on="0"/>
        <pt x="-349" y="-289" on="1"/>
        <pt x="-406" y="-289" on="0"/>
        <pt x="-469" y="-341" on="0"/>
        <pt x="-469" y="-385" on="1"/>
        <pt x="-469" y="-440" on="0"/>
        <pt x="-379" y="-499" on="0"/>
        <pt x="-290" y="-499" on="1"/>
        <pt x="-246" y="-499" on="0"/>
        <pt x="-165" y="-483" on="0"/>
      </contour>
    </TTGlyph>
    <TTGlyph name="glyph00117" xMin="-778" yMin="-690" xMax="365" yMax="161">
      <contour>
        <pt x="-205" y="-586" on="1"/>
        <pt x="-269" y="-646" on="0"/>
        <pt x="-391" y="-690" on="0"/>
        <pt x="-481" y="-690" on="1"/>
        <pt x="-621" y="-690" on="0"/>
        <pt x="-778" y="-546" on="0"/>
        <pt x="-778" y="-418" on="1"/>
        <pt x="-778" y="-308" on="0"/>
        <pt x="-645" y="-179" on="0"/>
        <pt x="-537" y="-179" on="1"/>
        <pt x="-444" y="-179" on="0"/>
        <pt x="-345" y="-268" on="0"/>
        <pt x="-345" y="-351" on="1"/>
        <pt x="-345" y="-395" on="0"/>
        <pt x="-367" y="-430" on="1"/>
        <pt x="-510" y="-420" on="1"/>
        <pt x="-504" y="-408" on="0"/>
        <pt x="-504" y="-388" on="1"/>
        <pt x="-504" y="-342" on="0"/>
        <pt x="-544" y="-342" on="1"/>
        <pt x="-568" y="-342" on="0"/>
        <pt x="-598" y="-380" on="0"/>
        <pt x="-598" y="-415" on="1"/>
        <pt x="-598" y="-511" on="0"/>
        <pt x="-460" y="-511" on="1"/>
        <pt x="-312" y="-511" on="0"/>
        <pt x="-299" y="-390" on="1"/>
        <pt x="-112" y="-390" on="1"/>
        <pt x="-101" y="-454" on="0"/>
        <pt x="-42" y="-511" on="0"/>
        <pt x="21" y="-511" on="1"/>
        <pt x="86" y="-511" on="0"/>
        <pt x="159" y="-406" on="0"/>
        <pt x="159" y="-309" on="1"/>
        <pt x="159" y="-216" on="0"/>
        <pt x="81" y="-14" on="0"/>
        <pt x="13" y="76" on="1"/>
        <pt x="194" y="161" on="1"/>
        <pt x="274" y="54" on="0"/>
        <pt x="365" y="-198" on="0"/>
        <pt x="365" y="-315" on="1"/>
        <pt x="365" y="-495" on="0"/>
        <pt x="190" y="-690" on="0"/>
        <pt x="35" y="-690" on="1"/>
        <pt x="-38" y="-690" on="0"/>
        <pt x="-146" y="-645" on="0"/>
      </contour>
    </TTGlyph>
    <TTGlyph name="glyph00118" xMin="-778" yMin="-867" xMax="365" yMax="161">
      <contour>
        <pt x="-205" y="-586" on="1"/>
        <pt x="-269" y="-646" on="0"/>
        <pt x="-391" y="-690" on="0"/>
        <pt x="-481" y="-690" on="1"/>
        <pt x="-621" y="-690" on="0"/>
        <pt x="-778" y="-546" on="0"/>
        <pt x="-778" y="-418" on="1"/>
        <pt x="-778" y="-308" on="0"/>
        <pt x="-645" y="-179" on="0"/>
        <pt x="-537" y="-179" on="1"/>
        <pt x="-444" y="-179" on="0"/>
        <pt x="-345" y="-268" on="0"/>
        <pt x="-345" y="-351" on="1"/>
        <pt x="-345" y="-395" on="0"/>
        <pt x="-367" y="-430" on="1"/>
        <pt x="-510" y="-420" on="1"/>
        <pt x="-504" y="-408" on="0"/>
        <pt x="-504" y="-388" on="1"/>
        <pt x="-504" y="-342" on="0"/>
        <pt x="-544" y="-342" on="1"/>
        <pt x="-568" y="-342" on="0"/>
        <pt x="-598" y="-380" on="0"/>
        <pt x="-598" y="-415" on="1"/>
        <pt x="-598" y="-511" on="0"/>
        <pt x="-460" y="-511" on="1"/>
        <pt x="-312" y="-511" on="0"/>
        <pt x="-299" y="-390" on="1"/>
        <pt x="-112" y="-390" on="1"/>
        <pt x="-101" y="-454" on="0"/>
        <pt x="-42" y="-511" on="0"/>
        <pt x="21" y="-511" on="1"/>
        <pt x="86" y="-511" on="0"/>
        <pt x="159" y="-406" on="0"/>
        <pt x="159" y="-309" on="1"/>
        <pt x="159" y="-216" on="0"/>
        <pt x="81" y="-14" on="0"/>
        <pt x="13" y="76" on="1"/>
        <pt x="194" y="161" on="1"/>
        <pt x="274" y="54" on="0"/>
        <pt x="365" y="-198" on="0"/>
        <pt x="365" y="-315" on="1"/>
        <pt x="365" y="-495" on="0"/>
        <pt x="190" y="-690" on="0"/>
        <pt x="35" y="-690" on="1"/>
        <pt x="-38" y="-690" on="0"/>
        <pt x="-146" y="-645" on="0"/>
      </contour>
      <contour>
        <pt x="-320" y="-867" on="1"/>
        <pt x="-303" y="-667" on="1"/>
        <pt x="-109" y="-667" on="1"/>
        <pt x="-93" y="-867" on="1"/>
      </contour>
    </TTGlyph>
    <TTGlyph name="glyph00119" xMin="-754" yMin="-770" xMax="365" yMax="161">
      <contour>
        <pt x="-112" y="-470" on="1"/>
        <pt x="-101" y="-534" on="0"/>
        <pt x="-42" y="-591" on="0"/>
        <pt x="21" y="-591" on="1"/>
        <pt x="85" y="-591" on="0"/>
        <pt x="159" y="-474" on="0"/>
        <pt x="159" y="-362" on="1"/>
        <pt x="159" y="-256" on="0"/>
        <pt x="82" y="-27" on="0"/>
        <pt x="13" y="76" on="1"/>
        <pt x="194" y="161" on="1"/>
        <pt x="275" y="42" on="0"/>
        <pt x="365" y="-233" on="0"/>
        <pt x="365" y="-360" on="1"/>
        <pt x="365" y="-557" on="0"/>
        <pt x="190" y="-770" on="0"/>
        <pt x="35" y="-770" on="1"/>
        <pt x="-42" y="-770" on="0"/>
        <pt x="-150" y="-725" on="0"/>
        <pt x="-205" y="-666" on="1"/>
        <pt x="-255" y="-716" on="0"/>
        <pt x="-376" y="-770" on="0"/>
        <pt x="-472" y="-770" on="1"/>
        <pt x="-583" y="-770" on="0"/>
        <pt x="-709" y="-670" on="0"/>
        <pt x="-709" y="-592" on="1"/>
        <pt x="-709" y="-504" on="0"/>
        <pt x="-619" y="-406" on="0"/>
        <pt x="-512" y="-352" on="1"/>
        <pt x="-447" y="-319" on="0"/>
        <pt x="-423" y="-295" on="0"/>
        <pt x="-423" y="-279" on="1"/>
        <pt x="-423" y="-247" on="0"/>
        <pt x="-490" y="-247" on="1"/>
        <pt x="-567" y="-247" on="0"/>
        <pt x="-567" y="-292" on="1"/>
        <pt x="-567" y="-312" on="0"/>
        <pt x="-556" y="-334" on="1"/>
        <pt x="-722" y="-387" on="1"/>
        <pt x="-754" y="-326" on="0"/>
        <pt x="-754" y="-259" on="1"/>
        <pt x="-754" y="-181" on="0"/>
        <pt x="-613" y="-91" on="0"/>
        <pt x="-483" y="-91" on="1"/>
        <pt x="-361" y="-91" on="0"/>
        <pt x="-233" y="-181" on="0"/>
        <pt x="-233" y="-258" on="1"/>
        <pt x="-233" y="-310" on="0"/>
        <pt x="-263" y="-377" on="0"/>
        <pt x="-342" y="-441" on="0"/>
        <pt x="-417" y="-478" on="1"/>
        <pt x="-479" y="-508" on="0"/>
        <pt x="-511" y="-537" on="0"/>
        <pt x="-511" y="-554" on="1"/>
        <pt x="-511" y="-591" on="0"/>
        <pt x="-449" y="-591" on="1"/>
        <pt x="-386" y="-591" on="0"/>
        <pt x="-306" y="-525" on="0"/>
        <pt x="-299" y="-470" on="1"/>
      </contour>
    </TTGlyph>
    <TTGlyph name="glyph00120" xMin="-754" yMin="-947" xMax="365" yMax="161">
      <contour>
        <pt x="-112" y="-470" on="1"/>
        <pt x="-101" y="-534" on="0"/>
        <pt x="-42" y="-591" on="0"/>
        <pt x="21" y="-591" on="1"/>
        <pt x="85" y="-591" on="0"/>
        <pt x="159" y="-474" on="0"/>
        <pt x="159" y="-362" on="1"/>
        <pt x="159" y="-256" on="0"/>
        <pt x="82" y="-27" on="0"/>
        <pt x="13" y="76" on="1"/>
        <pt x="194" y="161" on="1"/>
        <pt x="275" y="42" on="0"/>
        <pt x="365" y="-233" on="0"/>
        <pt x="365" y="-360" on="1"/>
        <pt x="365" y="-557" on="0"/>
        <pt x="190" y="-770" on="0"/>
        <pt x="35" y="-770" on="1"/>
        <pt x="-42" y="-770" on="0"/>
        <pt x="-150" y="-725" on="0"/>
        <pt x="-205" y="-666" on="1"/>
        <pt x="-255" y="-716" on="0"/>
        <pt x="-376" y="-770" on="0"/>
        <pt x="-472" y="-770" on="1"/>
        <pt x="-583" y="-770" on="0"/>
        <pt x="-709" y="-670" on="0"/>
        <pt x="-709" y="-592" on="1"/>
        <pt x="-709" y="-504" on="0"/>
        <pt x="-619" y="-406" on="0"/>
        <pt x="-512" y="-352" on="1"/>
        <pt x="-447" y="-319" on="0"/>
        <pt x="-423" y="-295" on="0"/>
        <pt x="-423" y="-279" on="1"/>
        <pt x="-423" y="-247" on="0"/>
        <pt x="-490" y="-247" on="1"/>
        <pt x="-567" y="-247" on="0"/>
        <pt x="-567" y="-292" on="1"/>
        <pt x="-567" y="-312" on="0"/>
        <pt x="-556" y="-334" on="1"/>
        <pt x="-722" y="-387" on="1"/>
        <pt x="-754" y="-326" on="0"/>
        <pt x="-754" y="-259" on="1"/>
        <pt x="-754" y="-181" on="0"/>
        <pt x="-613" y="-91" on="0"/>
        <pt x="-483" y="-91" on="1"/>
        <pt x="-361" y="-91" on="0"/>
        <pt x="-233" y="-181" on="0"/>
        <pt x="-233" y="-258" on="1"/>
        <pt x="-233" y="-310" on="0"/>
        <pt x="-263" y="-377" on="0"/>
        <pt x="-342" y="-441" on="0"/>
        <pt x="-417" y="-478" on="1"/>
        <pt x="-479" y="-508" on="0"/>
        <pt x="-511" y="-537" on="0"/>
        <pt x="-511" y="-554" on="1"/>
        <pt x="-511" y="-591" on="0"/>
        <pt x="-449" y="-591" on="1"/>
        <pt x="-386" y="-591" on="0"/>
        <pt x="-306" y="-525" on="0"/>
        <pt x="-299" y="-470" on="1"/>
      </contour>
      <contour>
        <pt x="-320" y="-947" on="1"/>
        <pt x="-303" y="-747" on="1"/>
        <pt x="-109" y="-747" on="1"/>
        <pt x="-93" y="-947" on="1"/>
      </contour>
    </TTGlyph>
    <TTGlyph name="glyph00121" xMin="-152" yMin="-854" xMax="772" yMax="269">
      <contour>
        <pt x="305" y="-91" on="1"/>
        <pt x="320" y="-91" on="1"/>
        <pt x="463" y="-91" on="0"/>
        <pt x="627" y="-215" on="0"/>
        <pt x="627" y="-329" on="1"/>
        <pt x="627" y="-441" on="0"/>
        <pt x="484" y="-561" on="0"/>
        <pt x="349" y="-561" on="1"/>
        <pt x="233" y="-561" on="0"/>
        <pt x="87" y="-441" on="0"/>
        <pt x="83" y="-339" on="1"/>
        <pt x="62" y="-366" on="0"/>
        <pt x="42" y="-430" on="0"/>
        <pt x="42" y="-467" on="1"/>
        <pt x="42" y="-566" on="0"/>
        <pt x="173" y="-668" on="0"/>
        <pt x="295" y="-668" on="1"/>
        <pt x="512" y="-668" on="0"/>
        <pt x="622" y="-544" on="1"/>
        <pt x="772" y="-681" on="1"/>
        <pt x="673" y="-772" on="0"/>
        <pt x="442" y="-854" on="0"/>
        <pt x="286" y="-854" on="1"/>
        <pt x="83" y="-854" on="0"/>
        <pt x="-152" y="-647" on="0"/>
        <pt x="-152" y="-477" on="1"/>
        <pt x="-152" y="-360" on="0"/>
        <pt x="-16" y="-170" on="0"/>
        <pt x="108" y="-125" on="1"/>
        <pt x="117" y="-75" on="0"/>
        <pt x="117" y="-41" on="1"/>
        <pt x="117" y="14" on="0"/>
        <pt x="66" y="81" on="0"/>
        <pt x="9" y="104" on="1"/>
        <pt x="133" y="269" on="1"/>
        <pt x="318" y="186" on="0"/>
        <pt x="318" y="23" on="1"/>
        <pt x="318" y="-27" on="0"/>
      </contour>
      <contour>
        <pt x="263" y="-311" on="1"/>
        <pt x="263" y="-397" on="0"/>
        <pt x="354" y="-397" on="1"/>
        <pt x="390" y="-397" on="0"/>
        <pt x="430" y="-362" on="0"/>
        <pt x="430" y="-335" on="1"/>
        <pt x="430" y="-300" on="0"/>
        <pt x="374" y="-262" on="0"/>
        <pt x="321" y="-262" on="1"/>
        <pt x="295" y="-262" on="0"/>
        <pt x="266" y="-265" on="1"/>
        <pt x="263" y="-287" on="0"/>
      </contour>
    </TTGlyph>
    <TTGlyph name="glyph00122" xMin="-418" yMin="-857" xMax="568" yMax="274">
      <contour>
        <pt x="376" y="36" on="1"/>
        <pt x="362" y="109" on="0"/>
        <pt x="294" y="109" on="1"/>
        <pt x="266" y="109" on="0"/>
        <pt x="232" y="80" on="0"/>
        <pt x="232" y="56" on="1"/>
        <pt x="232" y="30" on="0"/>
        <pt x="274" y="-28" on="0"/>
        <pt x="307" y="-61" on="1"/>
        <pt x="380" y="-139" on="0"/>
        <pt x="440" y="-212" on="0"/>
        <pt x="493" y="-309" on="0"/>
        <pt x="519" y="-408" on="0"/>
        <pt x="519" y="-465" on="1"/>
        <pt x="519" y="-644" on="0"/>
        <pt x="263" y="-857" on="0"/>
        <pt x="16" y="-857" on="1"/>
        <pt x="-171" y="-857" on="0"/>
        <pt x="-373" y="-715" on="0"/>
        <pt x="-373" y="-605" on="1"/>
        <pt x="-373" y="-514" on="0"/>
        <pt x="-277" y="-416" on="0"/>
        <pt x="-176" y="-365" on="1"/>
        <pt x="-123" y="-338" on="0"/>
        <pt x="-87" y="-307" on="0"/>
        <pt x="-87" y="-287" on="1"/>
        <pt x="-87" y="-247" on="0"/>
        <pt x="-154" y="-247" on="1"/>
        <pt x="-231" y="-247" on="0"/>
        <pt x="-231" y="-296" on="1"/>
        <pt x="-231" y="-320" on="0"/>
        <pt x="-220" y="-346" on="1"/>
        <pt x="-386" y="-399" on="1"/>
        <pt x="-418" y="-336" on="0"/>
        <pt x="-418" y="-264" on="1"/>
        <pt x="-418" y="-184" on="0"/>
        <pt x="-277" y="-91" on="0"/>
        <pt x="-147" y="-91" on="1"/>
        <pt x="-23" y="-91" on="0"/>
        <pt x="103" y="-189" on="0"/>
        <pt x="103" y="-276" on="1"/>
        <pt x="103" y="-357" on="0"/>
        <pt x="18" y="-445" on="0"/>
        <pt x="-77" y="-496" on="1"/>
        <pt x="-142" y="-530" on="0"/>
        <pt x="-175" y="-566" on="0"/>
        <pt x="-175" y="-587" on="1"/>
        <pt x="-175" y="-625" on="0"/>
        <pt x="-77" y="-668" on="0"/>
        <pt x="19" y="-668" on="1"/>
        <pt x="161" y="-668" on="0"/>
        <pt x="308" y="-558" on="0"/>
        <pt x="308" y="-462" on="1"/>
        <pt x="308" y="-408" on="0"/>
        <pt x="259" y="-299" on="0"/>
        <pt x="167" y="-201" on="1"/>
        <pt x="73" y="-102" on="0"/>
        <pt x="26" y="5" on="0"/>
        <pt x="26" y="56" on="1"/>
        <pt x="26" y="160" on="0"/>
        <pt x="178" y="274" on="0"/>
        <pt x="301" y="274" on="1"/>
        <pt x="418" y="274" on="0"/>
        <pt x="553" y="168" on="0"/>
        <pt x="568" y="67" on="1"/>
      </contour>
    </TTGlyph>
    <TTGlyph name="glyph00123" xMin="-818" yMin="-647" xMax="283" yMax="213">
      <contour>
        <pt x="-770" y="-401" on="1"/>
        <pt x="-630" y="-441" on="0"/>
        <pt x="-445" y="-441" on="1"/>
        <pt x="-199" y="-441" on="0"/>
        <pt x="69" y="-262" on="0"/>
        <pt x="69" y="-103" on="1"/>
        <pt x="69" y="16" on="0"/>
        <pt x="-4" y="116" on="1"/>
        <pt x="180" y="213" on="1"/>
        <pt x="283" y="64" on="0"/>
        <pt x="283" y="-121" on="1"/>
        <pt x="283" y="-373" on="0"/>
        <pt x="-93" y="-647" on="0"/>
        <pt x="-434" y="-647" on="1"/>
        <pt x="-634" y="-647" on="0"/>
        <pt x="-818" y="-599" on="1"/>
      </contour>
    </TTGlyph>
    <TTGlyph name="glyph00124" xMin="-870" yMin="-770" xMax="312" yMax="-91">
      <contour>
        <pt x="-279" y="-679" on="1"/>
        <pt x="-329" y="-721" on="0"/>
        <pt x="-456" y="-770" on="0"/>
        <pt x="-557" y="-770" on="1"/>
        <pt x="-703" y="-770" on="0"/>
        <pt x="-870" y="-590" on="0"/>
        <pt x="-870" y="-441" on="1"/>
        <pt x="-870" y="-278" on="0"/>
        <pt x="-694" y="-91" on="0"/>
        <pt x="-544" y="-91" on="1"/>
        <pt x="-440" y="-91" on="0"/>
        <pt x="-320" y="-202" on="0"/>
        <pt x="-320" y="-293" on="1"/>
        <pt x="-320" y="-316" on="0"/>
        <pt x="-326" y="-337" on="1"/>
        <pt x="-232" y="-337" on="1"/>
        <pt x="-238" y="-316" on="0"/>
        <pt x="-238" y="-293" on="1"/>
        <pt x="-238" y="-202" on="0"/>
        <pt x="-118" y="-91" on="0"/>
        <pt x="-14" y="-91" on="1"/>
        <pt x="136" y="-91" on="0"/>
        <pt x="312" y="-278" on="0"/>
        <pt x="312" y="-441" on="1"/>
        <pt x="312" y="-590" on="0"/>
        <pt x="144" y="-770" on="0"/>
        <pt x="-1" y="-770" on="1"/>
        <pt x="-105" y="-770" on="0"/>
        <pt x="-233" y="-721" on="0"/>
      </contour>
      <contour>
        <pt x="-668" y="-331" on="1"/>
        <pt x="-630" y="-348" on="0"/>
        <pt x="-587" y="-348" on="1"/>
        <pt x="-492" y="-348" on="0"/>
        <pt x="-492" y="-289" on="1"/>
        <pt x="-492" y="-268" on="0"/>
        <pt x="-522" y="-244" on="0"/>
        <pt x="-549" y="-244" on="1"/>
        <pt x="-592" y="-244" on="0"/>
        <pt x="-652" y="-287" on="0"/>
      </contour>
      <contour>
        <pt x="110" y="-331" on="1"/>
        <pt x="93" y="-287" on="0"/>
        <pt x="32" y="-244" on="0"/>
        <pt x="-12" y="-244" on="1"/>
        <pt x="-36" y="-244" on="0"/>
        <pt x="-66" y="-268" on="0"/>
        <pt x="-66" y="-289" on="1"/>
        <pt x="-66" y="-348" on="0"/>
        <pt x="34" y="-348" on="1"/>
        <pt x="74" y="-348" on="0"/>
      </contour>
      <contour>
        <pt x="-563" y="-483" on="1"/>
        <pt x="-622" y="-483" on="0"/>
        <pt x="-682" y="-466" on="1"/>
        <pt x="-677" y="-528" on="0"/>
        <pt x="-603" y="-591" on="0"/>
        <pt x="-534" y="-591" on="1"/>
        <pt x="-471" y="-591" on="0"/>
        <pt x="-391" y="-554" on="0"/>
        <pt x="-372" y="-508" on="1"/>
        <pt x="-185" y="-508" on="1"/>
        <pt x="-164" y="-556" on="0"/>
        <pt x="-86" y="-591" on="0"/>
        <pt x="-23" y="-591" on="1"/>
        <pt x="44" y="-591" on="0"/>
        <pt x="118" y="-533" on="0"/>
        <pt x="124" y="-466" on="1"/>
        <pt x="64" y="-483" on="0"/>
        <pt x="5" y="-483" on="1"/>
      </contour>
    </TTGlyph>
    <TTGlyph name="glyph00125" xMin="-777" yMin="-745" xMax="251" yMax="-123">
      <contour>
        <pt x="-263" y="-233" on="1"/>
        <pt x="-206" y="-173" on="0"/>
        <pt x="-95" y="-123" on="0"/>
        <pt x="-24" y="-123" on="1"/>
        <pt x="100" y="-123" on="0"/>
        <pt x="251" y="-281" on="0"/>
        <pt x="251" y="-396" on="1"/>
        <pt x="251" y="-491" on="0"/>
        <pt x="162" y="-660" on="0"/>
        <pt x="61" y="-745" on="1"/>
        <pt x="-66" y="-606" on="1"/>
        <pt x="1" y="-551" on="0"/>
        <pt x="53" y="-459" on="0"/>
        <pt x="53" y="-407" on="1"/>
        <pt x="53" y="-362" on="0"/>
        <pt x="1" y="-305" on="0"/>
        <pt x="-44" y="-305" on="1"/>
        <pt x="-98" y="-305" on="0"/>
        <pt x="-164" y="-389" on="0"/>
        <pt x="-169" y="-467" on="1"/>
        <pt x="-357" y="-467" on="1"/>
        <pt x="-362" y="-393" on="0"/>
        <pt x="-430" y="-306" on="0"/>
        <pt x="-482" y="-306" on="1"/>
        <pt x="-527" y="-306" on="0"/>
        <pt x="-579" y="-363" on="0"/>
        <pt x="-579" y="-410" on="1"/>
        <pt x="-579" y="-463" on="0"/>
        <pt x="-523" y="-554" on="0"/>
        <pt x="-460" y="-605" on="1"/>
        <pt x="-587" y="-745" on="1"/>
        <pt x="-687" y="-660" on="0"/>
        <pt x="-777" y="-489" on="0"/>
        <pt x="-777" y="-392" on="1"/>
        <pt x="-777" y="-280" on="0"/>
        <pt x="-624" y="-123" on="0"/>
        <pt x="-500" y="-123" on="1"/>
        <pt x="-434" y="-123" on="0"/>
        <pt x="-328" y="-168" on="0"/>
      </contour>
    </TTGlyph>
    <TTGlyph name="glyph00126" xMin="-644" yMin="-831" xMax="341" yMax="161">
      <contour>
        <pt x="80" y="-600" on="1"/>
        <pt x="108" y="-636" on="0"/>
        <pt x="108" y="-685" on="1"/>
        <pt x="108" y="-754" on="0"/>
        <pt x="-27" y="-831" on="0"/>
        <pt x="-150" y="-831" on="1"/>
        <pt x="-264" y="-831" on="0"/>
        <pt x="-399" y="-753" on="0"/>
        <pt x="-399" y="-686" on="1"/>
        <pt x="-399" y="-642" on="0"/>
        <pt x="-366" y="-603" on="1"/>
        <pt x="-500" y="-578" on="0"/>
        <pt x="-644" y="-427" on="0"/>
        <pt x="-644" y="-318" on="1"/>
        <pt x="-644" y="-211" on="0"/>
        <pt x="-493" y="-67" on="0"/>
        <pt x="-364" y="-67" on="1"/>
        <pt x="-265" y="-67" on="0"/>
        <pt x="-140" y="-177" on="0"/>
        <pt x="-140" y="-263" on="1"/>
        <pt x="-140" y="-345" on="0"/>
        <pt x="-258" y="-438" on="0"/>
        <pt x="-372" y="-438" on="1"/>
        <pt x="-385" y="-438" on="1"/>
        <pt x="-310" y="-462" on="0"/>
        <pt x="-148" y="-462" on="1"/>
        <pt x="-108" y="-462" on="0"/>
        <pt x="41" y="-430" on="0"/>
        <pt x="135" y="-337" on="0"/>
        <pt x="135" y="-258" on="1"/>
        <pt x="135" y="-109" on="0"/>
        <pt x="5" y="76" on="1"/>
        <pt x="186" y="161" on="1"/>
        <pt x="260" y="59" on="0"/>
        <pt x="341" y="-168" on="0"/>
        <pt x="341" y="-257" on="1"/>
        <pt x="341" y="-389" on="0"/>
        <pt x="207" y="-565" on="0"/>
      </contour>
      <contour>
        <pt x="-480" y="-315" on="1"/>
        <pt x="-445" y="-324" on="0"/>
        <pt x="-407" y="-324" on="1"/>
        <pt x="-312" y="-324" on="0"/>
        <pt x="-312" y="-266" on="1"/>
        <pt x="-312" y="-220" on="0"/>
        <pt x="-373" y="-220" on="1"/>
        <pt x="-419" y="-220" on="0"/>
        <pt x="-479" y="-271" on="0"/>
      </contour>
      <contour>
        <pt x="-146" y="-605" on="1"/>
        <pt x="-182" y="-608" on="0"/>
        <pt x="-223" y="-633" on="0"/>
        <pt x="-223" y="-651" on="1"/>
        <pt x="-223" y="-669" on="0"/>
        <pt x="-185" y="-693" on="0"/>
        <pt x="-146" y="-693" on="1"/>
        <pt x="-69" y="-693" on="0"/>
        <pt x="-69" y="-651" on="1"/>
        <pt x="-69" y="-633" on="0"/>
        <pt x="-112" y="-607" on="0"/>
      </contour>
    </TTGlyph>
    <TTGlyph name="glyph00127" xMin="-805" yMin="-770" xMax="315" yMax="217">
      <contour>
        <pt x="-232" y="-666" on="1"/>
        <pt x="-296" y="-726" on="0"/>
        <pt x="-418" y="-770" on="0"/>
        <pt x="-508" y="-770" on="1"/>
        <pt x="-648" y="-770" on="0"/>
        <pt x="-805" y="-626" on="0"/>
        <pt x="-805" y="-498" on="1"/>
        <pt x="-805" y="-388" on="0"/>
        <pt x="-672" y="-259" on="0"/>
        <pt x="-564" y="-259" on="1"/>
        <pt x="-471" y="-259" on="0"/>
        <pt x="-372" y="-348" on="0"/>
        <pt x="-372" y="-431" on="1"/>
        <pt x="-372" y="-475" on="0"/>
        <pt x="-394" y="-510" on="1"/>
        <pt x="-537" y="-500" on="1"/>
        <pt x="-531" y="-488" on="0"/>
        <pt x="-531" y="-468" on="1"/>
        <pt x="-531" y="-422" on="0"/>
        <pt x="-571" y="-422" on="1"/>
        <pt x="-595" y="-422" on="0"/>
        <pt x="-625" y="-460" on="0"/>
        <pt x="-625" y="-495" on="1"/>
        <pt x="-625" y="-591" on="0"/>
        <pt x="-487" y="-591" on="1"/>
        <pt x="-339" y="-591" on="0"/>
        <pt x="-326" y="-470" on="1"/>
        <pt x="-139" y="-470" on="1"/>
        <pt x="-123" y="-536" on="0"/>
        <pt x="-56" y="-591" on="0"/>
        <pt x="1" y="-591" on="1"/>
        <pt x="117" y="-591" on="0"/>
        <pt x="117" y="-487" on="1"/>
        <pt x="117" y="-366" on="0"/>
        <pt x="-43" y="-294" on="1"/>
        <pt x="-342" y="-294" on="1"/>
        <pt x="-342" y="-115" on="1"/>
        <pt x="-51" y="-115" on="1"/>
        <pt x="11" y="-115" on="0"/>
        <pt x="64" y="-106" on="0"/>
        <pt x="97" y="-73" on="0"/>
        <pt x="97" y="-41" on="1"/>
        <pt x="97" y="34" on="0"/>
        <pt x="15" y="138" on="1"/>
        <pt x="197" y="217" on="1"/>
        <pt x="303" y="66" on="0"/>
        <pt x="303" y="-73" on="1"/>
        <pt x="303" y="-205" on="0"/>
        <pt x="184" y="-260" on="1"/>
        <pt x="315" y="-368" on="0"/>
        <pt x="315" y="-511" on="1"/>
        <pt x="315" y="-637" on="0"/>
        <pt x="161" y="-770" on="0"/>
        <pt x="19" y="-770" on="1"/>
        <pt x="-60" y="-770" on="0"/>
        <pt x="-173" y="-725" on="0"/>
      </contour>
    </TTGlyph>
    <TTGlyph name="glyph00128" xMin="-263" yMin="-800" xMax="538" yMax="243">
      <contour>
        <pt x="-248" y="-344" on="1"/>
        <pt x="-261" y="-311" on="0"/>
        <pt x="-261" y="-263" on="1"/>
        <pt x="-261" y="-172" on="0"/>
        <pt x="-85" y="-70" on="0"/>
        <pt x="66" y="-70" on="1"/>
        <pt x="95" y="-70" on="1"/>
        <pt x="108" y="-70" on="0"/>
        <pt x="121" y="-71" on="1"/>
        <pt x="107" y="-19" on="0"/>
        <pt x="53" y="89" on="0"/>
        <pt x="14" y="146" on="1"/>
        <pt x="180" y="243" on="1"/>
        <pt x="241" y="160" on="0"/>
        <pt x="310" y="-17" on="0"/>
        <pt x="319" y="-113" on="1"/>
        <pt x="423" y="-164" on="0"/>
        <pt x="538" y="-343" on="0"/>
        <pt x="538" y="-450" on="1"/>
        <pt x="538" y="-614" on="0"/>
        <pt x="293" y="-800" on="0"/>
        <pt x="76" y="-800" on="1"/>
        <pt x="-81" y="-800" on="0"/>
        <pt x="-263" y="-682" on="0"/>
        <pt x="-263" y="-574" on="1"/>
        <pt x="-263" y="-495" on="0"/>
        <pt x="-162" y="-393" on="0"/>
        <pt x="-5" y="-344" on="1"/>
        <pt x="55" y="-325" on="0"/>
        <pt x="117" y="-278" on="0"/>
        <pt x="128" y="-243" on="1"/>
        <pt x="112" y="-241" on="0"/>
        <pt x="71" y="-241" on="1"/>
        <pt x="16" y="-241" on="0"/>
        <pt x="-50" y="-271" on="0"/>
        <pt x="-50" y="-296" on="1"/>
        <pt x="-50" y="-307" on="0"/>
        <pt x="-48" y="-316" on="1"/>
      </contour>
      <contour>
        <pt x="301" y="-311" on="1"/>
        <pt x="276" y="-374" on="0"/>
        <pt x="158" y="-467" on="0"/>
        <pt x="65" y="-497" on="1"/>
        <pt x="-24" y="-525" on="0"/>
        <pt x="-65" y="-548" on="0"/>
        <pt x="-65" y="-570" on="1"/>
        <pt x="-65" y="-623" on="0"/>
        <pt x="80" y="-623" on="1"/>
        <pt x="206" y="-623" on="0"/>
        <pt x="341" y="-532" on="0"/>
        <pt x="341" y="-446" on="1"/>
        <pt x="341" y="-406" on="0"/>
        <pt x="321" y="-339" on="0"/>
      </contour>
    </TTGlyph>
    <TTGlyph name="glyph00129" xMin="-792" yMin="-843" xMax="356" yMax="-53">
      <contour>
        <pt x="180" y="-53" on="1"/>
        <pt x="268" y="-178" on="0"/>
        <pt x="356" y="-451" on="0"/>
        <pt x="356" y="-613" on="1"/>
        <pt x="356" y="-748" on="0"/>
        <pt x="329" y="-843" on="1"/>
        <pt x="151" y="-811" on="1"/>
        <pt x="180" y="-712" on="0"/>
        <pt x="180" y="-624" on="1"/>
        <pt x="180" y="-607" on="1"/>
        <pt x="151" y="-641" on="0"/>
        <pt x="64" y="-675" on="0"/>
        <pt x="7" y="-675" on="1"/>
        <pt x="-66" y="-675" on="0"/>
        <pt x="-174" y="-622" on="0"/>
        <pt x="-219" y="-571" on="1"/>
        <pt x="-283" y="-631" on="0"/>
        <pt x="-405" y="-675" on="0"/>
        <pt x="-495" y="-675" on="1"/>
        <pt x="-635" y="-675" on="0"/>
        <pt x="-792" y="-531" on="0"/>
        <pt x="-792" y="-403" on="1"/>
        <pt x="-792" y="-293" on="0"/>
        <pt x="-659" y="-164" on="0"/>
        <pt x="-551" y="-164" on="1"/>
        <pt x="-458" y="-164" on="0"/>
        <pt x="-359" y="-253" on="0"/>
        <pt x="-359" y="-336" on="1"/>
        <pt x="-359" y="-380" on="0"/>
        <pt x="-381" y="-415" on="1"/>
        <pt x="-524" y="-405" on="1"/>
        <pt x="-518" y="-393" on="0"/>
        <pt x="-518" y="-373" on="1"/>
        <pt x="-518" y="-327" on="0"/>
        <pt x="-558" y="-327" on="1"/>
        <pt x="-582" y="-327" on="0"/>
        <pt x="-612" y="-365" on="0"/>
        <pt x="-612" y="-400" on="1"/>
        <pt x="-612" y="-496" on="0"/>
        <pt x="-474" y="-496" on="1"/>
        <pt x="-326" y="-496" on="0"/>
        <pt x="-313" y="-375" on="1"/>
        <pt x="-126" y="-375" on="1"/>
        <pt x="-103" y="-496" on="0"/>
        <pt x="5" y="-496" on="1"/>
        <pt x="58" y="-496" on="0"/>
        <pt x="115" y="-433" on="0"/>
        <pt x="115" y="-379" on="1"/>
        <pt x="115" y="-261" on="0"/>
        <pt x="8" y="-155" on="1"/>
      </contour>
    </TTGlyph>
    <TTGlyph name="glyph00130" xMin="-757" yMin="-701" xMax="365" yMax="161">
      <contour>
        <pt x="-489" y="-625" on="1"/>
        <pt x="-679" y="-701" on="1"/>
        <pt x="-713" y="-649" on="0"/>
        <pt x="-757" y="-507" on="0"/>
        <pt x="-757" y="-449" on="1"/>
        <pt x="-757" y="-324" on="0"/>
        <pt x="-603" y="-179" on="0"/>
        <pt x="-467" y="-179" on="1"/>
        <pt x="-380" y="-179" on="0"/>
        <pt x="-249" y="-264" on="0"/>
        <pt x="-164" y="-372" on="1"/>
        <pt x="-110" y="-441" on="0"/>
        <pt x="-25" y="-506" on="0"/>
        <pt x="28" y="-506" on="1"/>
        <pt x="96" y="-506" on="0"/>
        <pt x="159" y="-414" on="0"/>
        <pt x="159" y="-320" on="1"/>
        <pt x="159" y="-220" on="0"/>
        <pt x="82" y="-15" on="0"/>
        <pt x="13" y="76" on="1"/>
        <pt x="194" y="161" on="1"/>
        <pt x="274" y="54" on="0"/>
        <pt x="365" y="-201" on="0"/>
        <pt x="365" y="-322" on="1"/>
        <pt x="365" y="-504" on="0"/>
        <pt x="196" y="-690" on="0"/>
        <pt x="32" y="-690" on="1"/>
        <pt x="-81" y="-690" on="0"/>
        <pt x="-246" y="-608" on="0"/>
        <pt x="-345" y="-471" on="1"/>
        <pt x="-393" y="-405" on="0"/>
        <pt x="-445" y="-362" on="0"/>
        <pt x="-477" y="-362" on="1"/>
        <pt x="-514" y="-362" on="0"/>
        <pt x="-553" y="-405" on="0"/>
        <pt x="-553" y="-441" on="1"/>
        <pt x="-553" y="-484" on="0"/>
        <pt x="-519" y="-573" on="0"/>
      </contour>
    </TTGlyph>
    <TTGlyph name="glyph00131" xMin="-774" yMin="-680" xMax="310" yMax="-107">
      <contour>
        <pt x="-235" y="-589" on="1"/>
        <pt x="-319" y="-680" on="0"/>
        <pt x="-475" y="-680" on="1"/>
        <pt x="-617" y="-680" on="0"/>
        <pt x="-774" y="-525" on="0"/>
        <pt x="-774" y="-392" on="1"/>
        <pt x="-774" y="-259" on="0"/>
        <pt x="-610" y="-107" on="0"/>
        <pt x="-465" y="-107" on="1"/>
        <pt x="-318" y="-107" on="0"/>
        <pt x="-229" y="-197" on="1"/>
        <pt x="-146" y="-107" on="0"/>
        <pt x="11" y="-107" on="1"/>
        <pt x="153" y="-107" on="0"/>
        <pt x="310" y="-262" on="0"/>
        <pt x="310" y="-395" on="1"/>
        <pt x="310" y="-529" on="0"/>
        <pt x="147" y="-680" on="0"/>
        <pt x="1" y="-680" on="1"/>
        <pt x="-148" y="-680" on="0"/>
      </contour>
      <contour>
        <pt x="-446" y="-286" on="1"/>
        <pt x="-508" y="-286" on="0"/>
        <pt x="-575" y="-340" on="0"/>
        <pt x="-575" y="-392" on="1"/>
        <pt x="-575" y="-445" on="0"/>
        <pt x="-510" y="-501" on="0"/>
        <pt x="-454" y="-501" on="1"/>
        <pt x="-390" y="-501" on="0"/>
        <pt x="-320" y="-443" on="0"/>
        <pt x="-320" y="-395" on="1"/>
        <pt x="-320" y="-341" on="0"/>
        <pt x="-387" y="-286" on="0"/>
      </contour>
      <contour>
        <pt x="-18" y="-501" on="1"/>
        <pt x="48" y="-501" on="0"/>
        <pt x="111" y="-444" on="0"/>
        <pt x="111" y="-395" on="1"/>
        <pt x="111" y="-343" on="0"/>
        <pt x="47" y="-286" on="0"/>
        <pt x="-10" y="-286" on="1"/>
        <pt x="-74" y="-286" on="0"/>
        <pt x="-144" y="-344" on="0"/>
        <pt x="-144" y="-392" on="1"/>
        <pt x="-144" y="-446" on="0"/>
        <pt x="-77" y="-501" on="0"/>
      </contour>
    </TTGlyph>
    <TTGlyph name="glyph00132" xMin="-852" yMin="-770" xMax="312" yMax="-91">
      <contour>
        <pt x="-269" y="-666" on="1"/>
        <pt x="-323" y="-718" on="0"/>
        <pt x="-453" y="-770" on="0"/>
        <pt x="-544" y="-770" on="1"/>
        <pt x="-687" y="-770" on="0"/>
        <pt x="-852" y="-591" on="0"/>
        <pt x="-852" y="-441" on="1"/>
        <pt x="-852" y="-278" on="0"/>
        <pt x="-676" y="-91" on="0"/>
        <pt x="-526" y="-91" on="1"/>
        <pt x="-422" y="-91" on="0"/>
        <pt x="-302" y="-202" on="0"/>
        <pt x="-302" y="-293" on="1"/>
        <pt x="-302" y="-377" on="0"/>
        <pt x="-433" y="-483" on="0"/>
        <pt x="-545" y="-483" on="1"/>
        <pt x="-608" y="-483" on="0"/>
        <pt x="-665" y="-465" on="1"/>
        <pt x="-660" y="-528" on="0"/>
        <pt x="-588" y="-591" on="0"/>
        <pt x="-520" y="-591" on="1"/>
        <pt x="-395" y="-591" on="0"/>
        <pt x="-363" y="-485" on="1"/>
        <pt x="-176" y="-485" on="1"/>
        <pt x="-136" y="-591" on="0"/>
        <pt x="-19" y="-591" on="1"/>
        <pt x="47" y="-591" on="0"/>
        <pt x="119" y="-528" on="0"/>
        <pt x="125" y="-465" on="1"/>
        <pt x="68" y="-483" on="0"/>
        <pt x="5" y="-483" on="1"/>
        <pt x="-109" y="-483" on="0"/>
        <pt x="-238" y="-378" on="0"/>
        <pt x="-238" y="-293" on="1"/>
        <pt x="-238" y="-202" on="0"/>
        <pt x="-118" y="-91" on="0"/>
        <pt x="-14" y="-91" on="1"/>
        <pt x="136" y="-91" on="0"/>
        <pt x="312" y="-278" on="0"/>
        <pt x="312" y="-441" on="1"/>
        <pt x="312" y="-591" on="0"/>
        <pt x="146" y="-770" on="0"/>
        <pt x="4" y="-770" on="1"/>
        <pt x="-82" y="-770" on="0"/>
        <pt x="-213" y="-719" on="0"/>
      </contour>
      <contour>
        <pt x="-650" y="-331" on="1"/>
        <pt x="-612" y="-348" on="0"/>
        <pt x="-569" y="-348" on="1"/>
        <pt x="-474" y="-348" on="0"/>
        <pt x="-474" y="-289" on="1"/>
        <pt x="-474" y="-268" on="0"/>
        <pt x="-504" y="-244" on="0"/>
        <pt x="-531" y="-244" on="1"/>
        <pt x="-574" y="-244" on="0"/>
        <pt x="-634" y="-287" on="0"/>
      </contour>
      <contour>
        <pt x="110" y="-331" on="1"/>
        <pt x="93" y="-287" on="0"/>
        <pt x="32" y="-244" on="0"/>
        <pt x="-12" y="-244" on="1"/>
        <pt x="-36" y="-244" on="0"/>
        <pt x="-66" y="-268" on="0"/>
        <pt x="-66" y="-289" on="1"/>
        <pt x="-66" y="-348" on="0"/>
        <pt x="34" y="-348" on="1"/>
        <pt x="74" y="-348" on="0"/>
      </contour>
    </TTGlyph>
    <TTGlyph name="glyph00133" xMin="-774" yMin="-1033" xMax="302" yMax="-91">
      <contour>
        <pt x="-225" y="-666" on="1"/>
        <pt x="-275" y="-716" on="0"/>
        <pt x="-396" y="-770" on="0"/>
        <pt x="-492" y="-770" on="1"/>
        <pt x="-603" y="-770" on="0"/>
        <pt x="-729" y="-670" on="0"/>
        <pt x="-729" y="-592" on="1"/>
        <pt x="-729" y="-504" on="0"/>
        <pt x="-639" y="-406" on="0"/>
        <pt x="-532" y="-352" on="1"/>
        <pt x="-467" y="-319" on="0"/>
        <pt x="-443" y="-295" on="0"/>
        <pt x="-443" y="-279" on="1"/>
        <pt x="-443" y="-247" on="0"/>
        <pt x="-510" y="-247" on="1"/>
        <pt x="-587" y="-247" on="0"/>
        <pt x="-587" y="-292" on="1"/>
        <pt x="-587" y="-312" on="0"/>
        <pt x="-576" y="-334" on="1"/>
        <pt x="-742" y="-387" on="1"/>
        <pt x="-774" y="-326" on="0"/>
        <pt x="-774" y="-259" on="1"/>
        <pt x="-774" y="-181" on="0"/>
        <pt x="-633" y="-91" on="0"/>
        <pt x="-503" y="-91" on="1"/>
        <pt x="-418" y="-91" on="0"/>
        <pt x="-305" y="-134" on="0"/>
        <pt x="-276" y="-177" on="1"/>
        <pt x="-188" y="-265" on="0"/>
        <pt x="-80" y="-265" on="1"/>
        <pt x="-31" y="-265" on="0"/>
        <pt x="26" y="-225" on="0"/>
        <pt x="26" y="-189" on="1"/>
        <pt x="26" y="-162" on="0"/>
        <pt x="13" y="-131" on="1"/>
        <pt x="188" y="-91" on="1"/>
        <pt x="218" y="-141" on="0"/>
        <pt x="218" y="-221" on="1"/>
        <pt x="218" y="-314" on="0"/>
        <pt x="81" y="-418" on="0"/>
        <pt x="-41" y="-418" on="1"/>
        <pt x="-185" y="-418" on="0"/>
        <pt x="-276" y="-359" on="1"/>
        <pt x="-308" y="-414" on="0"/>
        <pt x="-437" y="-478" on="1"/>
        <pt x="-499" y="-508" on="0"/>
        <pt x="-531" y="-537" on="0"/>
        <pt x="-531" y="-554" on="1"/>
        <pt x="-531" y="-591" on="0"/>
        <pt x="-469" y="-591" on="1"/>
        <pt x="-354" y="-591" on="0"/>
        <pt x="-319" y="-493" on="1"/>
        <pt x="-132" y="-493" on="1"/>
        <pt x="-113" y="-549" on="0"/>
        <pt x="-51" y="-591" on="0"/>
        <pt x="3" y="-591" on="1"/>
        <pt x="51" y="-591" on="0"/>
        <pt x="103" y="-552" on="0"/>
        <pt x="103" y="-517" on="1"/>
        <pt x="103" y="-474" on="0"/>
        <pt x="80" y="-442" on="1"/>
        <pt x="248" y="-378" on="1"/>
        <pt x="302" y="-446" on="0"/>
        <pt x="302" y="-550" on="1"/>
        <pt x="302" y="-655" on="0"/>
        <pt x="157" y="-770" on="0"/>
        <pt x="23" y="-770" on="1"/>
        <pt x="-56" y="-770" on="0"/>
        <pt x="-170" y="-724" on="0"/>
      </contour>
      <contour>
        <pt x="-395" y="-815" on="1"/>
        <pt x="-342" y="-815" on="0"/>
        <pt x="-275" y="-879" on="0"/>
        <pt x="-275" y="-924" on="1"/>
        <pt x="-275" y="-972" on="0"/>
        <pt x="-342" y="-1033" on="0"/>
        <pt x="-395" y="-1033" on="1"/>
        <pt x="-451" y="-1033" on="0"/>
        <pt x="-515" y="-972" on="0"/>
        <pt x="-515" y="-924" on="1"/>
        <pt x="-515" y="-878" on="0"/>
        <pt x="-448" y="-815" on="0"/>
      </contour>
      <contour>
        <pt x="-55" y="-815" on="1"/>
        <pt x="-2" y="-815" on="0"/>
        <pt x="66" y="-878" on="0"/>
        <pt x="66" y="-924" on="1"/>
        <pt x="66" y="-972" on="0"/>
        <pt x="-1" y="-1033" on="0"/>
        <pt x="-55" y="-1033" on="1"/>
        <pt x="-110" y="-1033" on="0"/>
        <pt x="-174" y="-972" on="0"/>
        <pt x="-174" y="-924" on="1"/>
        <pt x="-174" y="-878" on="0"/>
        <pt x="-108" y="-815" on="0"/>
      </contour>
    </TTGlyph>
    <TTGlyph name="glyph00134" xMin="-778" yMin="-953" xMax="365" yMax="161">
      <contour>
        <pt x="-205" y="-586" on="1"/>
        <pt x="-269" y="-646" on="0"/>
        <pt x="-391" y="-690" on="0"/>
        <pt x="-481" y="-690" on="1"/>
        <pt x="-621" y="-690" on="0"/>
        <pt x="-778" y="-546" on="0"/>
        <pt x="-778" y="-418" on="1"/>
        <pt x="-778" y="-308" on="0"/>
        <pt x="-645" y="-179" on="0"/>
        <pt x="-537" y="-179" on="1"/>
        <pt x="-444" y="-179" on="0"/>
        <pt x="-345" y="-268" on="0"/>
        <pt x="-345" y="-351" on="1"/>
        <pt x="-345" y="-395" on="0"/>
        <pt x="-367" y="-430" on="1"/>
        <pt x="-510" y="-420" on="1"/>
        <pt x="-504" y="-408" on="0"/>
        <pt x="-504" y="-388" on="1"/>
        <pt x="-504" y="-342" on="0"/>
        <pt x="-544" y="-342" on="1"/>
        <pt x="-568" y="-342" on="0"/>
        <pt x="-598" y="-380" on="0"/>
        <pt x="-598" y="-415" on="1"/>
        <pt x="-598" y="-511" on="0"/>
        <pt x="-460" y="-511" on="1"/>
        <pt x="-312" y="-511" on="0"/>
        <pt x="-299" y="-390" on="1"/>
        <pt x="-112" y="-390" on="1"/>
        <pt x="-101" y="-454" on="0"/>
        <pt x="-42" y="-511" on="0"/>
        <pt x="21" y="-511" on="1"/>
        <pt x="86" y="-511" on="0"/>
        <pt x="159" y="-406" on="0"/>
        <pt x="159" y="-309" on="1"/>
        <pt x="159" y="-216" on="0"/>
        <pt x="81" y="-14" on="0"/>
        <pt x="13" y="76" on="1"/>
        <pt x="194" y="161" on="1"/>
        <pt x="274" y="54" on="0"/>
        <pt x="365" y="-198" on="0"/>
        <pt x="365" y="-315" on="1"/>
        <pt x="365" y="-495" on="0"/>
        <pt x="190" y="-690" on="0"/>
        <pt x="35" y="-690" on="1"/>
        <pt x="-38" y="-690" on="0"/>
        <pt x="-146" y="-645" on="0"/>
      </contour>
      <contour>
        <pt x="-320" y="-867" on="1"/>
        <pt x="-303" y="-667" on="1"/>
        <pt x="-109" y="-667" on="1"/>
        <pt x="-93" y="-867" on="1"/>
      </contour>
      <contour>
        <pt x="-489" y="-735" on="1"/>
        <pt x="-436" y="-735" on="0"/>
        <pt x="-369" y="-799" on="0"/>
        <pt x="-369" y="-844" on="1"/>
        <pt x="-369" y="-892" on="0"/>
        <pt x="-436" y="-953" on="0"/>
        <pt x="-489" y="-953" on="1"/>
        <pt x="-545" y="-953" on="0"/>
        <pt x="-609" y="-892" on="0"/>
        <pt x="-609" y="-844" on="1"/>
        <pt x="-609" y="-798" on="0"/>
        <pt x="-542" y="-735" on="0"/>
      </contour>
      <contour>
        <pt x="76" y="-735" on="1"/>
        <pt x="129" y="-735" on="0"/>
        <pt x="197" y="-798" on="0"/>
        <pt x="197" y="-844" on="1"/>
        <pt x="197" y="-892" on="0"/>
        <pt x="130" y="-953" on="0"/>
        <pt x="76" y="-953" on="1"/>
        <pt x="21" y="-953" on="0"/>
        <pt x="-43" y="-892" on="0"/>
        <pt x="-43" y="-844" on="1"/>
        <pt x="-43" y="-798" on="0"/>
        <pt x="23" y="-735" on="0"/>
      </contour>
    </TTGlyph>
    <TTGlyph name="glyph00135" xMin="72" yMin="-24" xMax="1231" yMax="1130">
      <contour>
        <pt x="836" y="873" on="1"/>
        <pt x="849" y="844" on="0"/>
        <pt x="849" y="823" on="1"/>
        <pt x="849" y="771" on="0"/>
        <pt x="823" y="733" on="1"/>
        <pt x="1231" y="733" on="1"/>
        <pt x="1231" y="524" on="1"/>
        <pt x="1085" y="526" on="1"/>
        <pt x="1193" y="442" on="0"/>
        <pt x="1193" y="303" on="1"/>
        <pt x="1193" y="152" on="0"/>
        <pt x="911" y="-24" on="0"/>
        <pt x="647" y="-24" on="1"/>
        <pt x="396" y="-24" on="0"/>
        <pt x="118" y="155" on="0"/>
        <pt x="118" y="298" on="1"/>
        <pt x="118" y="375" on="0"/>
        <pt x="167" y="481" on="0"/>
        <pt x="220" y="526" on="1"/>
        <pt x="73" y="524" on="1"/>
        <pt x="73" y="733" on="1"/>
        <pt x="501" y="733" on="1"/>
        <pt x="588" y="770" on="0"/>
        <pt x="588" y="825" on="1"/>
        <pt x="588" y="850" on="0"/>
        <pt x="574" y="873" on="1"/>
        <pt x="72" y="873" on="1"/>
        <pt x="72" y="1130" on="1"/>
        <pt x="958" y="1130" on="1"/>
        <pt x="958" y="873" on="1"/>
      </contour>
      <contour>
        <pt x="655" y="554" on="1"/>
        <pt x="539" y="554" on="0"/>
        <pt x="415" y="466" on="0"/>
        <pt x="415" y="391" on="1"/>
        <pt x="415" y="314" on="0"/>
        <pt x="539" y="230" on="0"/>
        <pt x="655" y="230" on="1"/>
        <pt x="773" y="230" on="0"/>
        <pt x="896" y="316" on="0"/>
        <pt x="896" y="391" on="1"/>
        <pt x="896" y="467" on="0"/>
        <pt x="772" y="554" on="0"/>
      </contour>
    </TTGlyph>
    <TTGlyph name="glyph00136" xMin="46" yMin="-24" xMax="1848" yMax="1154">
      <contour>
        <pt x="1024" y="310" on="1"/>
        <pt x="1092" y="270" on="0"/>
        <pt x="1216" y="235" on="0"/>
        <pt x="1300" y="235" on="1"/>
        <pt x="1548" y="235" on="0"/>
        <pt x="1548" y="476" on="1"/>
        <pt x="1548" y="719" on="0"/>
        <pt x="1271" y="873" on="1"/>
        <pt x="1137" y="873" on="1"/>
        <pt x="1137" y="1130" on="1"/>
        <pt x="1616" y="1130" on="1"/>
        <pt x="1616" y="920" on="1"/>
        <pt x="1733" y="829" on="0"/>
        <pt x="1848" y="606" on="0"/>
        <pt x="1848" y="465" on="1"/>
        <pt x="1848" y="227" on="0"/>
        <pt x="1584" y="-24" on="0"/>
        <pt x="1336" y="-24" on="1"/>
        <pt x="1182" y="-24" on="0"/>
        <pt x="981" y="35" on="0"/>
        <pt x="865" y="112" on="1"/>
        <pt x="785" y="44" on="0"/>
        <pt x="575" y="-24" on="0"/>
        <pt x="445" y="-24" on="1"/>
        <pt x="250" y="-24" on="0"/>
        <pt x="46" y="132" on="0"/>
        <pt x="46" y="283" on="1"/>
        <pt x="46" y="404" on="0"/>
        <pt x="229" y="552" on="0"/>
        <pt x="395" y="552" on="1"/>
        <pt x="504" y="552" on="0"/>
        <pt x="673" y="504" on="0"/>
        <pt x="773" y="445" on="1"/>
        <pt x="783" y="482" on="0"/>
        <pt x="794" y="565" on="0"/>
        <pt x="794" y="610" on="1"/>
        <pt x="794" y="765" on="0"/>
        <pt x="682" y="925" on="0"/>
        <pt x="572" y="925" on="1"/>
        <pt x="513" y="925" on="0"/>
        <pt x="428" y="870" on="0"/>
        <pt x="428" y="824" on="1"/>
        <pt x="428" y="787" on="0"/>
        <pt x="444" y="768" on="1"/>
        <pt x="452" y="810" on="0"/>
        <pt x="513" y="851" on="0"/>
        <pt x="556" y="851" on="1"/>
        <pt x="602" y="851" on="0"/>
        <pt x="664" y="787" on="0"/>
        <pt x="664" y="740" on="1"/>
        <pt x="664" y="664" on="0"/>
        <pt x="567" y="582" on="0"/>
        <pt x="467" y="582" on="1"/>
        <pt x="332" y="582" on="0"/>
        <pt x="179" y="723" on="0"/>
        <pt x="179" y="851" on="1"/>
        <pt x="179" y="991" on="0"/>
        <pt x="386" y="1154" on="0"/>
        <pt x="562" y="1154" on="1"/>
        <pt x="814" y="1154" on="0"/>
        <pt x="1090" y="866" on="0"/>
        <pt x="1090" y="610" on="1"/>
        <pt x="1090" y="525" on="0"/>
        <pt x="1057" y="375" on="0"/>
      </contour>
      <contour>
        <pt x="649" y="261" on="1"/>
        <pt x="592" y="294" on="0"/>
        <pt x="482" y="336" on="0"/>
        <pt x="425" y="336" on="1"/>
        <pt x="326" y="336" on="0"/>
        <pt x="326" y="276" on="1"/>
        <pt x="326" y="243" on="0"/>
        <pt x="394" y="209" on="0"/>
        <pt x="455" y="209" on="1"/>
        <pt x="513" y="209" on="0"/>
        <pt x="610" y="235" on="0"/>
      </contour>
    </TTGlyph>
    <TTGlyph name="glyph00137" xMin="87" yMin="0" xMax="1341" yMax="1130">
      <contour>
        <pt x="1096" y="1130" on="1"/>
        <pt x="1096" y="873" on="1"/>
        <pt x="1109" y="873" on="1"/>
        <pt x="1222" y="795" on="0"/>
        <pt x="1341" y="493" on="0"/>
        <pt x="1341" y="234" on="1"/>
        <pt x="1341" y="0" on="1"/>
        <pt x="1026" y="0" on="1"/>
        <pt x="1026" y="163" on="1"/>
        <pt x="1026" y="353" on="0"/>
        <pt x="996" y="597" on="0"/>
        <pt x="907" y="787" on="0"/>
        <pt x="793" y="873" on="0"/>
        <pt x="719" y="873" on="1"/>
        <pt x="662" y="873" on="0"/>
        <pt x="574" y="830" on="0"/>
        <pt x="499" y="740" on="0"/>
        <pt x="433" y="562" on="0"/>
        <pt x="409" y="336" on="0"/>
        <pt x="409" y="169" on="1"/>
        <pt x="409" y="0" on="1"/>
        <pt x="94" y="0" on="1"/>
        <pt x="94" y="229" on="1"/>
        <pt x="94" y="485" on="0"/>
        <pt x="212" y="793" on="0"/>
        <pt x="328" y="873" on="1"/>
        <pt x="87" y="873" on="1"/>
        <pt x="87" y="1130" on="1"/>
      </contour>
    </TTGlyph>
    <TTGlyph name="glyph00138" xMin="59" yMin="-294" xMax="2155" yMax="1155">
      <contour>
        <pt x="924" y="135" on="1"/>
        <pt x="839" y="52" on="0"/>
        <pt x="637" y="-24" on="0"/>
        <pt x="487" y="-24" on="1"/>
        <pt x="291" y="-24" on="0"/>
        <pt x="59" y="185" on="0"/>
        <pt x="59" y="357" on="1"/>
        <pt x="59" y="506" on="0"/>
        <pt x="257" y="690" on="0"/>
        <pt x="418" y="690" on="1"/>
        <pt x="557" y="690" on="0"/>
        <pt x="708" y="575" on="0"/>
        <pt x="708" y="467" on="1"/>
        <pt x="708" y="401" on="0"/>
        <pt x="676" y="341" on="1"/>
        <pt x="471" y="358" on="1"/>
        <pt x="479" y="374" on="0"/>
        <pt x="479" y="403" on="1"/>
        <pt x="479" y="468" on="0"/>
        <pt x="409" y="468" on="1"/>
        <pt x="367" y="468" on="0"/>
        <pt x="314" y="415" on="0"/>
        <pt x="314" y="369" on="1"/>
        <pt x="314" y="235" on="0"/>
        <pt x="539" y="235" on="1"/>
        <pt x="770" y="235" on="0"/>
        <pt x="790" y="450" on="1"/>
        <pt x="1059" y="450" on="1"/>
        <pt x="1066" y="347" on="0"/>
        <pt x="1164" y="235" on="0"/>
        <pt x="1242" y="235" on="1"/>
        <pt x="1317" y="235" on="0"/>
        <pt x="1394" y="307" on="0"/>
        <pt x="1394" y="372" on="1"/>
        <pt x="1394" y="446" on="0"/>
        <pt x="1335" y="571" on="0"/>
        <pt x="1259" y="651" on="1"/>
        <pt x="1492" y="793" on="1"/>
        <pt x="1568" y="685" on="0"/>
        <pt x="1672" y="614" on="0"/>
        <pt x="1748" y="614" on="1"/>
        <pt x="1800" y="614" on="0"/>
        <pt x="1860" y="679" on="0"/>
        <pt x="1860" y="731" on="1"/>
        <pt x="1860" y="807" on="0"/>
        <pt x="1814" y="873" on="1"/>
        <pt x="59" y="873" on="1"/>
        <pt x="59" y="1130" on="1"/>
        <pt x="1891" y="1130" on="1"/>
        <pt x="1917" y="1155" on="1"/>
        <pt x="2032" y="1062" on="0"/>
        <pt x="2155" y="836" on="0"/>
        <pt x="2155" y="717" on="1"/>
        <pt x="2155" y="557" on="0"/>
        <pt x="1965" y="386" on="0"/>
        <pt x="1805" y="386" on="1"/>
        <pt x="1735" y="386" on="0"/>
        <pt x="1691" y="401" on="1"/>
        <pt x="1693" y="380" on="0"/>
        <pt x="1693" y="358" on="1"/>
        <pt x="1693" y="180" on="0"/>
        <pt x="1473" y="-24" on="0"/>
        <pt x="1299" y="-24" on="1"/>
        <pt x="1175" y="-24" on="0"/>
        <pt x="996" y="52" on="0"/>
      </contour>
      <contour>
        <pt x="912" y="837" on="1"/>
        <pt x="982" y="837" on="0"/>
        <pt x="1074" y="750" on="0"/>
        <pt x="1074" y="685" on="1"/>
        <pt x="1074" y="620" on="0"/>
        <pt x="984" y="534" on="0"/>
        <pt x="912" y="534" on="1"/>
        <pt x="840" y="534" on="0"/>
        <pt x="753" y="618" on="0"/>
        <pt x="753" y="685" on="1"/>
        <pt x="753" y="751" on="0"/>
        <pt x="843" y="837" on="0"/>
      </contour>
      <contour>
        <pt x="768" y="-294" on="1"/>
        <pt x="794" y="16" on="1"/>
        <pt x="1052" y="16" on="1"/>
        <pt x="1078" y="-294" on="1"/>
      </contour>
    </TTGlyph>
    <TTGlyph name="glyph00139" xMin="50" yMin="-24" xMax="1753" yMax="1154">
      <contour>
        <pt x="900" y="140" on="1"/>
        <pt x="831" y="64" on="0"/>
        <pt x="638" y="-24" on="0"/>
        <pt x="477" y="-24" on="1"/>
        <pt x="303" y="-24" on="0"/>
        <pt x="100" y="151" on="0"/>
        <pt x="100" y="284" on="1"/>
        <pt x="100" y="378" on="0"/>
        <pt x="157" y="505" on="0"/>
        <pt x="286" y="624" on="0"/>
        <pt x="420" y="703" on="1"/>
        <pt x="506" y="755" on="0"/>
        <pt x="559" y="818" on="0"/>
        <pt x="559" y="854" on="1"/>
        <pt x="559" y="889" on="0"/>
        <pt x="503" y="927" on="0"/>
        <pt x="450" y="927" on="1"/>
        <pt x="392" y="927" on="0"/>
        <pt x="332" y="879" on="0"/>
        <pt x="332" y="833" on="1"/>
        <pt x="332" y="784" on="0"/>
        <pt x="359" y="733" on="1"/>
        <pt x="111" y="644" on="1"/>
        <pt x="50" y="747" on="0"/>
        <pt x="50" y="863" on="1"/>
        <pt x="50" y="1000" on="0"/>
        <pt x="262" y="1154" on="0"/>
        <pt x="460" y="1154" on="1"/>
        <pt x="651" y="1154" on="0"/>
        <pt x="852" y="992" on="0"/>
        <pt x="852" y="865" on="1"/>
        <pt x="852" y="747" on="0"/>
        <pt x="720" y="589" on="0"/>
        <pt x="543" y="481" on="1"/>
        <pt x="461" y="430" on="0"/>
        <pt x="399" y="370" on="0"/>
        <pt x="399" y="326" on="1"/>
        <pt x="399" y="235" on="0"/>
        <pt x="536" y="235" on="1"/>
        <pt x="639" y="235" on="0"/>
        <pt x="762" y="347" on="0"/>
        <pt x="770" y="450" on="1"/>
        <pt x="1039" y="450" on="1"/>
        <pt x="1051" y="342" on="0"/>
        <pt x="1157" y="235" on="0"/>
        <pt x="1259" y="235" on="1"/>
        <pt x="1336" y="235" on="0"/>
        <pt x="1421" y="301" on="0"/>
        <pt x="1421" y="362" on="1"/>
        <pt x="1421" y="470" on="0"/>
        <pt x="1303" y="524" on="1"/>
        <pt x="1023" y="524" on="1"/>
        <pt x="1023" y="733" on="1"/>
        <pt x="1240" y="733" on="1"/>
        <pt x="1327" y="770" on="0"/>
        <pt x="1327" y="825" on="1"/>
        <pt x="1327" y="850" on="0"/>
        <pt x="1313" y="873" on="1"/>
        <pt x="1022" y="873" on="1"/>
        <pt x="1022" y="1130" on="1"/>
        <pt x="1545" y="1130" on="1"/>
        <pt x="1545" y="919" on="1"/>
        <pt x="1567" y="897" on="0"/>
        <pt x="1588" y="845" on="0"/>
        <pt x="1588" y="823" on="1"/>
        <pt x="1588" y="771" on="0"/>
        <pt x="1562" y="733" on="1"/>
        <pt x="1753" y="733" on="1"/>
        <pt x="1753" y="524" on="1"/>
        <pt x="1720" y="524" on="1"/>
        <pt x="1667" y="524" on="0"/>
        <pt x="1641" y="528" on="1"/>
        <pt x="1720" y="449" on="0"/>
        <pt x="1720" y="320" on="1"/>
        <pt x="1720" y="156" on="0"/>
        <pt x="1490" y="-24" on="0"/>
        <pt x="1283" y="-24" on="1"/>
        <pt x="1155" y="-24" on="0"/>
        <pt x="969" y="55" on="0"/>
      </contour>
    </TTGlyph>
    <TTGlyph name="glyph00140" xMin="70" yMin="-294" xMax="1817" yMax="1154">
      <contour>
        <pt x="358" y="529" on="1"/>
        <pt x="360" y="382" on="0"/>
        <pt x="473" y="235" on="0"/>
        <pt x="584" y="235" on="1"/>
        <pt x="685" y="235" on="0"/>
        <pt x="805" y="336" on="0"/>
        <pt x="826" y="450" on="1"/>
        <pt x="1095" y="450" on="1"/>
        <pt x="1102" y="346" on="0"/>
        <pt x="1218" y="235" on="0"/>
        <pt x="1309" y="235" on="1"/>
        <pt x="1405" y="235" on="0"/>
        <pt x="1517" y="363" on="0"/>
        <pt x="1517" y="476" on="1"/>
        <pt x="1517" y="718" on="0"/>
        <pt x="1242" y="873" on="1"/>
        <pt x="1080" y="873" on="1"/>
        <pt x="1080" y="1130" on="1"/>
        <pt x="1545" y="1130" on="1"/>
        <pt x="1545" y="942" on="1"/>
        <pt x="1817" y="747" on="0"/>
        <pt x="1817" y="465" on="1"/>
        <pt x="1817" y="231" on="0"/>
        <pt x="1565" y="-24" on="0"/>
        <pt x="1330" y="-24" on="1"/>
        <pt x="1208" y="-24" on="0"/>
        <pt x="1030" y="55" on="0"/>
        <pt x="956" y="140" on="1"/>
        <pt x="880" y="57" on="0"/>
        <pt x="680" y="-24" on="0"/>
        <pt x="546" y="-24" on="1"/>
        <pt x="326" y="-24" on="0"/>
        <pt x="70" y="289" on="0"/>
        <pt x="70" y="546" on="1"/>
        <pt x="70" y="832" on="0"/>
        <pt x="351" y="1154" on="0"/>
        <pt x="589" y="1154" on="1"/>
        <pt x="749" y="1154" on="0"/>
        <pt x="940" y="969" on="0"/>
        <pt x="940" y="818" on="1"/>
        <pt x="940" y="664" on="0"/>
        <pt x="743" y="495" on="0"/>
        <pt x="559" y="495" on="1"/>
        <pt x="450" y="495" on="0"/>
      </contour>
      <contour>
        <pt x="381" y="744" on="1"/>
        <pt x="437" y="711" on="0"/>
        <pt x="506" y="711" on="1"/>
        <pt x="589" y="711" on="0"/>
        <pt x="681" y="775" on="0"/>
        <pt x="681" y="831" on="1"/>
        <pt x="681" y="878" on="0"/>
        <pt x="626" y="933" on="0"/>
        <pt x="580" y="933" on="1"/>
        <pt x="508" y="933" on="0"/>
        <pt x="405" y="835" on="0"/>
      </contour>
      <contour>
        <pt x="804" y="-294" on="1"/>
        <pt x="830" y="16" on="1"/>
        <pt x="1088" y="16" on="1"/>
        <pt x="1114" y="-294" on="1"/>
      </contour>
    </TTGlyph>
    <TTGlyph name="glyph00141" xMin="50" yMin="-24" xMax="1720" yMax="1154">
      <contour>
        <pt x="900" y="140" on="1"/>
        <pt x="831" y="64" on="0"/>
        <pt x="638" y="-24" on="0"/>
        <pt x="477" y="-24" on="1"/>
        <pt x="303" y="-24" on="0"/>
        <pt x="100" y="151" on="0"/>
        <pt x="100" y="284" on="1"/>
        <pt x="100" y="378" on="0"/>
        <pt x="157" y="505" on="0"/>
        <pt x="286" y="624" on="0"/>
        <pt x="420" y="703" on="1"/>
        <pt x="506" y="755" on="0"/>
        <pt x="559" y="818" on="0"/>
        <pt x="559" y="854" on="1"/>
        <pt x="559" y="889" on="0"/>
        <pt x="503" y="927" on="0"/>
        <pt x="450" y="927" on="1"/>
        <pt x="392" y="927" on="0"/>
        <pt x="332" y="879" on="0"/>
        <pt x="332" y="833" on="1"/>
        <pt x="332" y="784" on="0"/>
        <pt x="359" y="733" on="1"/>
        <pt x="111" y="644" on="1"/>
        <pt x="50" y="747" on="0"/>
        <pt x="50" y="863" on="1"/>
        <pt x="50" y="1000" on="0"/>
        <pt x="262" y="1154" on="0"/>
        <pt x="460" y="1154" on="1"/>
        <pt x="606" y="1154" on="0"/>
        <pt x="798" y="1056" on="0"/>
        <pt x="835" y="959" on="1"/>
        <pt x="957" y="817" on="0"/>
        <pt x="1128" y="817" on="1"/>
        <pt x="1261" y="817" on="0"/>
        <pt x="1261" y="898" on="1"/>
        <pt x="1261" y="903" on="1"/>
        <pt x="1261" y="906" on="0"/>
        <pt x="1260" y="908" on="1"/>
        <pt x="1014" y="908" on="1"/>
        <pt x="1014" y="1130" on="1"/>
        <pt x="1502" y="1130" on="1"/>
        <pt x="1502" y="1048" on="1"/>
        <pt x="1548" y="964" on="0"/>
        <pt x="1548" y="884" on="1"/>
        <pt x="1548" y="744" on="0"/>
        <pt x="1351" y="595" on="0"/>
        <pt x="1168" y="595" on="1"/>
        <pt x="943" y="595" on="0"/>
        <pt x="808" y="700" on="1"/>
        <pt x="778" y="652" on="0"/>
        <pt x="660" y="554" on="0"/>
        <pt x="543" y="481" on="1"/>
        <pt x="461" y="430" on="0"/>
        <pt x="399" y="370" on="0"/>
        <pt x="399" y="326" on="1"/>
        <pt x="399" y="235" on="0"/>
        <pt x="536" y="235" on="1"/>
        <pt x="639" y="235" on="0"/>
        <pt x="762" y="347" on="0"/>
        <pt x="770" y="450" on="1"/>
        <pt x="1039" y="450" on="1"/>
        <pt x="1050" y="341" on="0"/>
        <pt x="1153" y="235" on="0"/>
        <pt x="1251" y="235" on="1"/>
        <pt x="1331" y="235" on="0"/>
        <pt x="1421" y="311" on="0"/>
        <pt x="1421" y="379" on="1"/>
        <pt x="1421" y="476" on="0"/>
        <pt x="1373" y="538" on="1"/>
        <pt x="1635" y="655" on="1"/>
        <pt x="1676" y="597" on="0"/>
        <pt x="1720" y="441" on="0"/>
        <pt x="1720" y="357" on="1"/>
        <pt x="1720" y="174" on="0"/>
        <pt x="1485" y="-24" on="0"/>
        <pt x="1266" y="-24" on="1"/>
        <pt x="1146" y="-24" on="0"/>
        <pt x="971" y="56" on="0"/>
      </contour>
    </TTGlyph>
    <TTGlyph name="glyph00142" xMin="74" yMin="-294" xMax="2829" yMax="1614">
      <contour>
        <pt x="1193" y="129" on="1"/>
        <pt x="1108" y="52" on="0"/>
        <pt x="866" y="-24" on="0"/>
        <pt x="709" y="-24" on="1"/>
        <pt x="412" y="-24" on="0"/>
        <pt x="74" y="253" on="0"/>
        <pt x="74" y="499" on="1"/>
        <pt x="74" y="749" on="0"/>
        <pt x="266" y="873" on="1"/>
        <pt x="74" y="873" on="1"/>
        <pt x="74" y="1130" on="1"/>
        <pt x="791" y="1130" on="1"/>
        <pt x="898" y="1130" on="0"/>
        <pt x="1007" y="1150" on="0"/>
        <pt x="1058" y="1202" on="0"/>
        <pt x="1058" y="1256" on="1"/>
        <pt x="1058" y="1305" on="0"/>
        <pt x="1010" y="1407" on="0"/>
        <pt x="946" y="1480" on="1"/>
        <pt x="1173" y="1614" on="1"/>
        <pt x="1262" y="1505" on="0"/>
        <pt x="1344" y="1317" on="0"/>
        <pt x="1344" y="1199" on="1"/>
        <pt x="1344" y="1093" on="0"/>
        <pt x="1238" y="939" on="0"/>
        <pt x="1138" y="906" on="1"/>
        <pt x="1243" y="838" on="0"/>
        <pt x="1344" y="639" on="0"/>
        <pt x="1344" y="499" on="1"/>
        <pt x="1344" y="457" on="0"/>
        <pt x="1333" y="376" on="0"/>
        <pt x="1322" y="337" on="1"/>
        <pt x="1371" y="288" on="0"/>
        <pt x="1483" y="235" on="0"/>
        <pt x="1553" y="235" on="1"/>
        <pt x="1665" y="235" on="0"/>
        <pt x="1790" y="362" on="0"/>
        <pt x="1790" y="476" on="1"/>
        <pt x="1790" y="612" on="0"/>
        <pt x="1628" y="823" on="0"/>
        <pt x="1451" y="905" on="1"/>
        <pt x="1607" y="1158" on="1"/>
        <pt x="1842" y="1044" on="0"/>
        <pt x="2089" y="692" on="0"/>
        <pt x="2089" y="472" on="1"/>
        <pt x="2089" y="393" on="0"/>
        <pt x="2074" y="324" on="1"/>
        <pt x="2170" y="235" on="0"/>
        <pt x="2293" y="235" on="1"/>
        <pt x="2405" y="235" on="0"/>
        <pt x="2530" y="362" on="0"/>
        <pt x="2530" y="476" on="1"/>
        <pt x="2530" y="721" on="0"/>
        <pt x="2255" y="873" on="1"/>
        <pt x="2092" y="873" on="1"/>
        <pt x="2092" y="1130" on="1"/>
        <pt x="2552" y="1130" on="1"/>
        <pt x="2552" y="947" on="1"/>
        <pt x="2694" y="845" on="0"/>
        <pt x="2829" y="608" on="0"/>
        <pt x="2829" y="465" on="1"/>
        <pt x="2829" y="235" on="0"/>
        <pt x="2575" y="-24" on="0"/>
        <pt x="2342" y="-24" on="1"/>
        <pt x="2134" y="-24" on="0"/>
        <pt x="1963" y="106" on="1"/>
        <pt x="1899" y="41" on="0"/>
        <pt x="1719" y="-24" on="0"/>
        <pt x="1602" y="-24" on="1"/>
        <pt x="1376" y="-24" on="0"/>
      </contour>
      <contour>
        <pt x="710" y="873" on="1"/>
        <pt x="555" y="873" on="0"/>
        <pt x="373" y="696" on="0"/>
        <pt x="373" y="556" on="1"/>
        <pt x="373" y="409" on="0"/>
        <pt x="553" y="242" on="0"/>
        <pt x="710" y="242" on="1"/>
        <pt x="867" y="242" on="0"/>
        <pt x="1045" y="415" on="0"/>
        <pt x="1045" y="556" on="1"/>
        <pt x="1045" y="703" on="0"/>
        <pt x="865" y="873" on="0"/>
      </contour>
      <contour>
        <pt x="1818" y="-294" on="1"/>
        <pt x="1844" y="16" on="1"/>
        <pt x="2102" y="16" on="1"/>
        <pt x="2128" y="-294" on="1"/>
      </contour>
    </TTGlyph>
    <TTGlyph name="glyph00143" xMin="69" yMin="-24" xMax="1796" yMax="1358">
      <contour>
        <pt x="1158" y="549" on="1"/>
        <pt x="1158" y="771" on="1"/>
        <pt x="1308" y="771" on="1"/>
        <pt x="1370" y="771" on="0"/>
        <pt x="1423" y="802" on="0"/>
        <pt x="1423" y="836" on="1"/>
        <pt x="1423" y="859" on="0"/>
        <pt x="1411" y="873" on="1"/>
        <pt x="1000" y="873" on="1"/>
        <pt x="1000" y="1130" on="1"/>
        <pt x="1549" y="1130" on="1"/>
        <pt x="1549" y="1073" on="1"/>
        <pt x="1723" y="968" on="0"/>
        <pt x="1723" y="818" on="1"/>
        <pt x="1723" y="711" on="0"/>
        <pt x="1643" y="640" on="1"/>
        <pt x="1717" y="585" on="0"/>
        <pt x="1796" y="434" on="0"/>
        <pt x="1796" y="349" on="1"/>
        <pt x="1796" y="173" on="0"/>
        <pt x="1581" y="-24" on="0"/>
        <pt x="1387" y="-24" on="1"/>
        <pt x="1260" y="-24" on="0"/>
        <pt x="1064" y="59" on="0"/>
        <pt x="987" y="142" on="1"/>
        <pt x="908" y="58" on="0"/>
        <pt x="695" y="-24" on="0"/>
        <pt x="543" y="-24" on="1"/>
        <pt x="324" y="-24" on="0"/>
        <pt x="69" y="244" on="0"/>
        <pt x="69" y="480" on="1"/>
        <pt x="69" y="634" on="0"/>
        <pt x="179" y="861" on="0"/>
        <pt x="284" y="925" on="1"/>
        <pt x="200" y="1000" on="0"/>
        <pt x="200" y="1105" on="1"/>
        <pt x="200" y="1221" on="0"/>
        <pt x="403" y="1353" on="0"/>
        <pt x="603" y="1358" on="1"/>
        <pt x="626" y="1110" on="1"/>
        <pt x="566" y="1106" on="0"/>
        <pt x="504" y="1075" on="0"/>
        <pt x="504" y="1040" on="1"/>
        <pt x="504" y="1015" on="0"/>
        <pt x="526" y="991" on="1"/>
        <pt x="538" y="992" on="1"/>
        <pt x="589" y="996" on="0"/>
        <pt x="754" y="951" on="0"/>
        <pt x="872" y="802" on="0"/>
        <pt x="872" y="685" on="1"/>
        <pt x="872" y="542" on="0"/>
        <pt x="690" y="381" on="0"/>
        <pt x="519" y="381" on="1"/>
        <pt x="433" y="381" on="0"/>
        <pt x="361" y="405" on="1"/>
        <pt x="376" y="321" on="0"/>
        <pt x="485" y="235" on="0"/>
        <pt x="572" y="235" on="1"/>
        <pt x="692" y="235" on="0"/>
        <pt x="831" y="338" on="0"/>
        <pt x="852" y="450" on="1"/>
        <pt x="1121" y="450" on="1"/>
        <pt x="1159" y="235" on="0"/>
        <pt x="1343" y="235" on="1"/>
        <pt x="1415" y="235" on="0"/>
        <pt x="1497" y="313" on="0"/>
        <pt x="1497" y="381" on="1"/>
        <pt x="1497" y="497" on="0"/>
        <pt x="1375" y="550" on="1"/>
        <pt x="1358" y="549" on="1"/>
      </contour>
      <contour>
        <pt x="368" y="605" on="1"/>
        <pt x="418" y="590" on="0"/>
        <pt x="482" y="590" on="1"/>
        <pt x="623" y="590" on="0"/>
        <pt x="623" y="691" on="1"/>
        <pt x="623" y="774" on="0"/>
        <pt x="531" y="774" on="1"/>
        <pt x="473" y="774" on="0"/>
        <pt x="387" y="688" on="0"/>
      </contour>
    </TTGlyph>
    <TTGlyph name="glyph00144" xMin="74" yMin="-24" xMax="1359" yMax="1130">
      <contour>
        <pt x="1127" y="896" on="1"/>
        <pt x="1359" y="771" on="0"/>
        <pt x="1359" y="499" on="1"/>
        <pt x="1359" y="254" on="0"/>
        <pt x="1019" y="-24" on="0"/>
        <pt x="716" y="-24" on="1"/>
        <pt x="416" y="-24" on="0"/>
        <pt x="74" y="253" on="0"/>
        <pt x="74" y="499" on="1"/>
        <pt x="74" y="749" on="0"/>
        <pt x="266" y="873" on="1"/>
        <pt x="74" y="873" on="1"/>
        <pt x="74" y="1130" on="1"/>
        <pt x="1127" y="1130" on="1"/>
      </contour>
      <contour>
        <pt x="718" y="873" on="1"/>
        <pt x="559" y="873" on="0"/>
        <pt x="373" y="696" on="0"/>
        <pt x="373" y="556" on="1"/>
        <pt x="373" y="408" on="0"/>
        <pt x="558" y="242" on="0"/>
        <pt x="718" y="242" on="1"/>
        <pt x="878" y="242" on="0"/>
        <pt x="1060" y="414" on="0"/>
        <pt x="1060" y="556" on="1"/>
        <pt x="1060" y="703" on="0"/>
        <pt x="876" y="873" on="0"/>
      </contour>
      <contour>
        <pt x="715" y="718" on="1"/>
        <pt x="785" y="718" on="0"/>
        <pt x="877" y="631" on="0"/>
        <pt x="877" y="566" on="1"/>
        <pt x="877" y="501" on="0"/>
        <pt x="787" y="415" on="0"/>
        <pt x="715" y="415" on="1"/>
        <pt x="643" y="415" on="0"/>
        <pt x="556" y="499" on="0"/>
        <pt x="556" y="566" on="1"/>
        <pt x="556" y="632" on="0"/>
        <pt x="646" y="718" on="0"/>
      </contour>
    </TTGlyph>
    <TTGlyph name="glyph00145" xMin="74" yMin="-24" xMax="1646" yMax="1130">
      <contour>
        <pt x="840" y="135" on="1"/>
        <pt x="765" y="53" on="0"/>
        <pt x="591" y="-24" on="0"/>
        <pt x="467" y="-24" on="1"/>
        <pt x="282" y="-24" on="0"/>
        <pt x="74" y="215" on="0"/>
        <pt x="74" y="435" on="1"/>
        <pt x="74" y="573" on="0"/>
        <pt x="185" y="800" on="0"/>
        <pt x="294" y="873" on="1"/>
        <pt x="74" y="873" on="1"/>
        <pt x="74" y="1130" on="1"/>
        <pt x="1409" y="1130" on="1"/>
        <pt x="1409" y="933" on="1"/>
        <pt x="1495" y="896" on="0"/>
        <pt x="1600" y="732" on="0"/>
        <pt x="1600" y="642" on="1"/>
        <pt x="1600" y="610" on="0"/>
        <pt x="1595" y="579" on="1"/>
        <pt x="1620" y="532" on="0"/>
        <pt x="1646" y="427" on="0"/>
        <pt x="1646" y="368" on="1"/>
        <pt x="1646" y="189" on="0"/>
        <pt x="1399" y="-24" on="0"/>
        <pt x="1215" y="-24" on="1"/>
        <pt x="1094" y="-24" on="0"/>
        <pt x="911" y="53" on="0"/>
      </contour>
      <contour>
        <pt x="871" y="873" on="1"/>
        <pt x="694" y="873" on="0"/>
        <pt x="490" y="773" on="0"/>
        <pt x="372" y="577" on="0"/>
        <pt x="372" y="449" on="1"/>
        <pt x="372" y="342" on="0"/>
        <pt x="450" y="235" on="0"/>
        <pt x="529" y="235" on="1"/>
        <pt x="600" y="235" on="0"/>
        <pt x="694" y="337" on="0"/>
        <pt x="706" y="434" on="1"/>
        <pt x="975" y="434" on="1"/>
        <pt x="986" y="334" on="0"/>
        <pt x="1089" y="235" on="0"/>
        <pt x="1181" y="235" on="1"/>
        <pt x="1263" y="235" on="0"/>
        <pt x="1359" y="308" on="0"/>
        <pt x="1368" y="380" on="1"/>
        <pt x="1299" y="347" on="0"/>
        <pt x="1220" y="347" on="1"/>
        <pt x="1100" y="347" on="0"/>
        <pt x="943" y="472" on="0"/>
        <pt x="943" y="578" on="1"/>
        <pt x="943" y="684" on="0"/>
        <pt x="1089" y="803" on="0"/>
        <pt x="1217" y="803" on="1"/>
        <pt x="1248" y="803" on="0"/>
        <pt x="1273" y="799" on="1"/>
        <pt x="1217" y="836" on="0"/>
        <pt x="1031" y="873" on="0"/>
        <pt x="902" y="873" on="1"/>
      </contour>
      <contour>
        <pt x="1338" y="576" on="1"/>
        <pt x="1299" y="642" on="0"/>
        <pt x="1226" y="642" on="1"/>
        <pt x="1195" y="642" on="0"/>
        <pt x="1156" y="614" on="0"/>
        <pt x="1156" y="586" on="1"/>
        <pt x="1156" y="557" on="0"/>
        <pt x="1201" y="526" on="0"/>
        <pt x="1239" y="526" on="1"/>
        <pt x="1308" y="526" on="0"/>
      </contour>
    </TTGlyph>
    <TTGlyph name="glyph00146" xMin="74" yMin="-294" xMax="1646" yMax="1130">
      <contour>
        <pt x="840" y="135" on="1"/>
        <pt x="765" y="53" on="0"/>
        <pt x="591" y="-24" on="0"/>
        <pt x="467" y="-24" on="1"/>
        <pt x="282" y="-24" on="0"/>
        <pt x="74" y="215" on="0"/>
        <pt x="74" y="435" on="1"/>
        <pt x="74" y="573" on="0"/>
        <pt x="185" y="800" on="0"/>
        <pt x="294" y="873" on="1"/>
        <pt x="74" y="873" on="1"/>
        <pt x="74" y="1130" on="1"/>
        <pt x="1409" y="1130" on="1"/>
        <pt x="1409" y="933" on="1"/>
        <pt x="1495" y="896" on="0"/>
        <pt x="1600" y="732" on="0"/>
        <pt x="1600" y="642" on="1"/>
        <pt x="1600" y="610" on="0"/>
        <pt x="1595" y="579" on="1"/>
        <pt x="1620" y="532" on="0"/>
        <pt x="1646" y="427" on="0"/>
        <pt x="1646" y="368" on="1"/>
        <pt x="1646" y="189" on="0"/>
        <pt x="1399" y="-24" on="0"/>
        <pt x="1215" y="-24" on="1"/>
        <pt x="1094" y="-24" on="0"/>
        <pt x="911" y="53" on="0"/>
      </contour>
      <contour>
        <pt x="871" y="873" on="1"/>
        <pt x="694" y="873" on="0"/>
        <pt x="490" y="773" on="0"/>
        <pt x="372" y="577" on="0"/>
        <pt x="372" y="449" on="1"/>
        <pt x="372" y="342" on="0"/>
        <pt x="450" y="235" on="0"/>
        <pt x="529" y="235" on="1"/>
        <pt x="600" y="235" on="0"/>
        <pt x="694" y="337" on="0"/>
        <pt x="706" y="434" on="1"/>
        <pt x="975" y="434" on="1"/>
        <pt x="986" y="334" on="0"/>
        <pt x="1089" y="235" on="0"/>
        <pt x="1181" y="235" on="1"/>
        <pt x="1263" y="235" on="0"/>
        <pt x="1359" y="308" on="0"/>
        <pt x="1368" y="380" on="1"/>
        <pt x="1299" y="347" on="0"/>
        <pt x="1220" y="347" on="1"/>
        <pt x="1100" y="347" on="0"/>
        <pt x="943" y="472" on="0"/>
        <pt x="943" y="578" on="1"/>
        <pt x="943" y="684" on="0"/>
        <pt x="1089" y="803" on="0"/>
        <pt x="1217" y="803" on="1"/>
        <pt x="1248" y="803" on="0"/>
        <pt x="1273" y="799" on="1"/>
        <pt x="1217" y="836" on="0"/>
        <pt x="1031" y="873" on="0"/>
        <pt x="902" y="873" on="1"/>
      </contour>
      <contour>
        <pt x="1338" y="576" on="1"/>
        <pt x="1299" y="642" on="0"/>
        <pt x="1226" y="642" on="1"/>
        <pt x="1195" y="642" on="0"/>
        <pt x="1156" y="614" on="0"/>
        <pt x="1156" y="586" on="1"/>
        <pt x="1156" y="557" on="0"/>
        <pt x="1201" y="526" on="0"/>
        <pt x="1239" y="526" on="1"/>
        <pt x="1308" y="526" on="0"/>
      </contour>
      <contour>
        <pt x="684" y="-294" on="1"/>
        <pt x="710" y="16" on="1"/>
        <pt x="968" y="16" on="1"/>
        <pt x="994" y="-294" on="1"/>
      </contour>
    </TTGlyph>
    <TTGlyph name="glyph00147" xMin="62" yMin="-24" xMax="1915" yMax="1130">
      <contour>
        <pt x="1511" y="270" on="1"/>
        <pt x="1313" y="276" on="1"/>
        <pt x="1320" y="297" on="0"/>
        <pt x="1320" y="312" on="1"/>
        <pt x="1320" y="364" on="0"/>
        <pt x="1252" y="364" on="1"/>
        <pt x="1223" y="364" on="0"/>
        <pt x="1182" y="329" on="0"/>
        <pt x="1182" y="300" on="1"/>
        <pt x="1182" y="202" on="0"/>
        <pt x="1354" y="202" on="1"/>
        <pt x="1495" y="202" on="0"/>
        <pt x="1619" y="323" on="0"/>
        <pt x="1619" y="455" on="1"/>
        <pt x="1619" y="463" on="1"/>
        <pt x="1619" y="594" on="0"/>
        <pt x="1458" y="742" on="0"/>
        <pt x="1312" y="742" on="1"/>
        <pt x="1210" y="742" on="0"/>
        <pt x="1072" y="657" on="0"/>
        <pt x="1045" y="575" on="1"/>
        <pt x="770" y="575" on="1"/>
        <pt x="738" y="742" on="0"/>
        <pt x="526" y="742" on="1"/>
        <pt x="452" y="742" on="0"/>
        <pt x="374" y="698" on="0"/>
        <pt x="374" y="658" on="1"/>
        <pt x="374" y="619" on="0"/>
        <pt x="425" y="572" on="0"/>
        <pt x="501" y="572" on="1"/>
        <pt x="616" y="572" on="1"/>
        <pt x="616" y="360" on="1"/>
        <pt x="484" y="360" on="1"/>
        <pt x="432" y="360" on="0"/>
        <pt x="388" y="345" on="0"/>
        <pt x="362" y="312" on="0"/>
        <pt x="362" y="288" on="1"/>
        <pt x="362" y="248" on="0"/>
        <pt x="426" y="213" on="0"/>
        <pt x="487" y="213" on="1"/>
        <pt x="613" y="213" on="0"/>
        <pt x="700" y="281" on="1"/>
        <pt x="835" y="84" on="1"/>
        <pt x="740" y="28" on="0"/>
        <pt x="560" y="-24" on="0"/>
        <pt x="457" y="-24" on="1"/>
        <pt x="268" y="-24" on="0"/>
        <pt x="62" y="113" on="0"/>
        <pt x="62" y="232" on="1"/>
        <pt x="62" y="393" on="0"/>
        <pt x="242" y="465" on="1"/>
        <pt x="74" y="538" on="0"/>
        <pt x="74" y="683" on="1"/>
        <pt x="74" y="826" on="0"/>
        <pt x="270" y="881" on="1"/>
        <pt x="186" y="873" on="0"/>
        <pt x="130" y="873" on="1"/>
        <pt x="68" y="873" on="1"/>
        <pt x="68" y="1130" on="1"/>
        <pt x="1639" y="1130" on="1"/>
        <pt x="1639" y="873" on="1"/>
        <pt x="1637" y="873" on="1"/>
        <pt x="1773" y="819" on="0"/>
        <pt x="1915" y="598" on="0"/>
        <pt x="1915" y="448" on="1"/>
        <pt x="1915" y="221" on="0"/>
        <pt x="1633" y="-24" on="0"/>
        <pt x="1362" y="-24" on="1"/>
        <pt x="1170" y="-24" on="0"/>
        <pt x="945" y="149" on="0"/>
        <pt x="945" y="295" on="1"/>
        <pt x="945" y="422" on="0"/>
        <pt x="1117" y="578" on="0"/>
        <pt x="1259" y="578" on="1"/>
        <pt x="1388" y="578" on="0"/>
        <pt x="1533" y="472" on="0"/>
        <pt x="1533" y="379" on="1"/>
        <pt x="1533" y="350" on="0"/>
        <pt x="1520" y="287" on="0"/>
      </contour>
      <contour>
        <pt x="908" y="776" on="1"/>
        <pt x="982" y="853" on="0"/>
        <pt x="1085" y="889" on="1"/>
        <pt x="1034" y="882" on="0"/>
        <pt x="947" y="882" on="1"/>
        <pt x="863" y="882" on="1"/>
        <pt x="807" y="882" on="0"/>
        <pt x="713" y="889" on="1"/>
        <pt x="824" y="862" on="0"/>
      </contour>
    </TTGlyph>
    <TTGlyph name="glyph00148" xMin="65" yMin="-24" xMax="1335" yMax="1130">
      <contour>
        <pt x="1098" y="947" on="1"/>
        <pt x="1159" y="891" on="0"/>
        <pt x="1222" y="761" on="0"/>
        <pt x="1223" y="688" on="1"/>
        <pt x="1279" y="634" on="0"/>
        <pt x="1335" y="497" on="0"/>
        <pt x="1335" y="414" on="1"/>
        <pt x="1335" y="200" on="0"/>
        <pt x="1015" y="-24" on="0"/>
        <pt x="722" y="-24" on="1"/>
        <pt x="396" y="-24" on="0"/>
        <pt x="65" y="215" on="0"/>
        <pt x="65" y="446" on="1"/>
        <pt x="65" y="504" on="0"/>
        <pt x="78" y="562" on="1"/>
        <pt x="362" y="526" on="1"/>
        <pt x="359" y="500" on="0"/>
        <pt x="359" y="481" on="1"/>
        <pt x="359" y="414" on="0"/>
        <pt x="395" y="329" on="0"/>
        <pt x="475" y="266" on="0"/>
        <pt x="622" y="232" on="0"/>
        <pt x="718" y="232" on="1"/>
        <pt x="886" y="232" on="0"/>
        <pt x="1059" y="332" on="0"/>
        <pt x="1064" y="433" on="1"/>
        <pt x="1013" y="387" on="0"/>
        <pt x="874" y="341" on="0"/>
        <pt x="787" y="341" on="1"/>
        <pt x="645" y="341" on="0"/>
        <pt x="488" y="468" on="0"/>
        <pt x="488" y="575" on="1"/>
        <pt x="488" y="683" on="0"/>
        <pt x="651" y="811" on="0"/>
        <pt x="801" y="811" on="1"/>
        <pt x="863" y="811" on="0"/>
        <pt x="918" y="799" on="1"/>
        <pt x="895" y="840" on="0"/>
        <pt x="848" y="873" on="1"/>
        <pt x="69" y="873" on="1"/>
        <pt x="69" y="1130" on="1"/>
        <pt x="1098" y="1130" on="1"/>
      </contour>
      <contour>
        <pt x="935" y="609" on="1"/>
        <pt x="888" y="628" on="0"/>
        <pt x="835" y="628" on="1"/>
        <pt x="740" y="628" on="0"/>
        <pt x="740" y="577" on="1"/>
        <pt x="740" y="554" on="0"/>
        <pt x="781" y="529" on="0"/>
        <pt x="819" y="529" on="1"/>
        <pt x="906" y="529" on="0"/>
      </contour>
    </TTGlyph>
    <TTGlyph name="glyph00149" xMin="74" yMin="-294" xMax="1606" yMax="1130">
      <contour>
        <pt x="285" y="873" on="1"/>
        <pt x="74" y="873" on="1"/>
        <pt x="74" y="1130" on="1"/>
        <pt x="1374" y="1130" on="1"/>
        <pt x="1374" y="885" on="1"/>
        <pt x="1606" y="735" on="0"/>
        <pt x="1606" y="436" on="1"/>
        <pt x="1606" y="216" on="0"/>
        <pt x="1395" y="-24" on="0"/>
        <pt x="1206" y="-24" on="1"/>
        <pt x="1088" y="-24" on="0"/>
        <pt x="912" y="52" on="0"/>
        <pt x="840" y="135" on="1"/>
        <pt x="765" y="53" on="0"/>
        <pt x="591" y="-24" on="0"/>
        <pt x="467" y="-24" on="1"/>
        <pt x="282" y="-24" on="0"/>
        <pt x="74" y="215" on="0"/>
        <pt x="74" y="435" on="1"/>
        <pt x="74" y="724" on="0"/>
      </contour>
      <contour>
        <pt x="706" y="413" on="1"/>
        <pt x="975" y="413" on="1"/>
        <pt x="994" y="326" on="0"/>
        <pt x="1087" y="235" on="0"/>
        <pt x="1151" y="235" on="1"/>
        <pt x="1227" y="235" on="0"/>
        <pt x="1308" y="343" on="0"/>
        <pt x="1308" y="449" on="1"/>
        <pt x="1308" y="566" on="0"/>
        <pt x="1201" y="762" on="0"/>
        <pt x="997" y="873" on="0"/>
        <pt x="859" y="873" on="1"/>
        <pt x="822" y="873" on="1"/>
        <pt x="616" y="873" on="0"/>
        <pt x="372" y="636" on="0"/>
        <pt x="372" y="449" on="1"/>
        <pt x="372" y="235" on="0"/>
        <pt x="529" y="235" on="1"/>
        <pt x="597" y="235" on="0"/>
        <pt x="688" y="326" on="0"/>
      </contour>
      <contour>
        <pt x="839" y="767" on="1"/>
        <pt x="909" y="767" on="0"/>
        <pt x="1001" y="680" on="0"/>
        <pt x="1001" y="615" on="1"/>
        <pt x="1001" y="550" on="0"/>
        <pt x="911" y="464" on="0"/>
        <pt x="839" y="464" on="1"/>
        <pt x="767" y="464" on="0"/>
        <pt x="680" y="548" on="0"/>
        <pt x="680" y="615" on="1"/>
        <pt x="680" y="681" on="0"/>
        <pt x="770" y="767" on="0"/>
      </contour>
      <contour>
        <pt x="684" y="-294" on="1"/>
        <pt x="710" y="16" on="1"/>
        <pt x="968" y="16" on="1"/>
        <pt x="994" y="-294" on="1"/>
      </contour>
    </TTGlyph>
    <TTGlyph name="glyph00150" xMin="74" yMin="-24" xMax="1606" yMax="1130">
      <contour>
        <pt x="285" y="873" on="1"/>
        <pt x="74" y="873" on="1"/>
        <pt x="74" y="1130" on="1"/>
        <pt x="1374" y="1130" on="1"/>
        <pt x="1374" y="885" on="1"/>
        <pt x="1606" y="735" on="0"/>
        <pt x="1606" y="436" on="1"/>
        <pt x="1606" y="216" on="0"/>
        <pt x="1395" y="-24" on="0"/>
        <pt x="1206" y="-24" on="1"/>
        <pt x="1088" y="-24" on="0"/>
        <pt x="912" y="52" on="0"/>
        <pt x="840" y="135" on="1"/>
        <pt x="765" y="53" on="0"/>
        <pt x="591" y="-24" on="0"/>
        <pt x="467" y="-24" on="1"/>
        <pt x="282" y="-24" on="0"/>
        <pt x="74" y="215" on="0"/>
        <pt x="74" y="435" on="1"/>
        <pt x="74" y="724" on="0"/>
      </contour>
      <contour>
        <pt x="706" y="450" on="1"/>
        <pt x="975" y="450" on="1"/>
        <pt x="982" y="347" on="0"/>
        <pt x="1082" y="235" on="0"/>
        <pt x="1151" y="235" on="1"/>
        <pt x="1227" y="235" on="0"/>
        <pt x="1308" y="343" on="0"/>
        <pt x="1308" y="449" on="1"/>
        <pt x="1308" y="566" on="0"/>
        <pt x="1201" y="762" on="0"/>
        <pt x="997" y="873" on="0"/>
        <pt x="859" y="873" on="1"/>
        <pt x="822" y="873" on="1"/>
        <pt x="616" y="873" on="0"/>
        <pt x="372" y="636" on="0"/>
        <pt x="372" y="449" on="1"/>
        <pt x="372" y="235" on="0"/>
        <pt x="529" y="235" on="1"/>
        <pt x="602" y="235" on="0"/>
        <pt x="698" y="349" on="0"/>
      </contour>
    </TTGlyph>
    <TTGlyph name="glyph00151" xMin="74" yMin="-294" xMax="1606" yMax="1130">
      <contour>
        <pt x="285" y="873" on="1"/>
        <pt x="74" y="873" on="1"/>
        <pt x="74" y="1130" on="1"/>
        <pt x="1374" y="1130" on="1"/>
        <pt x="1374" y="885" on="1"/>
        <pt x="1606" y="735" on="0"/>
        <pt x="1606" y="436" on="1"/>
        <pt x="1606" y="216" on="0"/>
        <pt x="1395" y="-24" on="0"/>
        <pt x="1206" y="-24" on="1"/>
        <pt x="1088" y="-24" on="0"/>
        <pt x="912" y="52" on="0"/>
        <pt x="840" y="135" on="1"/>
        <pt x="765" y="53" on="0"/>
        <pt x="591" y="-24" on="0"/>
        <pt x="467" y="-24" on="1"/>
        <pt x="282" y="-24" on="0"/>
        <pt x="74" y="215" on="0"/>
        <pt x="74" y="435" on="1"/>
        <pt x="74" y="724" on="0"/>
      </contour>
      <contour>
        <pt x="706" y="450" on="1"/>
        <pt x="975" y="450" on="1"/>
        <pt x="982" y="347" on="0"/>
        <pt x="1082" y="235" on="0"/>
        <pt x="1151" y="235" on="1"/>
        <pt x="1227" y="235" on="0"/>
        <pt x="1308" y="343" on="0"/>
        <pt x="1308" y="449" on="1"/>
        <pt x="1308" y="566" on="0"/>
        <pt x="1201" y="762" on="0"/>
        <pt x="997" y="873" on="0"/>
        <pt x="859" y="873" on="1"/>
        <pt x="822" y="873" on="1"/>
        <pt x="616" y="873" on="0"/>
        <pt x="372" y="636" on="0"/>
        <pt x="372" y="449" on="1"/>
        <pt x="372" y="235" on="0"/>
        <pt x="529" y="235" on="1"/>
        <pt x="602" y="235" on="0"/>
        <pt x="698" y="349" on="0"/>
      </contour>
      <contour>
        <pt x="684" y="-294" on="1"/>
        <pt x="710" y="16" on="1"/>
        <pt x="968" y="16" on="1"/>
        <pt x="994" y="-294" on="1"/>
      </contour>
    </TTGlyph>
    <TTGlyph name="glyph00152" xMin="59" yMin="-38" xMax="1503" yMax="1130">
      <contour>
        <pt x="440" y="58" on="1"/>
        <pt x="170" y="-38" on="1"/>
        <pt x="119" y="31" on="0"/>
        <pt x="59" y="209" on="0"/>
        <pt x="59" y="283" on="1"/>
        <pt x="59" y="443" on="0"/>
        <pt x="258" y="628" on="0"/>
        <pt x="436" y="628" on="1"/>
        <pt x="556" y="628" on="0"/>
        <pt x="728" y="528" on="0"/>
        <pt x="817" y="412" on="1"/>
        <pt x="892" y="313" on="0"/>
        <pt x="998" y="235" on="0"/>
        <pt x="1058" y="235" on="1"/>
        <pt x="1131" y="235" on="0"/>
        <pt x="1204" y="331" on="0"/>
        <pt x="1204" y="422" on="1"/>
        <pt x="1204" y="561" on="0"/>
        <pt x="1017" y="801" on="0"/>
        <pt x="849" y="873" on="1"/>
        <pt x="80" y="873" on="1"/>
        <pt x="80" y="1130" on="1"/>
        <pt x="1231" y="1130" on="1"/>
        <pt x="1231" y="896" on="1"/>
        <pt x="1365" y="806" on="0"/>
        <pt x="1503" y="560" on="0"/>
        <pt x="1503" y="412" on="1"/>
        <pt x="1503" y="196" on="0"/>
        <pt x="1279" y="-24" on="0"/>
        <pt x="1061" y="-24" on="1"/>
        <pt x="921" y="-24" on="0"/>
        <pt x="706" y="96" on="0"/>
        <pt x="582" y="259" on="1"/>
        <pt x="526" y="333" on="0"/>
        <pt x="475" y="373" on="0"/>
        <pt x="449" y="373" on="1"/>
        <pt x="406" y="373" on="0"/>
        <pt x="356" y="319" on="0"/>
        <pt x="356" y="272" on="1"/>
        <pt x="356" y="230" on="0"/>
        <pt x="387" y="142" on="0"/>
      </contour>
    </TTGlyph>
    <TTGlyph name="glyph00153" xMin="59" yMin="-24" xMax="1693" yMax="1130">
      <contour>
        <pt x="59" y="873" on="1"/>
        <pt x="59" y="1130" on="1"/>
        <pt x="1417" y="1130" on="1"/>
        <pt x="1417" y="873" on="1"/>
      </contour>
      <contour>
        <pt x="912" y="837" on="1"/>
        <pt x="982" y="837" on="0"/>
        <pt x="1074" y="750" on="0"/>
        <pt x="1074" y="685" on="1"/>
        <pt x="1074" y="620" on="0"/>
        <pt x="984" y="534" on="0"/>
        <pt x="912" y="534" on="1"/>
        <pt x="840" y="534" on="0"/>
        <pt x="753" y="618" on="0"/>
        <pt x="753" y="685" on="1"/>
        <pt x="753" y="751" on="0"/>
        <pt x="843" y="837" on="0"/>
      </contour>
      <contour>
        <pt x="924" y="135" on="1"/>
        <pt x="839" y="52" on="0"/>
        <pt x="637" y="-24" on="0"/>
        <pt x="487" y="-24" on="1"/>
        <pt x="291" y="-24" on="0"/>
        <pt x="59" y="185" on="0"/>
        <pt x="59" y="357" on="1"/>
        <pt x="59" y="506" on="0"/>
        <pt x="257" y="690" on="0"/>
        <pt x="418" y="690" on="1"/>
        <pt x="557" y="690" on="0"/>
        <pt x="708" y="575" on="0"/>
        <pt x="708" y="467" on="1"/>
        <pt x="708" y="401" on="0"/>
        <pt x="676" y="341" on="1"/>
        <pt x="471" y="358" on="1"/>
        <pt x="479" y="374" on="0"/>
        <pt x="479" y="403" on="1"/>
        <pt x="479" y="468" on="0"/>
        <pt x="409" y="468" on="1"/>
        <pt x="367" y="468" on="0"/>
        <pt x="314" y="415" on="0"/>
        <pt x="314" y="369" on="1"/>
        <pt x="314" y="235" on="0"/>
        <pt x="539" y="235" on="1"/>
        <pt x="770" y="235" on="0"/>
        <pt x="790" y="450" on="1"/>
        <pt x="1059" y="450" on="1"/>
        <pt x="1066" y="347" on="0"/>
        <pt x="1164" y="235" on="0"/>
        <pt x="1242" y="235" on="1"/>
        <pt x="1316" y="235" on="0"/>
        <pt x="1394" y="324" on="0"/>
        <pt x="1394" y="401" on="1"/>
        <pt x="1394" y="475" on="0"/>
        <pt x="1338" y="634" on="0"/>
        <pt x="1284" y="708" on="1"/>
        <pt x="1552" y="817" on="1"/>
        <pt x="1693" y="632" on="0"/>
        <pt x="1693" y="380" on="1"/>
        <pt x="1693" y="189" on="0"/>
        <pt x="1476" y="-24" on="0"/>
        <pt x="1299" y="-24" on="1"/>
        <pt x="1175" y="-24" on="0"/>
        <pt x="996" y="52" on="0"/>
      </contour>
    </TTGlyph>
    <TTGlyph name="glyph00154" xMin="59" yMin="-294" xMax="1693" yMax="1130">
      <contour>
        <pt x="59" y="873" on="1"/>
        <pt x="59" y="1130" on="1"/>
        <pt x="1417" y="1130" on="1"/>
        <pt x="1417" y="873" on="1"/>
      </contour>
      <contour>
        <pt x="912" y="837" on="1"/>
        <pt x="982" y="837" on="0"/>
        <pt x="1074" y="750" on="0"/>
        <pt x="1074" y="685" on="1"/>
        <pt x="1074" y="620" on="0"/>
        <pt x="984" y="534" on="0"/>
        <pt x="912" y="534" on="1"/>
        <pt x="840" y="534" on="0"/>
        <pt x="753" y="618" on="0"/>
        <pt x="753" y="685" on="1"/>
        <pt x="753" y="751" on="0"/>
        <pt x="843" y="837" on="0"/>
      </contour>
      <contour>
        <pt x="1059" y="450" on="1"/>
        <pt x="1066" y="347" on="0"/>
        <pt x="1164" y="235" on="0"/>
        <pt x="1242" y="235" on="1"/>
        <pt x="1316" y="235" on="0"/>
        <pt x="1394" y="324" on="0"/>
        <pt x="1394" y="401" on="1"/>
        <pt x="1394" y="475" on="0"/>
        <pt x="1338" y="634" on="0"/>
        <pt x="1284" y="708" on="1"/>
        <pt x="1552" y="817" on="1"/>
        <pt x="1693" y="632" on="0"/>
        <pt x="1693" y="380" on="1"/>
        <pt x="1693" y="189" on="0"/>
        <pt x="1476" y="-24" on="0"/>
        <pt x="1299" y="-24" on="1"/>
        <pt x="1175" y="-24" on="0"/>
        <pt x="996" y="52" on="0"/>
        <pt x="924" y="135" on="1"/>
        <pt x="839" y="52" on="0"/>
        <pt x="637" y="-24" on="0"/>
        <pt x="487" y="-24" on="1"/>
        <pt x="291" y="-24" on="0"/>
        <pt x="59" y="185" on="0"/>
        <pt x="59" y="357" on="1"/>
        <pt x="59" y="506" on="0"/>
        <pt x="257" y="690" on="0"/>
        <pt x="418" y="690" on="1"/>
        <pt x="557" y="690" on="0"/>
        <pt x="708" y="575" on="0"/>
        <pt x="708" y="467" on="1"/>
        <pt x="708" y="401" on="0"/>
        <pt x="676" y="341" on="1"/>
        <pt x="471" y="358" on="1"/>
        <pt x="479" y="374" on="0"/>
        <pt x="479" y="403" on="1"/>
        <pt x="479" y="468" on="0"/>
        <pt x="409" y="468" on="1"/>
        <pt x="367" y="468" on="0"/>
        <pt x="314" y="415" on="0"/>
        <pt x="314" y="369" on="1"/>
        <pt x="314" y="235" on="0"/>
        <pt x="539" y="235" on="1"/>
        <pt x="770" y="235" on="0"/>
        <pt x="790" y="450" on="1"/>
      </contour>
      <contour>
        <pt x="768" y="-294" on="1"/>
        <pt x="794" y="16" on="1"/>
        <pt x="1052" y="16" on="1"/>
        <pt x="1078" y="-294" on="1"/>
      </contour>
    </TTGlyph>
    <TTGlyph name="glyph00155" xMin="50" yMin="-24" xMax="1761" yMax="1154">
      <contour>
        <pt x="900" y="140" on="1"/>
        <pt x="831" y="64" on="0"/>
        <pt x="638" y="-24" on="0"/>
        <pt x="477" y="-24" on="1"/>
        <pt x="303" y="-24" on="0"/>
        <pt x="100" y="151" on="0"/>
        <pt x="100" y="284" on="1"/>
        <pt x="100" y="378" on="0"/>
        <pt x="157" y="505" on="0"/>
        <pt x="286" y="624" on="0"/>
        <pt x="420" y="703" on="1"/>
        <pt x="506" y="755" on="0"/>
        <pt x="559" y="818" on="0"/>
        <pt x="559" y="854" on="1"/>
        <pt x="559" y="889" on="0"/>
        <pt x="503" y="927" on="0"/>
        <pt x="450" y="927" on="1"/>
        <pt x="392" y="927" on="0"/>
        <pt x="332" y="879" on="0"/>
        <pt x="332" y="833" on="1"/>
        <pt x="332" y="784" on="0"/>
        <pt x="359" y="733" on="1"/>
        <pt x="111" y="644" on="1"/>
        <pt x="50" y="747" on="0"/>
        <pt x="50" y="863" on="1"/>
        <pt x="50" y="1000" on="0"/>
        <pt x="262" y="1154" on="0"/>
        <pt x="460" y="1154" on="1"/>
        <pt x="651" y="1154" on="0"/>
        <pt x="852" y="992" on="0"/>
        <pt x="852" y="865" on="1"/>
        <pt x="852" y="747" on="0"/>
        <pt x="720" y="589" on="0"/>
        <pt x="543" y="481" on="1"/>
        <pt x="461" y="430" on="0"/>
        <pt x="399" y="370" on="0"/>
        <pt x="399" y="326" on="1"/>
        <pt x="399" y="235" on="0"/>
        <pt x="536" y="235" on="1"/>
        <pt x="639" y="235" on="0"/>
        <pt x="762" y="347" on="0"/>
        <pt x="770" y="450" on="1"/>
        <pt x="1039" y="450" on="1"/>
        <pt x="1046" y="346" on="0"/>
        <pt x="1160" y="235" on="0"/>
        <pt x="1251" y="235" on="1"/>
        <pt x="1352" y="235" on="0"/>
        <pt x="1461" y="360" on="0"/>
        <pt x="1461" y="476" on="1"/>
        <pt x="1461" y="718" on="0"/>
        <pt x="1186" y="873" on="1"/>
        <pt x="1024" y="873" on="1"/>
        <pt x="1024" y="1130" on="1"/>
        <pt x="1489" y="1130" on="1"/>
        <pt x="1489" y="943" on="1"/>
        <pt x="1761" y="750" on="0"/>
        <pt x="1761" y="465" on="1"/>
        <pt x="1761" y="231" on="0"/>
        <pt x="1509" y="-24" on="0"/>
        <pt x="1274" y="-24" on="1"/>
        <pt x="1153" y="-24" on="0"/>
        <pt x="975" y="53" on="0"/>
      </contour>
    </TTGlyph>
    <TTGlyph name="glyph00156" xMin="50" yMin="-294" xMax="1761" yMax="1154">
      <contour>
        <pt x="900" y="140" on="1"/>
        <pt x="831" y="64" on="0"/>
        <pt x="638" y="-24" on="0"/>
        <pt x="477" y="-24" on="1"/>
        <pt x="303" y="-24" on="0"/>
        <pt x="100" y="151" on="0"/>
        <pt x="100" y="284" on="1"/>
        <pt x="100" y="378" on="0"/>
        <pt x="157" y="505" on="0"/>
        <pt x="286" y="624" on="0"/>
        <pt x="420" y="703" on="1"/>
        <pt x="506" y="755" on="0"/>
        <pt x="559" y="818" on="0"/>
        <pt x="559" y="854" on="1"/>
        <pt x="559" y="889" on="0"/>
        <pt x="503" y="927" on="0"/>
        <pt x="450" y="927" on="1"/>
        <pt x="392" y="927" on="0"/>
        <pt x="332" y="879" on="0"/>
        <pt x="332" y="833" on="1"/>
        <pt x="332" y="784" on="0"/>
        <pt x="359" y="733" on="1"/>
        <pt x="111" y="644" on="1"/>
        <pt x="50" y="747" on="0"/>
        <pt x="50" y="863" on="1"/>
        <pt x="50" y="1000" on="0"/>
        <pt x="262" y="1154" on="0"/>
        <pt x="460" y="1154" on="1"/>
        <pt x="651" y="1154" on="0"/>
        <pt x="852" y="992" on="0"/>
        <pt x="852" y="865" on="1"/>
        <pt x="852" y="747" on="0"/>
        <pt x="720" y="589" on="0"/>
        <pt x="543" y="481" on="1"/>
        <pt x="461" y="430" on="0"/>
        <pt x="399" y="370" on="0"/>
        <pt x="399" y="326" on="1"/>
        <pt x="399" y="235" on="0"/>
        <pt x="536" y="235" on="1"/>
        <pt x="639" y="235" on="0"/>
        <pt x="762" y="347" on="0"/>
        <pt x="770" y="450" on="1"/>
        <pt x="1039" y="450" on="1"/>
        <pt x="1046" y="346" on="0"/>
        <pt x="1160" y="235" on="0"/>
        <pt x="1251" y="235" on="1"/>
        <pt x="1352" y="235" on="0"/>
        <pt x="1461" y="360" on="0"/>
        <pt x="1461" y="476" on="1"/>
        <pt x="1461" y="718" on="0"/>
        <pt x="1186" y="873" on="1"/>
        <pt x="1024" y="873" on="1"/>
        <pt x="1024" y="1130" on="1"/>
        <pt x="1489" y="1130" on="1"/>
        <pt x="1489" y="943" on="1"/>
        <pt x="1761" y="750" on="0"/>
        <pt x="1761" y="465" on="1"/>
        <pt x="1761" y="231" on="0"/>
        <pt x="1509" y="-24" on="0"/>
        <pt x="1274" y="-24" on="1"/>
        <pt x="1153" y="-24" on="0"/>
        <pt x="975" y="53" on="0"/>
      </contour>
      <contour>
        <pt x="748" y="-294" on="1"/>
        <pt x="774" y="16" on="1"/>
        <pt x="1032" y="16" on="1"/>
        <pt x="1058" y="-294" on="1"/>
      </contour>
    </TTGlyph>
    <TTGlyph name="glyph00157" xMin="59" yMin="-24" xMax="2439" yMax="1614">
      <contour>
        <pt x="924" y="135" on="1"/>
        <pt x="839" y="52" on="0"/>
        <pt x="637" y="-24" on="0"/>
        <pt x="487" y="-24" on="1"/>
        <pt x="291" y="-24" on="0"/>
        <pt x="59" y="185" on="0"/>
        <pt x="59" y="357" on="1"/>
        <pt x="59" y="506" on="0"/>
        <pt x="257" y="690" on="0"/>
        <pt x="418" y="690" on="1"/>
        <pt x="557" y="690" on="0"/>
        <pt x="708" y="575" on="0"/>
        <pt x="708" y="467" on="1"/>
        <pt x="708" y="401" on="0"/>
        <pt x="676" y="341" on="1"/>
        <pt x="471" y="358" on="1"/>
        <pt x="479" y="374" on="0"/>
        <pt x="479" y="403" on="1"/>
        <pt x="479" y="468" on="0"/>
        <pt x="409" y="468" on="1"/>
        <pt x="367" y="468" on="0"/>
        <pt x="314" y="415" on="0"/>
        <pt x="314" y="369" on="1"/>
        <pt x="314" y="235" on="0"/>
        <pt x="539" y="235" on="1"/>
        <pt x="770" y="235" on="0"/>
        <pt x="790" y="450" on="1"/>
        <pt x="1059" y="450" on="1"/>
        <pt x="1066" y="347" on="0"/>
        <pt x="1164" y="235" on="0"/>
        <pt x="1242" y="235" on="1"/>
        <pt x="1317" y="235" on="0"/>
        <pt x="1395" y="333" on="0"/>
        <pt x="1395" y="423" on="1"/>
        <pt x="1395" y="560" on="0"/>
        <pt x="1207" y="802" on="0"/>
        <pt x="1040" y="873" on="1"/>
        <pt x="59" y="873" on="1"/>
        <pt x="59" y="1130" on="1"/>
        <pt x="1139" y="1130" on="1"/>
        <pt x="1261" y="1130" on="0"/>
        <pt x="1365" y="1155" on="0"/>
        <pt x="1406" y="1208" on="0"/>
        <pt x="1406" y="1256" on="1"/>
        <pt x="1406" y="1307" on="0"/>
        <pt x="1356" y="1410" on="0"/>
        <pt x="1295" y="1480" on="1"/>
        <pt x="1522" y="1614" on="1"/>
        <pt x="1613" y="1501" on="0"/>
        <pt x="1693" y="1313" on="0"/>
        <pt x="1693" y="1200" on="1"/>
        <pt x="1693" y="1084" on="0"/>
        <pt x="1567" y="920" on="0"/>
        <pt x="1436" y="892" on="1"/>
        <pt x="1694" y="697" on="0"/>
        <pt x="1694" y="412" on="1"/>
        <pt x="1694" y="363" on="0"/>
        <pt x="1688" y="321" on="1"/>
        <pt x="1783" y="235" on="0"/>
        <pt x="1903" y="235" on="1"/>
        <pt x="2015" y="235" on="0"/>
        <pt x="2140" y="362" on="0"/>
        <pt x="2140" y="476" on="1"/>
        <pt x="2140" y="721" on="0"/>
        <pt x="1865" y="873" on="1"/>
        <pt x="1772" y="873" on="1"/>
        <pt x="1772" y="1130" on="1"/>
        <pt x="2162" y="1130" on="1"/>
        <pt x="2162" y="947" on="1"/>
        <pt x="2304" y="845" on="0"/>
        <pt x="2439" y="608" on="0"/>
        <pt x="2439" y="465" on="1"/>
        <pt x="2439" y="235" on="0"/>
        <pt x="2185" y="-24" on="0"/>
        <pt x="1952" y="-24" on="1"/>
        <pt x="1756" y="-24" on="0"/>
        <pt x="1592" y="92" on="1"/>
        <pt x="1539" y="34" on="0"/>
        <pt x="1393" y="-24" on="0"/>
        <pt x="1300" y="-24" on="1"/>
        <pt x="1176" y="-24" on="0"/>
        <pt x="997" y="52" on="0"/>
      </contour>
    </TTGlyph>
    <TTGlyph name="glyph00158" xMin="72" yMin="-24" xMax="2764" yMax="1614">
      <contour>
        <pt x="1108" y="132" on="1"/>
        <pt x="1026" y="54" on="0"/>
        <pt x="811" y="-24" on="0"/>
        <pt x="677" y="-24" on="1"/>
        <pt x="485" y="-24" on="0"/>
        <pt x="215" y="120" on="0"/>
        <pt x="72" y="401" on="0"/>
        <pt x="72" y="584" on="1"/>
        <pt x="72" y="751" on="0"/>
        <pt x="218" y="1015" on="0"/>
        <pt x="490" y="1157" on="0"/>
        <pt x="670" y="1157" on="1"/>
        <pt x="861" y="1157" on="0"/>
        <pt x="1129" y="1007" on="0"/>
        <pt x="1268" y="728" on="0"/>
        <pt x="1268" y="551" on="1"/>
        <pt x="1268" y="441" on="0"/>
        <pt x="1238" y="347" on="1"/>
        <pt x="1290" y="292" on="0"/>
        <pt x="1406" y="235" on="0"/>
        <pt x="1480" y="235" on="1"/>
        <pt x="1592" y="235" on="0"/>
        <pt x="1716" y="362" on="0"/>
        <pt x="1716" y="476" on="1"/>
        <pt x="1716" y="718" on="0"/>
        <pt x="1441" y="873" on="1"/>
        <pt x="1279" y="873" on="1"/>
        <pt x="1279" y="1130" on="1"/>
        <pt x="1462" y="1130" on="1"/>
        <pt x="1584" y="1130" on="0"/>
        <pt x="1688" y="1155" on="0"/>
        <pt x="1729" y="1208" on="0"/>
        <pt x="1729" y="1256" on="1"/>
        <pt x="1729" y="1305" on="0"/>
        <pt x="1681" y="1407" on="0"/>
        <pt x="1617" y="1480" on="1"/>
        <pt x="1845" y="1614" on="1"/>
        <pt x="1936" y="1501" on="0"/>
        <pt x="2016" y="1313" on="0"/>
        <pt x="2016" y="1200" on="1"/>
        <pt x="2016" y="1094" on="0"/>
        <pt x="1911" y="938" on="0"/>
        <pt x="1803" y="904" on="1"/>
        <pt x="2016" y="720" on="0"/>
        <pt x="2016" y="465" on="1"/>
        <pt x="2016" y="399" on="0"/>
        <pt x="2003" y="331" on="1"/>
        <pt x="2101" y="235" on="0"/>
        <pt x="2228" y="235" on="1"/>
        <pt x="2340" y="235" on="0"/>
        <pt x="2465" y="362" on="0"/>
        <pt x="2465" y="476" on="1"/>
        <pt x="2465" y="721" on="0"/>
        <pt x="2190" y="873" on="1"/>
        <pt x="2097" y="873" on="1"/>
        <pt x="2097" y="1130" on="1"/>
        <pt x="2487" y="1130" on="1"/>
        <pt x="2487" y="947" on="1"/>
        <pt x="2629" y="845" on="0"/>
        <pt x="2764" y="608" on="0"/>
        <pt x="2764" y="465" on="1"/>
        <pt x="2764" y="235" on="0"/>
        <pt x="2510" y="-24" on="0"/>
        <pt x="2277" y="-24" on="1"/>
        <pt x="2065" y="-24" on="0"/>
        <pt x="1893" y="110" on="1"/>
        <pt x="1828" y="43" on="0"/>
        <pt x="1646" y="-24" on="0"/>
        <pt x="1529" y="-24" on="1"/>
        <pt x="1290" y="-24" on="0"/>
      </contour>
      <contour>
        <pt x="668" y="891" on="1"/>
        <pt x="524" y="891" on="0"/>
        <pt x="371" y="728" on="0"/>
        <pt x="371" y="575" on="1"/>
        <pt x="371" y="425" on="0"/>
        <pt x="534" y="242" on="0"/>
        <pt x="671" y="242" on="1"/>
        <pt x="813" y="242" on="0"/>
        <pt x="969" y="401" on="0"/>
        <pt x="969" y="546" on="1"/>
        <pt x="969" y="704" on="0"/>
        <pt x="808" y="891" on="0"/>
      </contour>
    </TTGlyph>
    <TTGlyph name="glyph00159" xMin="74" yMin="-24" xMax="1344" yMax="1130">
      <contour>
        <pt x="1112" y="898" on="1"/>
        <pt x="1232" y="828" on="0"/>
        <pt x="1344" y="636" on="0"/>
        <pt x="1344" y="499" on="1"/>
        <pt x="1344" y="254" on="0"/>
        <pt x="1009" y="-24" on="0"/>
        <pt x="709" y="-24" on="1"/>
        <pt x="412" y="-24" on="0"/>
        <pt x="74" y="253" on="0"/>
        <pt x="74" y="499" on="1"/>
        <pt x="74" y="749" on="0"/>
        <pt x="266" y="873" on="1"/>
        <pt x="74" y="873" on="1"/>
        <pt x="74" y="1130" on="1"/>
        <pt x="1112" y="1130" on="1"/>
      </contour>
      <contour>
        <pt x="710" y="873" on="1"/>
        <pt x="555" y="873" on="0"/>
        <pt x="373" y="696" on="0"/>
        <pt x="373" y="556" on="1"/>
        <pt x="373" y="409" on="0"/>
        <pt x="553" y="242" on="0"/>
        <pt x="710" y="242" on="1"/>
        <pt x="867" y="242" on="0"/>
        <pt x="1045" y="415" on="0"/>
        <pt x="1045" y="556" on="1"/>
        <pt x="1045" y="703" on="0"/>
        <pt x="865" y="873" on="0"/>
      </contour>
    </TTGlyph>
    <TTGlyph name="glyph00160" xMin="66" yMin="-24" xMax="1655" yMax="1154">
      <contour>
        <pt x="364" y="523" on="1"/>
        <pt x="404" y="386" on="0"/>
        <pt x="668" y="239" on="0"/>
        <pt x="870" y="239" on="1"/>
        <pt x="1102" y="239" on="0"/>
        <pt x="1355" y="416" on="0"/>
        <pt x="1355" y="577" on="1"/>
        <pt x="1355" y="759" on="0"/>
        <pt x="1154" y="873" on="1"/>
        <pt x="988" y="873" on="1"/>
        <pt x="988" y="1130" on="1"/>
        <pt x="1414" y="1130" on="1"/>
        <pt x="1414" y="985" on="1"/>
        <pt x="1543" y="902" on="0"/>
        <pt x="1655" y="710" on="0"/>
        <pt x="1655" y="581" on="1"/>
        <pt x="1655" y="299" on="0"/>
        <pt x="1256" y="-24" on="0"/>
        <pt x="878" y="-24" on="1"/>
        <pt x="629" y="-24" on="0"/>
        <pt x="261" y="136" on="0"/>
        <pt x="66" y="436" on="0"/>
        <pt x="66" y="636" on="1"/>
        <pt x="66" y="791" on="0"/>
        <pt x="190" y="1027" on="0"/>
        <pt x="421" y="1154" on="0"/>
        <pt x="568" y="1154" on="1"/>
        <pt x="732" y="1154" on="0"/>
        <pt x="919" y="976" on="0"/>
        <pt x="919" y="822" on="1"/>
        <pt x="919" y="669" on="0"/>
        <pt x="720" y="491" on="0"/>
        <pt x="542" y="491" on="1"/>
        <pt x="444" y="491" on="0"/>
      </contour>
      <contour>
        <pt x="357" y="736" on="1"/>
        <pt x="404" y="711" on="0"/>
        <pt x="464" y="711" on="1"/>
        <pt x="554" y="711" on="0"/>
        <pt x="649" y="774" on="0"/>
        <pt x="649" y="830" on="1"/>
        <pt x="649" y="876" on="0"/>
        <pt x="594" y="933" on="0"/>
        <pt x="546" y="933" on="1"/>
        <pt x="473" y="933" on="0"/>
        <pt x="374" y="832" on="0"/>
      </contour>
    </TTGlyph>
    <TTGlyph name="glyph00161" xMin="53" yMin="-24" xMax="1517" yMax="1154">
      <contour>
        <pt x="1157" y="324" on="1"/>
        <pt x="1190" y="273" on="0"/>
        <pt x="1190" y="205" on="1"/>
        <pt x="1190" y="97" on="0"/>
        <pt x="984" y="-24" on="0"/>
        <pt x="797" y="-24" on="1"/>
        <pt x="626" y="-24" on="0"/>
        <pt x="418" y="97" on="0"/>
        <pt x="418" y="203" on="1"/>
        <pt x="418" y="269" on="0"/>
        <pt x="462" y="324" on="1"/>
        <pt x="266" y="368" on="0"/>
        <pt x="53" y="605" on="0"/>
        <pt x="53" y="769" on="1"/>
        <pt x="53" y="940" on="0"/>
        <pt x="280" y="1154" on="0"/>
        <pt x="472" y="1154" on="1"/>
        <pt x="616" y="1154" on="0"/>
        <pt x="793" y="999" on="0"/>
        <pt x="793" y="865" on="1"/>
        <pt x="793" y="725" on="0"/>
        <pt x="620" y="568" on="0"/>
        <pt x="459" y="568" on="1"/>
        <pt x="458" y="568" on="1"/>
        <pt x="528" y="545" on="0"/>
        <pt x="716" y="525" on="0"/>
        <pt x="800" y="525" on="1"/>
        <pt x="899" y="525" on="0"/>
        <pt x="1103" y="563" on="0"/>
        <pt x="1216" y="651" on="0"/>
        <pt x="1216" y="718" on="1"/>
        <pt x="1216" y="770" on="0"/>
        <pt x="1134" y="850" on="0"/>
        <pt x="1049" y="873" on="1"/>
        <pt x="917" y="873" on="1"/>
        <pt x="917" y="1130" on="1"/>
        <pt x="1332" y="1130" on="1"/>
        <pt x="1332" y="936" on="1"/>
        <pt x="1517" y="854" on="0"/>
        <pt x="1517" y="683" on="1"/>
        <pt x="1517" y="550" on="0"/>
        <pt x="1336" y="366" on="0"/>
      </contour>
      <contour>
        <pt x="301" y="761" on="1"/>
        <pt x="342" y="752" on="0"/>
        <pt x="388" y="752" on="1"/>
        <pt x="544" y="752" on="0"/>
        <pt x="544" y="853" on="1"/>
        <pt x="544" y="894" on="0"/>
        <pt x="493" y="936" on="0"/>
        <pt x="452" y="936" on="1"/>
        <pt x="383" y="936" on="0"/>
        <pt x="301" y="848" on="0"/>
        <pt x="301" y="774" on="1"/>
      </contour>
      <contour>
        <pt x="803" y="321" on="1"/>
        <pt x="747" y="316" on="0"/>
        <pt x="688" y="275" on="0"/>
        <pt x="688" y="247" on="1"/>
        <pt x="688" y="216" on="0"/>
        <pt x="746" y="176" on="0"/>
        <pt x="804" y="176" on="1"/>
        <pt x="919" y="176" on="0"/>
        <pt x="919" y="247" on="1"/>
        <pt x="919" y="274" on="0"/>
        <pt x="856" y="317" on="0"/>
      </contour>
    </TTGlyph>
    <TTGlyph name="glyph00162" xMin="59" yMin="-24" xMax="1694" yMax="1130">
      <contour>
        <pt x="924" y="135" on="1"/>
        <pt x="839" y="52" on="0"/>
        <pt x="637" y="-24" on="0"/>
        <pt x="487" y="-24" on="1"/>
        <pt x="291" y="-24" on="0"/>
        <pt x="59" y="185" on="0"/>
        <pt x="59" y="357" on="1"/>
        <pt x="59" y="506" on="0"/>
        <pt x="257" y="690" on="0"/>
        <pt x="418" y="690" on="1"/>
        <pt x="557" y="690" on="0"/>
        <pt x="708" y="575" on="0"/>
        <pt x="708" y="467" on="1"/>
        <pt x="708" y="401" on="0"/>
        <pt x="676" y="341" on="1"/>
        <pt x="471" y="358" on="1"/>
        <pt x="479" y="374" on="0"/>
        <pt x="479" y="403" on="1"/>
        <pt x="479" y="468" on="0"/>
        <pt x="409" y="468" on="1"/>
        <pt x="367" y="468" on="0"/>
        <pt x="314" y="415" on="0"/>
        <pt x="314" y="369" on="1"/>
        <pt x="314" y="235" on="0"/>
        <pt x="539" y="235" on="1"/>
        <pt x="770" y="235" on="0"/>
        <pt x="790" y="450" on="1"/>
        <pt x="1059" y="450" on="1"/>
        <pt x="1066" y="347" on="0"/>
        <pt x="1164" y="235" on="0"/>
        <pt x="1242" y="235" on="1"/>
        <pt x="1317" y="235" on="0"/>
        <pt x="1395" y="333" on="0"/>
        <pt x="1395" y="423" on="1"/>
        <pt x="1395" y="560" on="0"/>
        <pt x="1207" y="802" on="0"/>
        <pt x="1040" y="873" on="1"/>
        <pt x="59" y="873" on="1"/>
        <pt x="59" y="1130" on="1"/>
        <pt x="1422" y="1130" on="1"/>
        <pt x="1422" y="898" on="1"/>
        <pt x="1562" y="797" on="0"/>
        <pt x="1694" y="559" on="0"/>
        <pt x="1694" y="412" on="1"/>
        <pt x="1694" y="201" on="0"/>
        <pt x="1483" y="-24" on="0"/>
        <pt x="1300" y="-24" on="1"/>
        <pt x="1176" y="-24" on="0"/>
        <pt x="997" y="52" on="0"/>
      </contour>
    </TTGlyph>
    <TTGlyph name="glyph00163" xMin="62" yMin="-24" xMax="1355" yMax="1130">
      <contour>
        <pt x="465" y="754" on="1"/>
        <pt x="182" y="652" on="1"/>
        <pt x="138" y="734" on="0"/>
        <pt x="138" y="817" on="1"/>
        <pt x="138" y="848" on="0"/>
        <pt x="151" y="873" on="1"/>
        <pt x="64" y="873" on="1"/>
        <pt x="64" y="1130" on="1"/>
        <pt x="1107" y="1130" on="1"/>
        <pt x="1107" y="962" on="1"/>
        <pt x="1229" y="887" on="0"/>
        <pt x="1355" y="674" on="0"/>
        <pt x="1355" y="542" on="1"/>
        <pt x="1355" y="275" on="0"/>
        <pt x="965" y="-24" on="0"/>
        <pt x="606" y="-24" on="1"/>
        <pt x="350" y="-24" on="0"/>
        <pt x="62" y="161" on="0"/>
        <pt x="62" y="328" on="1"/>
        <pt x="62" y="431" on="0"/>
        <pt x="156" y="564" on="0"/>
        <pt x="318" y="643" on="0"/>
        <pt x="461" y="675" on="1"/>
        <pt x="561" y="697" on="0"/>
        <pt x="646" y="729" on="0"/>
        <pt x="686" y="773" on="0"/>
        <pt x="686" y="806" on="1"/>
        <pt x="686" y="890" on="0"/>
        <pt x="569" y="890" on="1"/>
        <pt x="452" y="890" on="0"/>
        <pt x="452" y="810" on="1"/>
        <pt x="452" y="779" on="0"/>
      </contour>
      <contour>
        <pt x="922" y="873" on="1"/>
        <pt x="908" y="873" on="1"/>
        <pt x="943" y="819" on="0"/>
        <pt x="943" y="759" on="1"/>
        <pt x="943" y="638" on="0"/>
        <pt x="790" y="505" on="0"/>
        <pt x="570" y="453" on="1"/>
        <pt x="464" y="428" on="0"/>
        <pt x="390" y="404" on="0"/>
        <pt x="349" y="372" on="0"/>
        <pt x="349" y="339" on="1"/>
        <pt x="349" y="285" on="0"/>
        <pt x="475" y="235" on="0"/>
        <pt x="604" y="235" on="1"/>
        <pt x="824" y="235" on="0"/>
        <pt x="1061" y="403" on="0"/>
        <pt x="1061" y="555" on="1"/>
        <pt x="1061" y="648" on="0"/>
        <pt x="988" y="812" on="0"/>
      </contour>
    </TTGlyph>
    <TTGlyph name="glyph00164" xMin="59" yMin="-133" xMax="1733" yMax="1130">
      <contour>
        <pt x="59" y="873" on="1"/>
        <pt x="59" y="1130" on="1"/>
        <pt x="1457" y="1130" on="1"/>
        <pt x="1457" y="873" on="1"/>
      </contour>
      <contour>
        <pt x="912" y="837" on="1"/>
        <pt x="982" y="837" on="0"/>
        <pt x="1074" y="750" on="0"/>
        <pt x="1074" y="685" on="1"/>
        <pt x="1074" y="620" on="0"/>
        <pt x="984" y="534" on="0"/>
        <pt x="912" y="534" on="1"/>
        <pt x="840" y="534" on="0"/>
        <pt x="753" y="618" on="0"/>
        <pt x="753" y="685" on="1"/>
        <pt x="753" y="751" on="0"/>
        <pt x="843" y="837" on="0"/>
      </contour>
      <contour>
        <pt x="1504" y="-133" on="1"/>
        <pt x="1422" y="-13" on="1"/>
        <pt x="1371" y="-24" on="0"/>
        <pt x="1319" y="-24" on="1"/>
        <pt x="1183" y="-24" on="0"/>
        <pt x="998" y="50" on="0"/>
        <pt x="924" y="135" on="1"/>
        <pt x="839" y="52" on="0"/>
        <pt x="637" y="-24" on="0"/>
        <pt x="487" y="-24" on="1"/>
        <pt x="291" y="-24" on="0"/>
        <pt x="59" y="185" on="0"/>
        <pt x="59" y="357" on="1"/>
        <pt x="59" y="506" on="0"/>
        <pt x="257" y="690" on="0"/>
        <pt x="418" y="690" on="1"/>
        <pt x="557" y="690" on="0"/>
        <pt x="708" y="575" on="0"/>
        <pt x="708" y="467" on="1"/>
        <pt x="708" y="401" on="0"/>
        <pt x="676" y="341" on="1"/>
        <pt x="471" y="358" on="1"/>
        <pt x="479" y="374" on="0"/>
        <pt x="479" y="403" on="1"/>
        <pt x="479" y="468" on="0"/>
        <pt x="409" y="468" on="1"/>
        <pt x="367" y="468" on="0"/>
        <pt x="314" y="415" on="0"/>
        <pt x="314" y="369" on="1"/>
        <pt x="314" y="235" on="0"/>
        <pt x="539" y="235" on="1"/>
        <pt x="770" y="235" on="0"/>
        <pt x="790" y="450" on="1"/>
        <pt x="1059" y="450" on="1"/>
        <pt x="1067" y="344" on="0"/>
        <pt x="1172" y="229" on="0"/>
        <pt x="1264" y="229" on="1"/>
        <pt x="1273" y="229" on="1"/>
        <pt x="1067" y="526" on="1"/>
        <pt x="1242" y="635" on="1"/>
        <pt x="1435" y="350" on="1"/>
        <pt x="1441" y="374" on="0"/>
        <pt x="1441" y="398" on="1"/>
        <pt x="1441" y="556" on="0"/>
        <pt x="1324" y="708" on="1"/>
        <pt x="1592" y="817" on="1"/>
        <pt x="1733" y="632" on="0"/>
        <pt x="1733" y="380" on="1"/>
        <pt x="1733" y="292" on="0"/>
        <pt x="1679" y="149" on="0"/>
        <pt x="1625" y="94" on="1"/>
        <pt x="1697" y="-9" on="1"/>
      </contour>
    </TTGlyph>
    <TTGlyph name="glyph00165" xMin="59" yMin="-38" xMax="1503" yMax="1130">
      <contour>
        <pt x="80" y="873" on="1"/>
        <pt x="80" y="1130" on="1"/>
        <pt x="1227" y="1130" on="1"/>
        <pt x="1227" y="873" on="1"/>
      </contour>
      <contour>
        <pt x="796" y="851" on="1"/>
        <pt x="865" y="851" on="0"/>
        <pt x="957" y="764" on="0"/>
        <pt x="957" y="699" on="1"/>
        <pt x="957" y="634" on="0"/>
        <pt x="867" y="548" on="0"/>
        <pt x="796" y="548" on="1"/>
        <pt x="722" y="548" on="0"/>
        <pt x="636" y="633" on="0"/>
        <pt x="636" y="699" on="1"/>
        <pt x="636" y="765" on="0"/>
        <pt x="726" y="851" on="0"/>
      </contour>
      <contour>
        <pt x="440" y="58" on="1"/>
        <pt x="170" y="-38" on="1"/>
        <pt x="119" y="31" on="0"/>
        <pt x="59" y="209" on="0"/>
        <pt x="59" y="283" on="1"/>
        <pt x="59" y="443" on="0"/>
        <pt x="258" y="628" on="0"/>
        <pt x="436" y="628" on="1"/>
        <pt x="553" y="628" on="0"/>
        <pt x="735" y="513" on="0"/>
        <pt x="832" y="384" on="1"/>
        <pt x="891" y="304" on="0"/>
        <pt x="999" y="235" on="0"/>
        <pt x="1056" y="235" on="1"/>
        <pt x="1129" y="235" on="0"/>
        <pt x="1204" y="322" on="0"/>
        <pt x="1204" y="407" on="1"/>
        <pt x="1204" y="477" on="0"/>
        <pt x="1148" y="636" on="0"/>
        <pt x="1095" y="708" on="1"/>
        <pt x="1362" y="817" on="1"/>
        <pt x="1503" y="631" on="0"/>
        <pt x="1503" y="393" on="1"/>
        <pt x="1503" y="189" on="0"/>
        <pt x="1278" y="-24" on="0"/>
        <pt x="1061" y="-24" on="1"/>
        <pt x="920" y="-24" on="0"/>
        <pt x="703" y="98" on="0"/>
        <pt x="582" y="259" on="1"/>
        <pt x="526" y="333" on="0"/>
        <pt x="475" y="373" on="0"/>
        <pt x="449" y="373" on="1"/>
        <pt x="406" y="373" on="0"/>
        <pt x="356" y="319" on="0"/>
        <pt x="356" y="272" on="1"/>
        <pt x="356" y="230" on="0"/>
        <pt x="387" y="142" on="0"/>
      </contour>
    </TTGlyph>
    <TTGlyph name="glyph00166" xMin="63" yMin="-24" xMax="1700" yMax="1130">
      <contour>
        <pt x="914" y="873" on="1"/>
        <pt x="1009" y="802" on="0"/>
        <pt x="1014" y="682" on="1"/>
        <pt x="1061" y="721" on="0"/>
        <pt x="1194" y="760" on="0"/>
        <pt x="1280" y="760" on="1"/>
        <pt x="1474" y="760" on="0"/>
        <pt x="1700" y="547" on="0"/>
        <pt x="1700" y="366" on="1"/>
        <pt x="1700" y="180" on="0"/>
        <pt x="1460" y="-24" on="0"/>
        <pt x="1238" y="-24" on="1"/>
        <pt x="1121" y="-24" on="0"/>
        <pt x="940" y="41" on="0"/>
        <pt x="877" y="106" on="1"/>
        <pt x="814" y="41" on="0"/>
        <pt x="640" y="-24" on="0"/>
        <pt x="529" y="-24" on="1"/>
        <pt x="305" y="-24" on="0"/>
        <pt x="63" y="177" on="0"/>
        <pt x="63" y="366" on="1"/>
        <pt x="63" y="547" on="0"/>
        <pt x="306" y="760" on="0"/>
        <pt x="517" y="760" on="1"/>
        <pt x="598" y="760" on="0"/>
        <pt x="720" y="723" on="0"/>
        <pt x="761" y="686" on="1"/>
        <pt x="727" y="834" on="0"/>
        <pt x="571" y="873" on="1"/>
        <pt x="66" y="873" on="1"/>
        <pt x="66" y="1130" on="1"/>
        <pt x="1413" y="1130" on="1"/>
        <pt x="1413" y="873" on="1"/>
      </contour>
      <contour>
        <pt x="548" y="215" on="1"/>
        <pt x="642" y="215" on="0"/>
        <pt x="741" y="294" on="0"/>
        <pt x="741" y="367" on="1"/>
        <pt x="741" y="440" on="0"/>
        <pt x="643" y="522" on="0"/>
        <pt x="554" y="522" on="1"/>
        <pt x="458" y="522" on="0"/>
        <pt x="360" y="441" on="0"/>
        <pt x="360" y="369" on="1"/>
        <pt x="360" y="295" on="0"/>
        <pt x="456" y="215" on="0"/>
      </contour>
      <contour>
        <pt x="1210" y="215" on="1"/>
        <pt x="1304" y="215" on="0"/>
        <pt x="1403" y="292" on="0"/>
        <pt x="1403" y="367" on="1"/>
        <pt x="1403" y="439" on="0"/>
        <pt x="1308" y="522" on="0"/>
        <pt x="1223" y="522" on="1"/>
        <pt x="1126" y="522" on="0"/>
        <pt x="1022" y="438" on="0"/>
        <pt x="1022" y="369" on="1"/>
        <pt x="1022" y="296" on="0"/>
        <pt x="1119" y="215" on="0"/>
      </contour>
    </TTGlyph>
    <TTGlyph name="glyph00167" xMin="50" yMin="-417" xMax="1720" yMax="1154">
      <component glyphName="glyph00141" x="0" y="0" flags="0x200"/>
      <component glyphName="uni0CBC" x="1405" y="0" flags="0x4"/>
    </TTGlyph>
    <TTGlyph name="glyph00168" xMin="59" yMin="-417" xMax="1693" yMax="1130">
      <contour>
        <pt x="59" y="873" on="1"/>
        <pt x="59" y="1130" on="1"/>
        <pt x="1417" y="1130" on="1"/>
        <pt x="1417" y="873" on="1"/>
      </contour>
      <contour>
        <pt x="912" y="837" on="1"/>
        <pt x="982" y="837" on="0"/>
        <pt x="1074" y="750" on="0"/>
        <pt x="1074" y="685" on="1"/>
        <pt x="1074" y="620" on="0"/>
        <pt x="984" y="534" on="0"/>
        <pt x="912" y="534" on="1"/>
        <pt x="840" y="534" on="0"/>
        <pt x="753" y="618" on="0"/>
        <pt x="753" y="685" on="1"/>
        <pt x="753" y="751" on="0"/>
        <pt x="843" y="837" on="0"/>
      </contour>
      <contour>
        <pt x="1059" y="450" on="1"/>
        <pt x="1066" y="347" on="0"/>
        <pt x="1164" y="235" on="0"/>
        <pt x="1242" y="235" on="1"/>
        <pt x="1316" y="235" on="0"/>
        <pt x="1394" y="324" on="0"/>
        <pt x="1394" y="401" on="1"/>
        <pt x="1394" y="475" on="0"/>
        <pt x="1338" y="634" on="0"/>
        <pt x="1284" y="708" on="1"/>
        <pt x="1552" y="817" on="1"/>
        <pt x="1693" y="632" on="0"/>
        <pt x="1693" y="380" on="1"/>
        <pt x="1693" y="189" on="0"/>
        <pt x="1476" y="-24" on="0"/>
        <pt x="1299" y="-24" on="1"/>
        <pt x="1175" y="-24" on="0"/>
        <pt x="996" y="52" on="0"/>
        <pt x="924" y="135" on="1"/>
        <pt x="839" y="52" on="0"/>
        <pt x="637" y="-24" on="0"/>
        <pt x="487" y="-24" on="1"/>
        <pt x="291" y="-24" on="0"/>
        <pt x="59" y="185" on="0"/>
        <pt x="59" y="357" on="1"/>
        <pt x="59" y="506" on="0"/>
        <pt x="257" y="690" on="0"/>
        <pt x="418" y="690" on="1"/>
        <pt x="557" y="690" on="0"/>
        <pt x="708" y="575" on="0"/>
        <pt x="708" y="467" on="1"/>
        <pt x="708" y="401" on="0"/>
        <pt x="676" y="341" on="1"/>
        <pt x="471" y="358" on="1"/>
        <pt x="479" y="374" on="0"/>
        <pt x="479" y="403" on="1"/>
        <pt x="479" y="468" on="0"/>
        <pt x="409" y="468" on="1"/>
        <pt x="367" y="468" on="0"/>
        <pt x="314" y="415" on="0"/>
        <pt x="314" y="369" on="1"/>
        <pt x="314" y="235" on="0"/>
        <pt x="539" y="235" on="1"/>
        <pt x="770" y="235" on="0"/>
        <pt x="790" y="450" on="1"/>
      </contour>
      <contour>
        <pt x="768" y="-294" on="1"/>
        <pt x="794" y="16" on="1"/>
        <pt x="1052" y="16" on="1"/>
        <pt x="1078" y="-294" on="1"/>
      </contour>
      <contour>
        <pt x="533" y="-98" on="1"/>
        <pt x="606" y="-98" on="0"/>
        <pt x="703" y="-190" on="0"/>
        <pt x="703" y="-258" on="1"/>
        <pt x="703" y="-326" on="0"/>
        <pt x="609" y="-417" on="0"/>
        <pt x="533" y="-417" on="1"/>
        <pt x="456" y="-417" on="0"/>
        <pt x="366" y="-328" on="0"/>
        <pt x="366" y="-258" on="1"/>
        <pt x="366" y="-190" on="0"/>
        <pt x="459" y="-98" on="0"/>
      </contour>
      <contour>
        <pt x="1312" y="-98" on="1"/>
        <pt x="1385" y="-98" on="0"/>
        <pt x="1482" y="-190" on="0"/>
        <pt x="1482" y="-258" on="1"/>
        <pt x="1482" y="-326" on="0"/>
        <pt x="1388" y="-417" on="0"/>
        <pt x="1312" y="-417" on="1"/>
        <pt x="1235" y="-417" on="0"/>
        <pt x="1145" y="-328" on="0"/>
        <pt x="1145" y="-258" on="1"/>
        <pt x="1145" y="-190" on="0"/>
        <pt x="1238" y="-98" on="0"/>
      </contour>
    </TTGlyph>
    <TTGlyph name="glyph00169" xMin="72" yMin="-24" xMax="2075" yMax="1448">
      <contour>
        <pt x="1948" y="1198" on="1"/>
        <pt x="1866" y="1234" on="0"/>
        <pt x="1780" y="1234" on="1"/>
        <pt x="1642" y="1234" on="0"/>
        <pt x="1587" y="1130" on="1"/>
        <pt x="1595" y="1130" on="1"/>
        <pt x="1690" y="1130" on="0"/>
        <pt x="1826" y="1099" on="0"/>
        <pt x="1945" y="1015" on="0"/>
        <pt x="2011" y="886" on="0"/>
        <pt x="2011" y="799" on="1"/>
        <pt x="2011" y="659" on="0"/>
        <pt x="1832" y="500" on="0"/>
        <pt x="1678" y="500" on="1"/>
        <pt x="1510" y="500" on="0"/>
        <pt x="1312" y="694" on="0"/>
        <pt x="1301" y="873" on="1"/>
        <pt x="836" y="873" on="1"/>
        <pt x="849" y="844" on="0"/>
        <pt x="849" y="823" on="1"/>
        <pt x="849" y="771" on="0"/>
        <pt x="823" y="733" on="1"/>
        <pt x="1231" y="733" on="1"/>
        <pt x="1231" y="524" on="1"/>
        <pt x="1085" y="526" on="1"/>
        <pt x="1193" y="442" on="0"/>
        <pt x="1193" y="303" on="1"/>
        <pt x="1193" y="152" on="0"/>
        <pt x="911" y="-24" on="0"/>
        <pt x="647" y="-24" on="1"/>
        <pt x="396" y="-24" on="0"/>
        <pt x="118" y="155" on="0"/>
        <pt x="118" y="298" on="1"/>
        <pt x="118" y="375" on="0"/>
        <pt x="167" y="481" on="0"/>
        <pt x="220" y="526" on="1"/>
        <pt x="73" y="524" on="1"/>
        <pt x="73" y="733" on="1"/>
        <pt x="501" y="733" on="1"/>
        <pt x="588" y="770" on="0"/>
        <pt x="588" y="825" on="1"/>
        <pt x="588" y="850" on="0"/>
        <pt x="574" y="873" on="1"/>
        <pt x="72" y="873" on="1"/>
        <pt x="72" y="1130" on="1"/>
        <pt x="1325" y="1130" on="1"/>
        <pt x="1371" y="1287" on="0"/>
        <pt x="1606" y="1448" on="0"/>
        <pt x="1775" y="1448" on="1"/>
        <pt x="1950" y="1448" on="0"/>
        <pt x="2075" y="1387" on="1"/>
      </contour>
      <contour>
        <pt x="1550" y="873" on="1"/>
        <pt x="1550" y="868" on="1"/>
        <pt x="1550" y="789" on="0"/>
        <pt x="1615" y="703" on="0"/>
        <pt x="1676" y="703" on="1"/>
        <pt x="1716" y="703" on="0"/>
        <pt x="1759" y="744" on="0"/>
        <pt x="1759" y="783" on="1"/>
        <pt x="1759" y="811" on="0"/>
        <pt x="1723" y="855" on="0"/>
        <pt x="1661" y="873" on="0"/>
        <pt x="1599" y="873" on="1"/>
      </contour>
      <contour>
        <pt x="655" y="554" on="1"/>
        <pt x="539" y="554" on="0"/>
        <pt x="415" y="466" on="0"/>
        <pt x="415" y="391" on="1"/>
        <pt x="415" y="314" on="0"/>
        <pt x="539" y="230" on="0"/>
        <pt x="655" y="230" on="1"/>
        <pt x="773" y="230" on="0"/>
        <pt x="896" y="316" on="0"/>
        <pt x="896" y="391" on="1"/>
        <pt x="896" y="467" on="0"/>
        <pt x="772" y="554" on="0"/>
      </contour>
    </TTGlyph>
    <TTGlyph name="glyph00170" xMin="46" yMin="-24" xMax="2693" yMax="1448">
      <contour>
        <pt x="1024" y="310" on="1"/>
        <pt x="1092" y="270" on="0"/>
        <pt x="1216" y="235" on="0"/>
        <pt x="1300" y="235" on="1"/>
        <pt x="1548" y="235" on="0"/>
        <pt x="1548" y="476" on="1"/>
        <pt x="1548" y="719" on="0"/>
        <pt x="1271" y="873" on="1"/>
        <pt x="1137" y="873" on="1"/>
        <pt x="1137" y="1130" on="1"/>
        <pt x="1943" y="1130" on="1"/>
        <pt x="1989" y="1287" on="0"/>
        <pt x="2224" y="1448" on="0"/>
        <pt x="2393" y="1448" on="1"/>
        <pt x="2568" y="1448" on="0"/>
        <pt x="2693" y="1387" on="1"/>
        <pt x="2566" y="1198" on="1"/>
        <pt x="2484" y="1234" on="0"/>
        <pt x="2398" y="1234" on="1"/>
        <pt x="2260" y="1234" on="0"/>
        <pt x="2205" y="1130" on="1"/>
        <pt x="2213" y="1130" on="1"/>
        <pt x="2308" y="1130" on="0"/>
        <pt x="2444" y="1099" on="0"/>
        <pt x="2563" y="1015" on="0"/>
        <pt x="2629" y="886" on="0"/>
        <pt x="2629" y="799" on="1"/>
        <pt x="2629" y="659" on="0"/>
        <pt x="2450" y="500" on="0"/>
        <pt x="2296" y="500" on="1"/>
        <pt x="2128" y="500" on="0"/>
        <pt x="1930" y="694" on="0"/>
        <pt x="1919" y="873" on="1"/>
        <pt x="1671" y="873" on="1"/>
        <pt x="1848" y="705" on="0"/>
        <pt x="1848" y="465" on="1"/>
        <pt x="1848" y="227" on="0"/>
        <pt x="1584" y="-24" on="0"/>
        <pt x="1336" y="-24" on="1"/>
        <pt x="1182" y="-24" on="0"/>
        <pt x="981" y="35" on="0"/>
        <pt x="865" y="112" on="1"/>
        <pt x="785" y="44" on="0"/>
        <pt x="575" y="-24" on="0"/>
        <pt x="445" y="-24" on="1"/>
        <pt x="250" y="-24" on="0"/>
        <pt x="46" y="132" on="0"/>
        <pt x="46" y="283" on="1"/>
        <pt x="46" y="404" on="0"/>
        <pt x="229" y="552" on="0"/>
        <pt x="395" y="552" on="1"/>
        <pt x="504" y="552" on="0"/>
        <pt x="673" y="504" on="0"/>
        <pt x="773" y="445" on="1"/>
        <pt x="783" y="482" on="0"/>
        <pt x="794" y="565" on="0"/>
        <pt x="794" y="610" on="1"/>
        <pt x="794" y="765" on="0"/>
        <pt x="682" y="925" on="0"/>
        <pt x="572" y="925" on="1"/>
        <pt x="513" y="925" on="0"/>
        <pt x="428" y="870" on="0"/>
        <pt x="428" y="824" on="1"/>
        <pt x="428" y="787" on="0"/>
        <pt x="444" y="768" on="1"/>
        <pt x="452" y="810" on="0"/>
        <pt x="513" y="851" on="0"/>
        <pt x="556" y="851" on="1"/>
        <pt x="602" y="851" on="0"/>
        <pt x="664" y="787" on="0"/>
        <pt x="664" y="740" on="1"/>
        <pt x="664" y="664" on="0"/>
        <pt x="567" y="582" on="0"/>
        <pt x="467" y="582" on="1"/>
        <pt x="332" y="582" on="0"/>
        <pt x="179" y="723" on="0"/>
        <pt x="179" y="851" on="1"/>
        <pt x="179" y="991" on="0"/>
        <pt x="386" y="1154" on="0"/>
        <pt x="562" y="1154" on="1"/>
        <pt x="814" y="1154" on="0"/>
        <pt x="1090" y="866" on="0"/>
        <pt x="1090" y="610" on="1"/>
        <pt x="1090" y="525" on="0"/>
        <pt x="1057" y="375" on="0"/>
      </contour>
      <contour>
        <pt x="2168" y="873" on="1"/>
        <pt x="2168" y="868" on="1"/>
        <pt x="2168" y="789" on="0"/>
        <pt x="2233" y="703" on="0"/>
        <pt x="2294" y="703" on="1"/>
        <pt x="2334" y="703" on="0"/>
        <pt x="2377" y="744" on="0"/>
        <pt x="2377" y="783" on="1"/>
        <pt x="2377" y="811" on="0"/>
        <pt x="2341" y="855" on="0"/>
        <pt x="2279" y="873" on="0"/>
        <pt x="2217" y="873" on="1"/>
      </contour>
      <contour>
        <pt x="649" y="261" on="1"/>
        <pt x="592" y="294" on="0"/>
        <pt x="482" y="336" on="0"/>
        <pt x="425" y="336" on="1"/>
        <pt x="326" y="336" on="0"/>
        <pt x="326" y="276" on="1"/>
        <pt x="326" y="243" on="0"/>
        <pt x="394" y="209" on="0"/>
        <pt x="455" y="209" on="1"/>
        <pt x="513" y="209" on="0"/>
        <pt x="610" y="235" on="0"/>
      </contour>
    </TTGlyph>
</ttFont>
